<?xml version="1.0" encoding="UTF-8"?>
<svg xmlns="http://www.w3.org/2000/svg" xmlns:xlink="http://www.w3.org/1999/xlink" width="86.5pt" height="86.96pt" viewBox="0 0 86.5 86.96" version="1.1">
<defs>
<clipPath id="clip1">
  <path d="M 84 42 L 86.5 42 L 86.5 45 L 84 45 Z M 84 42 "/>
</clipPath>
<clipPath id="clip2">
  <path d="M 78 36 L 86.5 36 L 86.5 51 L 78 51 Z M 78 36 "/>
</clipPath>
<clipPath id="clip3">
  <path d="M 74 19 L 86.5 19 L 86.5 33 L 74 33 Z M 74 19 "/>
</clipPath>
<clipPath id="clip4">
  <path d="M 14 73 L 29 73 L 29 86.960938 L 14 86.960938 Z M 14 73 "/>
</clipPath>
<clipPath id="clip5">
  <path d="M 37 84 L 40 84 L 40 86.960938 L 37 86.960938 Z M 37 84 "/>
</clipPath>
<clipPath id="clip6">
  <path d="M 31 79 L 45 79 L 45 86.960938 L 31 86.960938 Z M 31 79 "/>
</clipPath>
<clipPath id="clip7">
  <path d="M 49 77 L 63 77 L 63 86.960938 L 49 86.960938 Z M 49 77 "/>
</clipPath>
<clipPath id="clip8">
  <path d="M 74 54 L 86.5 54 L 86.5 68 L 74 68 Z M 74 54 "/>
</clipPath>
<clipPath id="clip9">
  <path d="M 15 1 L 86.5 1 L 86.5 50 L 15 50 Z M 15 1 "/>
</clipPath>
<clipPath id="clip10">
  <path d="M 15 1 L 86.5 1 L 86.5 67 L 15 67 Z M 15 1 "/>
</clipPath>
<clipPath id="clip11">
  <path d="M 50 0 L 86.5 0 L 86.5 50 L 50 50 Z M 50 0 "/>
</clipPath>
<clipPath id="clip12">
  <path d="M 15 37 L 86.5 37 L 86.5 86 L 15 86 Z M 15 37 "/>
</clipPath>
<clipPath id="clip13">
  <path d="M 15 1 L 86.5 1 L 86.5 32 L 15 32 Z M 15 1 "/>
</clipPath>
<clipPath id="clip14">
  <path d="M 15 1 L 62 1 L 62 86.960938 L 15 86.960938 Z M 15 1 "/>
</clipPath>
<clipPath id="clip15">
  <path d="M 15 1 L 86.5 1 L 86.5 32 L 15 32 Z M 15 1 "/>
</clipPath>
<clipPath id="clip16">
  <path d="M 15 74 L 62 74 L 62 86.960938 L 15 86.960938 Z M 15 74 "/>
</clipPath>
<clipPath id="clip17">
  <path d="M 0 46 L 86.5 46 L 86.5 67 L 0 67 Z M 0 46 "/>
</clipPath>
<clipPath id="clip18">
  <path d="M 50 0 L 86.5 0 L 86.5 67 L 50 67 Z M 50 0 "/>
</clipPath>
<clipPath id="clip19">
  <path d="M 2 12 L 62 12 L 62 86.960938 L 2 86.960938 Z M 2 12 "/>
</clipPath>
</defs>
<g id="surface1">
<g clip-path="url(#clip1)" clip-rule="nonzero">
<path style=" stroke:none;fill-rule:nonzero;fill:rgb(0%,0%,0%);fill-opacity:1;" d="M 86.300781 43.476562 C 86.300781 42.925781 85.855469 42.480469 85.304688 42.480469 C 84.757812 42.480469 84.308594 42.925781 84.308594 43.476562 C 84.308594 44.027344 84.757812 44.472656 85.304688 44.472656 C 85.855469 44.472656 86.300781 44.027344 86.300781 43.476562 Z M 86.300781 43.476562 "/>
</g>
<g clip-path="url(#clip2)" clip-rule="nonzero">
<path style="fill:none;stroke-width:0.3985;stroke-linecap:butt;stroke-linejoin:miter;stroke:rgb(0%,0%,0%);stroke-opacity:1;stroke-miterlimit:10;" d="M 43.514781 0.0004375 C 43.514781 0.551219 43.069469 0.996531 42.518687 0.996531 C 41.971812 0.996531 41.522594 0.551219 41.522594 0.0004375 C 41.522594 -0.550344 41.971812 -0.995656 42.518687 -0.995656 C 43.069469 -0.995656 43.514781 -0.550344 43.514781 0.0004375 Z M 43.514781 0.0004375 " transform="matrix(1,0,0,-1,42.786,43.477)"/>
</g>
<path style=" stroke:none;fill-rule:nonzero;fill:rgb(0%,0%,0%);fill-opacity:1;" d="M 82.625 26.183594 C 82.625 25.632812 82.179688 25.1875 81.628906 25.1875 C 81.078125 25.1875 80.632812 25.632812 80.632812 26.183594 C 80.632812 26.734375 81.078125 27.179688 81.628906 27.179688 C 82.179688 27.179688 82.625 26.734375 82.625 26.183594 Z M 82.625 26.183594 "/>
<g clip-path="url(#clip3)" clip-rule="nonzero">
<path style="fill:none;stroke-width:0.3985;stroke-linecap:butt;stroke-linejoin:miter;stroke:rgb(0%,0%,0%);stroke-opacity:1;stroke-miterlimit:10;" d="M 39.839 17.293406 C 39.839 17.844188 39.393687 18.2895 38.842906 18.2895 C 38.292125 18.2895 37.846812 17.844188 37.846812 17.293406 C 37.846812 16.742625 38.292125 16.297313 38.842906 16.297313 C 39.393687 16.297313 39.839 16.742625 39.839 17.293406 Z M 39.839 17.293406 " transform="matrix(1,0,0,-1,42.786,43.477)"/>
</g>
<path style="fill-rule:nonzero;fill:rgb(0%,0%,0%);fill-opacity:1;stroke-width:0.3985;stroke-linecap:butt;stroke-linejoin:miter;stroke:rgb(0%,0%,0%);stroke-opacity:1;stroke-miterlimit:10;" d="M 29.448375 31.598094 C 29.448375 32.148875 29.003062 32.594188 28.452281 32.594188 C 27.9015 32.594188 27.456187 32.148875 27.456187 31.598094 C 27.456187 31.047313 27.9015 30.602 28.452281 30.602 C 29.003062 30.602 29.448375 31.047313 29.448375 31.598094 Z M 29.448375 31.598094 " transform="matrix(1,0,0,-1,42.786,43.477)"/>
<path style="fill-rule:nonzero;fill:rgb(0%,0%,0%);fill-opacity:1;stroke-width:0.3985;stroke-linecap:butt;stroke-linejoin:miter;stroke:rgb(0%,0%,0%);stroke-opacity:1;stroke-miterlimit:10;" d="M 14.135875 40.437938 C 14.135875 40.988719 13.690562 41.434031 13.139781 41.434031 C 12.589 41.434031 12.143687 40.988719 12.143687 40.437938 C 12.143687 39.891063 12.589 39.441844 13.139781 39.441844 C 13.690562 39.441844 14.135875 39.891063 14.135875 40.437938 Z M 14.135875 40.437938 " transform="matrix(1,0,0,-1,42.786,43.477)"/>
<path style="fill-rule:nonzero;fill:rgb(0%,0%,0%);fill-opacity:1;stroke-width:0.3985;stroke-linecap:butt;stroke-linejoin:miter;stroke:rgb(0%,0%,0%);stroke-opacity:1;stroke-miterlimit:10;" d="M -3.446156 42.285594 C -3.446156 42.836375 -3.895375 43.281688 -4.446156 43.281688 C -4.993031 43.281688 -5.44225 42.836375 -5.44225 42.285594 C -5.44225 41.738719 -4.993031 41.2895 -4.446156 41.2895 C -3.895375 41.2895 -3.446156 41.738719 -3.446156 42.285594 Z M -3.446156 42.285594 " transform="matrix(1,0,0,-1,42.786,43.477)"/>
<path style="fill-rule:nonzero;fill:rgb(0%,0%,0%);fill-opacity:1;stroke-width:0.3985;stroke-linecap:butt;stroke-linejoin:miter;stroke:rgb(0%,0%,0%);stroke-opacity:1;stroke-miterlimit:10;" d="M -20.262563 36.824656 C -20.262563 37.375438 -20.711781 37.82075 -21.258656 37.82075 C -21.809438 37.82075 -22.25475 37.375438 -22.25475 36.824656 C -22.25475 36.273875 -21.809438 35.828563 -21.258656 35.828563 C -20.711781 35.828563 -20.262563 36.273875 -20.262563 36.824656 Z M -20.262563 36.824656 " transform="matrix(1,0,0,-1,42.786,43.477)"/>
<path style="fill-rule:nonzero;fill:rgb(0%,0%,0%);fill-opacity:1;stroke-width:0.3985;stroke-linecap:butt;stroke-linejoin:miter;stroke:rgb(0%,0%,0%);stroke-opacity:1;stroke-miterlimit:10;" d="M -33.403188 24.992625 C -33.403188 25.543406 -33.8485 25.988719 -34.399281 25.988719 C -34.950063 25.988719 -35.395375 25.543406 -35.395375 24.992625 C -35.395375 24.441844 -34.950063 23.996531 -34.399281 23.996531 C -33.8485 23.996531 -33.403188 24.441844 -33.403188 24.992625 Z M -33.403188 24.992625 " transform="matrix(1,0,0,-1,42.786,43.477)"/>
<path style="fill-rule:nonzero;fill:rgb(0%,0%,0%);fill-opacity:1;stroke-width:0.3985;stroke-linecap:butt;stroke-linejoin:miter;stroke:rgb(0%,0%,0%);stroke-opacity:1;stroke-miterlimit:10;" d="M -40.594594 8.840281 C -40.594594 9.391063 -41.039906 9.836375 -41.590688 9.836375 C -42.141469 9.836375 -42.586781 9.391063 -42.586781 8.840281 C -42.586781 8.2895 -42.141469 7.844188 -41.590688 7.844188 C -41.039906 7.844188 -40.594594 8.2895 -40.594594 8.840281 Z M -40.594594 8.840281 " transform="matrix(1,0,0,-1,42.786,43.477)"/>
<path style="fill-rule:nonzero;fill:rgb(0%,0%,0%);fill-opacity:1;stroke-width:0.3985;stroke-linecap:butt;stroke-linejoin:miter;stroke:rgb(0%,0%,0%);stroke-opacity:1;stroke-miterlimit:10;" d="M -40.594594 -8.839406 C -40.594594 -8.288625 -41.039906 -7.843312 -41.590688 -7.843312 C -42.141469 -7.843312 -42.586781 -8.288625 -42.586781 -8.839406 C -42.586781 -9.390187 -42.141469 -9.8355 -41.590688 -9.8355 C -41.039906 -9.8355 -40.594594 -9.390187 -40.594594 -8.839406 Z M -40.594594 -8.839406 " transform="matrix(1,0,0,-1,42.786,43.477)"/>
<path style="fill-rule:nonzero;fill:rgb(0%,0%,0%);fill-opacity:1;stroke-width:0.3985;stroke-linecap:butt;stroke-linejoin:miter;stroke:rgb(0%,0%,0%);stroke-opacity:1;stroke-miterlimit:10;" d="M -33.403188 -24.99175 C -33.403188 -24.440969 -33.8485 -23.995656 -34.399281 -23.995656 C -34.950063 -23.995656 -35.395375 -24.440969 -35.395375 -24.99175 C -35.395375 -25.542531 -34.950063 -25.987844 -34.399281 -25.987844 C -33.8485 -25.987844 -33.403188 -25.542531 -33.403188 -24.99175 Z M -33.403188 -24.99175 " transform="matrix(1,0,0,-1,42.786,43.477)"/>
<path style=" stroke:none;fill-rule:nonzero;fill:rgb(0%,0%,0%);fill-opacity:1;" d="M 22.523438 80.300781 C 22.523438 79.75 22.074219 79.304688 21.527344 79.304688 C 20.976562 79.304688 20.53125 79.75 20.53125 80.300781 C 20.53125 80.851562 20.976562 81.296875 21.527344 81.296875 C 22.074219 81.296875 22.523438 80.851562 22.523438 80.300781 Z M 22.523438 80.300781 "/>
<g clip-path="url(#clip4)" clip-rule="nonzero">
<path style="fill:none;stroke-width:0.3985;stroke-linecap:butt;stroke-linejoin:miter;stroke:rgb(0%,0%,0%);stroke-opacity:1;stroke-miterlimit:10;" d="M -20.262563 -36.823781 C -20.262563 -36.273 -20.711781 -35.827687 -21.258656 -35.827687 C -21.809438 -35.827687 -22.25475 -36.273 -22.25475 -36.823781 C -22.25475 -37.374562 -21.809438 -37.819875 -21.258656 -37.819875 C -20.711781 -37.819875 -20.262563 -37.374562 -20.262563 -36.823781 Z M -20.262563 -36.823781 " transform="matrix(1,0,0,-1,42.786,43.477)"/>
</g>
<g clip-path="url(#clip5)" clip-rule="nonzero">
<path style=" stroke:none;fill-rule:nonzero;fill:rgb(0%,0%,0%);fill-opacity:1;" d="M 39.339844 85.765625 C 39.339844 85.214844 38.890625 84.769531 38.339844 84.769531 C 37.792969 84.769531 37.34375 85.214844 37.34375 85.765625 C 37.34375 86.316406 37.792969 86.761719 38.339844 86.761719 C 38.890625 86.761719 39.339844 86.316406 39.339844 85.765625 Z M 39.339844 85.765625 "/>
</g>
<g clip-path="url(#clip6)" clip-rule="nonzero">
<path style="fill:none;stroke-width:0.3985;stroke-linecap:butt;stroke-linejoin:miter;stroke:rgb(0%,0%,0%);stroke-opacity:1;stroke-miterlimit:10;" d="M -3.446156 -42.288625 C -3.446156 -41.737844 -3.895375 -41.292531 -4.446156 -41.292531 C -4.993031 -41.292531 -5.44225 -41.737844 -5.44225 -42.288625 C -5.44225 -42.839406 -4.993031 -43.284719 -4.446156 -43.284719 C -3.895375 -43.284719 -3.446156 -42.839406 -3.446156 -42.288625 Z M -3.446156 -42.288625 " transform="matrix(1,0,0,-1,42.786,43.477)"/>
</g>
<path style=" stroke:none;fill-rule:nonzero;fill:rgb(0%,0%,0%);fill-opacity:1;" d="M 56.921875 83.917969 C 56.921875 83.367188 56.476562 82.921875 55.925781 82.921875 C 55.375 82.921875 54.929688 83.367188 54.929688 83.917969 C 54.929688 84.464844 55.375 84.914062 55.925781 84.914062 C 56.476562 84.914062 56.921875 84.464844 56.921875 83.917969 Z M 56.921875 83.917969 "/>
<g clip-path="url(#clip7)" clip-rule="nonzero">
<path style="fill:none;stroke-width:0.3985;stroke-linecap:butt;stroke-linejoin:miter;stroke:rgb(0%,0%,0%);stroke-opacity:1;stroke-miterlimit:10;" d="M 14.135875 -40.440969 C 14.135875 -39.890187 13.690562 -39.444875 13.139781 -39.444875 C 12.589 -39.444875 12.143687 -39.890187 12.143687 -40.440969 C 12.143687 -40.987844 12.589 -41.437062 13.139781 -41.437062 C 13.690562 -41.437062 14.135875 -40.987844 14.135875 -40.440969 Z M 14.135875 -40.440969 " transform="matrix(1,0,0,-1,42.786,43.477)"/>
</g>
<path style="fill-rule:nonzero;fill:rgb(0%,0%,0%);fill-opacity:1;stroke-width:0.3985;stroke-linecap:butt;stroke-linejoin:miter;stroke:rgb(0%,0%,0%);stroke-opacity:1;stroke-miterlimit:10;" d="M 29.448375 -31.597219 C 29.448375 -31.046437 29.003062 -30.601125 28.452281 -30.601125 C 27.9015 -30.601125 27.456187 -31.046437 27.456187 -31.597219 C 27.456187 -32.148 27.9015 -32.593312 28.452281 -32.593312 C 29.003062 -32.593312 29.448375 -32.148 29.448375 -31.597219 Z M 29.448375 -31.597219 " transform="matrix(1,0,0,-1,42.786,43.477)"/>
<path style=" stroke:none;fill-rule:nonzero;fill:rgb(0%,0%,0%);fill-opacity:1;" d="M 82.625 60.773438 C 82.625 60.222656 82.179688 59.773438 81.628906 59.773438 C 81.078125 59.773438 80.632812 60.222656 80.632812 60.773438 C 80.632812 61.320312 81.078125 61.769531 81.628906 61.769531 C 82.179688 61.769531 82.625 61.320312 82.625 60.773438 Z M 82.625 60.773438 "/>
<g clip-path="url(#clip8)" clip-rule="nonzero">
<path style="fill:none;stroke-width:0.3985;stroke-linecap:butt;stroke-linejoin:miter;stroke:rgb(0%,0%,0%);stroke-opacity:1;stroke-miterlimit:10;" d="M 39.839 -17.296437 C 39.839 -16.745656 39.393687 -16.296437 38.842906 -16.296437 C 38.292125 -16.296437 37.846812 -16.745656 37.846812 -17.296437 C 37.846812 -17.843312 38.292125 -18.292531 38.842906 -18.292531 C 39.393687 -18.292531 39.839 -17.843312 39.839 -17.296437 Z M 39.839 -17.296437 " transform="matrix(1,0,0,-1,42.786,43.477)"/>
</g>
<g clip-path="url(#clip9)" clip-rule="nonzero">
<path style="fill:none;stroke-width:0.3985;stroke-linecap:butt;stroke-linejoin:miter;stroke:rgb(0%,0%,0%);stroke-opacity:1;stroke-miterlimit:10;" d="M 42.518687 0.0004375 L -21.258656 36.824656 " transform="matrix(1,0,0,-1,42.786,43.477)"/>
</g>
<g clip-path="url(#clip10)" clip-rule="nonzero">
<path style="fill:none;stroke-width:0.3985;stroke-linecap:butt;stroke-linejoin:miter;stroke:rgb(0%,0%,0%);stroke-opacity:1;stroke-miterlimit:10;" d="M -21.258656 36.824656 L 38.842906 -17.296437 " transform="matrix(1,0,0,-1,42.786,43.477)"/>
</g>
<path style="fill:none;stroke-width:0.3985;stroke-linecap:butt;stroke-linejoin:miter;stroke:rgb(0%,0%,0%);stroke-opacity:1;stroke-miterlimit:10;" d="M -4.446156 42.285594 L -4.446156 42.285594 " transform="matrix(1,0,0,-1,42.786,43.477)"/>
<path style="fill:none;stroke-width:0.3985;stroke-linecap:butt;stroke-linejoin:miter;stroke:rgb(0%,0%,0%);stroke-opacity:1;stroke-miterlimit:10;" d="M -34.399281 24.992625 L 28.452281 31.598094 " transform="matrix(1,0,0,-1,42.786,43.477)"/>
<g clip-path="url(#clip11)" clip-rule="nonzero">
<path style="fill:none;stroke-width:0.3985;stroke-linecap:butt;stroke-linejoin:miter;stroke:rgb(0%,0%,0%);stroke-opacity:1;stroke-miterlimit:10;" d="M 13.139781 40.437938 L 42.518687 0.0004375 " transform="matrix(1,0,0,-1,42.786,43.477)"/>
</g>
<g clip-path="url(#clip12)" clip-rule="nonzero">
<path style="fill:none;stroke-width:0.3985;stroke-linecap:butt;stroke-linejoin:miter;stroke:rgb(0%,0%,0%);stroke-opacity:1;stroke-miterlimit:10;" d="M 42.518687 0.0004375 L -21.258656 -36.823781 " transform="matrix(1,0,0,-1,42.786,43.477)"/>
</g>
<path style="fill:none;stroke-width:0.3985;stroke-linecap:butt;stroke-linejoin:miter;stroke:rgb(0%,0%,0%);stroke-opacity:1;stroke-miterlimit:10;" d="M -41.590688 8.840281 L 28.452281 31.598094 " transform="matrix(1,0,0,-1,42.786,43.477)"/>
<g clip-path="url(#clip13)" clip-rule="nonzero">
<path style="fill:none;stroke-width:0.3985;stroke-linecap:butt;stroke-linejoin:miter;stroke:rgb(0%,0%,0%);stroke-opacity:1;stroke-miterlimit:10;" d="M -21.258656 36.824656 L 38.842906 17.293406 " transform="matrix(1,0,0,-1,42.786,43.477)"/>
</g>
<path style="fill:none;stroke-width:0.3985;stroke-linecap:butt;stroke-linejoin:miter;stroke:rgb(0%,0%,0%);stroke-opacity:1;stroke-miterlimit:10;" d="M -41.590688 8.840281 L 28.452281 31.598094 " transform="matrix(1,0,0,-1,42.786,43.477)"/>
<path style="fill:none;stroke-width:0.3985;stroke-linecap:butt;stroke-linejoin:miter;stroke:rgb(0%,0%,0%);stroke-opacity:1;stroke-miterlimit:10;" d="M 28.452281 31.598094 L -4.446156 42.285594 " transform="matrix(1,0,0,-1,42.786,43.477)"/>
<g clip-path="url(#clip14)" clip-rule="nonzero">
<path style="fill:none;stroke-width:0.3985;stroke-linecap:butt;stroke-linejoin:miter;stroke:rgb(0%,0%,0%);stroke-opacity:1;stroke-miterlimit:10;" d="M 13.139781 -40.440969 L -21.258656 36.824656 " transform="matrix(1,0,0,-1,42.786,43.477)"/>
</g>
<g clip-path="url(#clip15)" clip-rule="nonzero">
<path style="fill:none;stroke-width:0.3985;stroke-linecap:butt;stroke-linejoin:miter;stroke:rgb(0%,0%,0%);stroke-opacity:1;stroke-miterlimit:10;" d="M 38.842906 17.293406 L -21.258656 36.824656 " transform="matrix(1,0,0,-1,42.786,43.477)"/>
</g>
<path style="fill:none;stroke-width:0.3985;stroke-linecap:butt;stroke-linejoin:miter;stroke:rgb(0%,0%,0%);stroke-opacity:1;stroke-miterlimit:10;" d="M 13.139781 40.437938 L -4.446156 42.285594 " transform="matrix(1,0,0,-1,42.786,43.477)"/>
<g clip-path="url(#clip16)" clip-rule="nonzero">
<path style="fill:none;stroke-width:0.3985;stroke-linecap:butt;stroke-linejoin:miter;stroke:rgb(0%,0%,0%);stroke-opacity:1;stroke-miterlimit:10;" d="M 13.139781 -40.440969 L -21.258656 -36.823781 " transform="matrix(1,0,0,-1,42.786,43.477)"/>
</g>
<path style="fill:none;stroke-width:0.3985;stroke-linecap:butt;stroke-linejoin:miter;stroke:rgb(0%,0%,0%);stroke-opacity:1;stroke-miterlimit:10;" d="M 28.452281 -31.597219 L -41.590688 8.840281 " transform="matrix(1,0,0,-1,42.786,43.477)"/>
<path style="fill:none;stroke-width:0.3985;stroke-linecap:butt;stroke-linejoin:miter;stroke:rgb(0%,0%,0%);stroke-opacity:1;stroke-miterlimit:10;" d="M 13.139781 40.437938 L -34.399281 24.992625 " transform="matrix(1,0,0,-1,42.786,43.477)"/>
<g clip-path="url(#clip17)" clip-rule="nonzero">
<path style="fill:none;stroke-width:0.3985;stroke-linecap:butt;stroke-linejoin:miter;stroke:rgb(0%,0%,0%);stroke-opacity:1;stroke-miterlimit:10;" d="M -41.590688 -8.839406 L 38.842906 -17.296437 " transform="matrix(1,0,0,-1,42.786,43.477)"/>
</g>
<g clip-path="url(#clip18)" clip-rule="nonzero">
<path style="fill:none;stroke-width:0.3985;stroke-linecap:butt;stroke-linejoin:miter;stroke:rgb(0%,0%,0%);stroke-opacity:1;stroke-miterlimit:10;" d="M 13.139781 40.437938 L 38.842906 -17.296437 " transform="matrix(1,0,0,-1,42.786,43.477)"/>
</g>
<g clip-path="url(#clip19)" clip-rule="nonzero">
<path style="fill:none;stroke-width:0.3985;stroke-linecap:butt;stroke-linejoin:miter;stroke:rgb(0%,0%,0%);stroke-opacity:1;stroke-miterlimit:10;" d="M 13.139781 -40.440969 L -34.399281 24.992625 " transform="matrix(1,0,0,-1,42.786,43.477)"/>
</g>
<path style="fill:none;stroke-width:0.3985;stroke-linecap:butt;stroke-linejoin:miter;stroke:rgb(0%,0%,0%);stroke-opacity:1;stroke-miterlimit:10;" d="M 13.139781 40.437938 L 13.139781 -40.440969 " transform="matrix(1,0,0,-1,42.786,43.477)"/>
</g>
</svg>
