<?xml version="1.0" encoding="UTF-8"?>
<svg xmlns="http://www.w3.org/2000/svg" xmlns:xlink="http://www.w3.org/1999/xlink" width="87.43pt" height="83.27pt" viewBox="0 0 87.43 83.27" version="1.1">
<defs>
<clipPath id="clip1">
  <path d="M 85 40 L 87.429688 40 L 87.429688 43 L 85 43 Z M 85 40 "/>
</clipPath>
<clipPath id="clip2">
  <path d="M 79 35 L 87.429688 35 L 87.429688 49 L 79 49 Z M 79 35 "/>
</clipPath>
<clipPath id="clip3">
  <path d="M 29 81 L 32 81 L 32 83.269531 L 29 83.269531 Z M 29 81 "/>
</clipPath>
<clipPath id="clip4">
  <path d="M 23 75 L 38 75 L 38 83.269531 L 23 83.269531 Z M 23 75 "/>
</clipPath>
<clipPath id="clip5">
  <path d="M 55 81 L 58 81 L 58 83.269531 L 55 83.269531 Z M 55 81 "/>
</clipPath>
<clipPath id="clip6">
  <path d="M 50 75 L 64 75 L 64 83.269531 L 50 83.269531 Z M 50 75 "/>
</clipPath>
<clipPath id="clip7">
  <path d="M 72 11 L 87.429688 11 L 87.429688 48 L 72 48 Z M 72 11 "/>
</clipPath>
<clipPath id="clip8">
  <path d="M 3 60 L 37 60 L 37 83.269531 L 3 83.269531 Z M 3 60 "/>
</clipPath>
<clipPath id="clip9">
  <path d="M 51 60 L 84 60 L 84 83.269531 L 51 83.269531 Z M 51 60 "/>
</clipPath>
<clipPath id="clip10">
  <path d="M 72 36 L 87.429688 36 L 87.429688 73 L 72 73 Z M 72 36 "/>
</clipPath>
</defs>
<g id="surface1">
<g clip-path="url(#clip1)" clip-rule="nonzero">
<path style=" stroke:none;fill-rule:nonzero;fill:rgb(0%,0%,0%);fill-opacity:1;" d="M 87.230469 41.636719 C 87.230469 41.085938 86.785156 40.640625 86.234375 40.640625 C 85.683594 40.640625 85.238281 41.085938 85.238281 41.636719 C 85.238281 42.183594 85.683594 42.632812 86.234375 42.632812 C 86.785156 42.632812 87.230469 42.183594 87.230469 41.636719 Z M 87.230469 41.636719 "/>
</g>
<g clip-path="url(#clip2)" clip-rule="nonzero">
<path style="fill:none;stroke-width:0.3985;stroke-linecap:butt;stroke-linejoin:miter;stroke:rgb(0%,0%,0%);stroke-opacity:1;stroke-miterlimit:10;" d="M 43.515469 -0.00171875 C 43.515469 0.549062 43.070156 0.994375 42.519375 0.994375 C 41.968594 0.994375 41.523281 0.549062 41.523281 -0.00171875 C 41.523281 -0.548594 41.968594 -0.997813 42.519375 -0.997813 C 43.070156 -0.997813 43.515469 -0.548594 43.515469 -0.00171875 Z M 43.515469 -0.00171875 " transform="matrix(1,0,0,-1,43.715,41.635)"/>
</g>
<path style="fill-rule:nonzero;fill:rgb(0%,0%,0%);fill-opacity:1;stroke-width:0.3985;stroke-linecap:butt;stroke-linejoin:miter;stroke:rgb(0%,0%,0%);stroke-opacity:1;stroke-miterlimit:10;" d="M 35.394375 24.994375 C 35.394375 25.54125 34.949062 25.990469 34.398281 25.990469 C 33.851406 25.990469 33.402187 25.54125 33.402187 24.994375 C 33.402187 24.443594 33.851406 23.998281 34.398281 23.998281 C 34.949062 23.998281 35.394375 24.443594 35.394375 24.994375 Z M 35.394375 24.994375 " transform="matrix(1,0,0,-1,43.715,41.635)"/>
<path style="fill-rule:nonzero;fill:rgb(0%,0%,0%);fill-opacity:1;stroke-width:0.3985;stroke-linecap:butt;stroke-linejoin:miter;stroke:rgb(0%,0%,0%);stroke-opacity:1;stroke-miterlimit:10;" d="M 14.136562 40.439687 C 14.136562 40.990469 13.69125 41.435781 13.140469 41.435781 C 12.589687 41.435781 12.144375 40.990469 12.144375 40.439687 C 12.144375 39.888906 12.589687 39.443594 13.140469 39.443594 C 13.69125 39.443594 14.136562 39.888906 14.136562 40.439687 Z M 14.136562 40.439687 " transform="matrix(1,0,0,-1,43.715,41.635)"/>
<path style="fill-rule:nonzero;fill:rgb(0%,0%,0%);fill-opacity:1;stroke-width:0.3985;stroke-linecap:butt;stroke-linejoin:miter;stroke:rgb(0%,0%,0%);stroke-opacity:1;stroke-miterlimit:10;" d="M -12.144688 40.439687 C -12.144688 40.990469 -12.59 41.435781 -13.140781 41.435781 C -13.691563 41.435781 -14.136875 40.990469 -14.136875 40.439687 C -14.136875 39.888906 -13.691563 39.443594 -13.140781 39.443594 C -12.59 39.443594 -12.144688 39.888906 -12.144688 40.439687 Z M -12.144688 40.439687 " transform="matrix(1,0,0,-1,43.715,41.635)"/>
<path style="fill-rule:nonzero;fill:rgb(0%,0%,0%);fill-opacity:1;stroke-width:0.3985;stroke-linecap:butt;stroke-linejoin:miter;stroke:rgb(0%,0%,0%);stroke-opacity:1;stroke-miterlimit:10;" d="M -33.4025 24.994375 C -33.4025 25.54125 -33.847813 25.990469 -34.398594 25.990469 C -34.949375 25.990469 -35.394688 25.54125 -35.394688 24.994375 C -35.394688 24.443594 -34.949375 23.998281 -34.398594 23.998281 C -33.847813 23.998281 -33.4025 24.443594 -33.4025 24.994375 Z M -33.4025 24.994375 " transform="matrix(1,0,0,-1,43.715,41.635)"/>
<path style="fill-rule:nonzero;fill:rgb(0%,0%,0%);fill-opacity:1;stroke-width:0.3985;stroke-linecap:butt;stroke-linejoin:miter;stroke:rgb(0%,0%,0%);stroke-opacity:1;stroke-miterlimit:10;" d="M -41.523594 -0.00171875 C -41.523594 0.549062 -41.968906 0.994375 -42.519688 0.994375 C -43.070469 0.994375 -43.515781 0.549062 -43.515781 -0.00171875 C -43.515781 -0.548594 -43.070469 -0.997813 -42.519688 -0.997813 C -41.968906 -0.997813 -41.523594 -0.548594 -41.523594 -0.00171875 Z M -41.523594 -0.00171875 " transform="matrix(1,0,0,-1,43.715,41.635)"/>
<path style="fill-rule:nonzero;fill:rgb(0%,0%,0%);fill-opacity:1;stroke-width:0.3985;stroke-linecap:butt;stroke-linejoin:miter;stroke:rgb(0%,0%,0%);stroke-opacity:1;stroke-miterlimit:10;" d="M -33.4025 -24.993906 C -33.4025 -24.443125 -33.847813 -23.997813 -34.398594 -23.997813 C -34.949375 -23.997813 -35.394688 -24.443125 -35.394688 -24.993906 C -35.394688 -25.544688 -34.949375 -25.99 -34.398594 -25.99 C -33.847813 -25.99 -33.4025 -25.544688 -33.4025 -24.993906 Z M -33.4025 -24.993906 " transform="matrix(1,0,0,-1,43.715,41.635)"/>
<g clip-path="url(#clip3)" clip-rule="nonzero">
<path style=" stroke:none;fill-rule:nonzero;fill:rgb(0%,0%,0%);fill-opacity:1;" d="M 31.570312 82.074219 C 31.570312 81.523438 31.125 81.078125 30.574219 81.078125 C 30.023438 81.078125 29.578125 81.523438 29.578125 82.074219 C 29.578125 82.625 30.023438 83.070312 30.574219 83.070312 C 31.125 83.070312 31.570312 82.625 31.570312 82.074219 Z M 31.570312 82.074219 "/>
</g>
<g clip-path="url(#clip4)" clip-rule="nonzero">
<path style="fill:none;stroke-width:0.3985;stroke-linecap:butt;stroke-linejoin:miter;stroke:rgb(0%,0%,0%);stroke-opacity:1;stroke-miterlimit:10;" d="M -12.144688 -40.439219 C -12.144688 -39.888438 -12.59 -39.443125 -13.140781 -39.443125 C -13.691563 -39.443125 -14.136875 -39.888438 -14.136875 -40.439219 C -14.136875 -40.99 -13.691563 -41.435313 -13.140781 -41.435313 C -12.59 -41.435313 -12.144688 -40.99 -12.144688 -40.439219 Z M -12.144688 -40.439219 " transform="matrix(1,0,0,-1,43.715,41.635)"/>
</g>
<g clip-path="url(#clip5)" clip-rule="nonzero">
<path style=" stroke:none;fill-rule:nonzero;fill:rgb(0%,0%,0%);fill-opacity:1;" d="M 57.851562 82.074219 C 57.851562 81.523438 57.40625 81.078125 56.855469 81.078125 C 56.304688 81.078125 55.859375 81.523438 55.859375 82.074219 C 55.859375 82.625 56.304688 83.070312 56.855469 83.070312 C 57.40625 83.070312 57.851562 82.625 57.851562 82.074219 Z M 57.851562 82.074219 "/>
</g>
<g clip-path="url(#clip6)" clip-rule="nonzero">
<path style="fill:none;stroke-width:0.3985;stroke-linecap:butt;stroke-linejoin:miter;stroke:rgb(0%,0%,0%);stroke-opacity:1;stroke-miterlimit:10;" d="M 14.136562 -40.439219 C 14.136562 -39.888438 13.69125 -39.443125 13.140469 -39.443125 C 12.589687 -39.443125 12.144375 -39.888438 12.144375 -40.439219 C 12.144375 -40.99 12.589687 -41.435313 13.140469 -41.435313 C 13.69125 -41.435313 14.136562 -40.99 14.136562 -40.439219 Z M 14.136562 -40.439219 " transform="matrix(1,0,0,-1,43.715,41.635)"/>
</g>
<path style="fill-rule:nonzero;fill:rgb(0%,0%,0%);fill-opacity:1;stroke-width:0.3985;stroke-linecap:butt;stroke-linejoin:miter;stroke:rgb(0%,0%,0%);stroke-opacity:1;stroke-miterlimit:10;" d="M 35.394375 -24.993906 C 35.394375 -24.443125 34.949062 -23.997813 34.398281 -23.997813 C 33.851406 -23.997813 33.402187 -24.443125 33.402187 -24.993906 C 33.402187 -25.544688 33.851406 -25.99 34.398281 -25.99 C 34.949062 -25.99 35.394375 -25.544688 35.394375 -24.993906 Z M 35.394375 -24.993906 " transform="matrix(1,0,0,-1,43.715,41.635)"/>
<g clip-path="url(#clip7)" clip-rule="nonzero">
<path style="fill:none;stroke-width:0.3985;stroke-linecap:butt;stroke-linejoin:miter;stroke:rgb(0%,0%,0%);stroke-opacity:1;stroke-miterlimit:10;" d="M 42.519375 -0.00171875 L 34.398281 24.994375 " transform="matrix(1,0,0,-1,43.715,41.635)"/>
</g>
<path style="fill:none;stroke-width:0.3985;stroke-linecap:butt;stroke-linejoin:miter;stroke:rgb(0%,0%,0%);stroke-opacity:1;stroke-miterlimit:10;" d="M 34.398281 24.994375 L 13.140469 40.439687 " transform="matrix(1,0,0,-1,43.715,41.635)"/>
<path style="fill:none;stroke-width:0.3985;stroke-linecap:butt;stroke-linejoin:miter;stroke:rgb(0%,0%,0%);stroke-opacity:1;stroke-miterlimit:10;" d="M 13.140469 40.439687 L -13.140781 40.439687 " transform="matrix(1,0,0,-1,43.715,41.635)"/>
<path style="fill:none;stroke-width:0.3985;stroke-linecap:butt;stroke-linejoin:miter;stroke:rgb(0%,0%,0%);stroke-opacity:1;stroke-miterlimit:10;" d="M -13.140781 40.439687 L -34.398594 24.994375 " transform="matrix(1,0,0,-1,43.715,41.635)"/>
<path style="fill:none;stroke-width:0.3985;stroke-linecap:butt;stroke-linejoin:miter;stroke:rgb(0%,0%,0%);stroke-opacity:1;stroke-miterlimit:10;" d="M -34.398594 24.994375 L -42.519688 -0.00171875 " transform="matrix(1,0,0,-1,43.715,41.635)"/>
<path style="fill:none;stroke-width:0.3985;stroke-linecap:butt;stroke-linejoin:miter;stroke:rgb(0%,0%,0%);stroke-opacity:1;stroke-miterlimit:10;" d="M -42.519688 -0.00171875 L -34.398594 -24.993906 " transform="matrix(1,0,0,-1,43.715,41.635)"/>
<g clip-path="url(#clip8)" clip-rule="nonzero">
<path style="fill:none;stroke-width:0.3985;stroke-linecap:butt;stroke-linejoin:miter;stroke:rgb(0%,0%,0%);stroke-opacity:1;stroke-miterlimit:10;" d="M -34.398594 -24.993906 L -13.140781 -40.439219 " transform="matrix(1,0,0,-1,43.715,41.635)"/>
</g>
<path style="fill:none;stroke-width:0.3985;stroke-linecap:butt;stroke-linejoin:miter;stroke:rgb(0%,0%,0%);stroke-opacity:1;stroke-miterlimit:10;" d="M -13.140781 -40.439219 L 13.140469 -40.439219 " transform="matrix(1,0,0,-1,43.715,41.635)"/>
<g clip-path="url(#clip9)" clip-rule="nonzero">
<path style="fill:none;stroke-width:0.3985;stroke-linecap:butt;stroke-linejoin:miter;stroke:rgb(0%,0%,0%);stroke-opacity:1;stroke-miterlimit:10;" d="M 13.140469 -40.439219 L 34.398281 -24.993906 " transform="matrix(1,0,0,-1,43.715,41.635)"/>
</g>
<g clip-path="url(#clip10)" clip-rule="nonzero">
<path style="fill:none;stroke-width:0.3985;stroke-linecap:butt;stroke-linejoin:miter;stroke:rgb(0%,0%,0%);stroke-opacity:1;stroke-miterlimit:10;" d="M 34.398281 -24.993906 L 42.519375 -0.00171875 " transform="matrix(1,0,0,-1,43.715,41.635)"/>
</g>
</g>
</svg>
