<?xml version="1.0" encoding="UTF-8"?>
<svg xmlns="http://www.w3.org/2000/svg" xmlns:xlink="http://www.w3.org/1999/xlink" width="81.91pt" height="78.92pt" viewBox="0 0 81.91 78.92" version="1.1">
<defs>
<clipPath id="clip1">
  <path d="M 0 21 L 1 21 L 1 78.921875 L 0 78.921875 Z M 0 21 "/>
</clipPath>
<clipPath id="clip2">
  <path d="M 28 21 L 29 21 L 29 78.921875 L 28 78.921875 Z M 28 21 "/>
</clipPath>
<clipPath id="clip3">
  <path d="M 56 21 L 58 21 L 58 78.921875 L 56 78.921875 Z M 56 21 "/>
</clipPath>
<clipPath id="clip4">
  <path d="M 51 0 L 81.910156 0 L 81.910156 28 L 51 28 Z M 51 0 "/>
</clipPath>
<clipPath id="clip5">
  <path d="M 51 51 L 81.910156 51 L 81.910156 78.921875 L 51 78.921875 Z M 51 51 "/>
</clipPath>
<clipPath id="clip6">
  <path d="M 0 78 L 58 78 L 58 78.921875 L 0 78.921875 Z M 0 78 "/>
</clipPath>
<clipPath id="clip7">
  <path d="M 51 22 L 81.910156 22 L 81.910156 57 L 51 57 Z M 51 22 "/>
</clipPath>
<clipPath id="clip8">
  <path d="M 51 0 L 81.910156 0 L 81.910156 28 L 51 28 Z M 51 0 "/>
</clipPath>
<clipPath id="clip9">
  <path d="M 56 21 L 58 21 L 58 78.921875 L 56 78.921875 Z M 56 21 "/>
</clipPath>
</defs>
<g id="surface1">
<g clip-path="url(#clip1)" clip-rule="nonzero">
<path style="fill:none;stroke-width:0.3985;stroke-linecap:butt;stroke-linejoin:miter;stroke:rgb(0%,0%,0%);stroke-opacity:1;stroke-miterlimit:10;" d="M -21.826781 -21.828656 L -21.826781 34.866656 " transform="matrix(1,0,0,-1,22.026,56.894)"/>
</g>
<path style="fill:none;stroke-width:0.3985;stroke-linecap:butt;stroke-linejoin:miter;stroke:rgb(0%,0%,0%);stroke-opacity:1;stroke-miterlimit:10;" d="M -21.826781 34.866656 L 0.00134375 56.694781 " transform="matrix(1,0,0,-1,22.026,56.894)"/>
<g clip-path="url(#clip2)" clip-rule="nonzero">
<path style="fill:none;stroke-width:0.3985;stroke-linecap:butt;stroke-linejoin:miter;stroke:rgb(0%,0%,0%);stroke-opacity:1;stroke-miterlimit:10;" d="M 6.520875 -21.828656 L 6.520875 34.866656 " transform="matrix(1,0,0,-1,22.026,56.894)"/>
</g>
<path style="fill:none;stroke-width:0.3985;stroke-linecap:butt;stroke-linejoin:miter;stroke:rgb(0%,0%,0%);stroke-opacity:1;stroke-miterlimit:10;" d="M 6.520875 34.866656 L 28.345094 56.694781 " transform="matrix(1,0,0,-1,22.026,56.894)"/>
<g clip-path="url(#clip3)" clip-rule="nonzero">
<path style="fill:none;stroke-width:0.3985;stroke-linecap:butt;stroke-linejoin:miter;stroke:rgb(0%,0%,0%);stroke-opacity:1;stroke-miterlimit:10;" d="M 34.868531 -21.828656 L 34.868531 34.866656 " transform="matrix(1,0,0,-1,22.026,56.894)"/>
</g>
<g clip-path="url(#clip4)" clip-rule="nonzero">
<path style="fill:none;stroke-width:0.3985;stroke-linecap:butt;stroke-linejoin:miter;stroke:rgb(0%,0%,0%);stroke-opacity:1;stroke-miterlimit:10;" d="M 34.868531 34.866656 L 56.69275 56.694781 " transform="matrix(1,0,0,-1,22.026,56.894)"/>
</g>
<g clip-path="url(#clip5)" clip-rule="nonzero">
<path style="fill:none;stroke-width:0.3985;stroke-linecap:butt;stroke-linejoin:miter;stroke:rgb(0%,0%,0%);stroke-opacity:1;stroke-miterlimit:10;" d="M 34.868531 -21.828656 L 56.69275 -0.00053125 " transform="matrix(1,0,0,-1,22.026,56.894)"/>
</g>
<g clip-path="url(#clip6)" clip-rule="nonzero">
<path style="fill:none;stroke-width:0.3985;stroke-linecap:butt;stroke-linejoin:miter;stroke:rgb(0%,0%,0%);stroke-opacity:1;stroke-miterlimit:10;" d="M -21.826781 -21.828656 L 34.868531 -21.828656 " transform="matrix(1,0,0,-1,22.026,56.894)"/>
</g>
<g clip-path="url(#clip7)" clip-rule="nonzero">
<path style="fill:none;stroke-width:0.3985;stroke-linecap:butt;stroke-linejoin:miter;stroke:rgb(0%,0%,0%);stroke-opacity:1;stroke-miterlimit:10;" d="M 34.868531 6.519 L 56.69275 28.347125 " transform="matrix(1,0,0,-1,22.026,56.894)"/>
</g>
<path style="fill:none;stroke-width:0.3985;stroke-linecap:butt;stroke-linejoin:miter;stroke:rgb(0%,0%,0%);stroke-opacity:1;stroke-miterlimit:10;" d="M -21.826781 6.519 L 34.868531 6.519 " transform="matrix(1,0,0,-1,22.026,56.894)"/>
<g clip-path="url(#clip8)" clip-rule="nonzero">
<path style="fill:none;stroke-width:0.3985;stroke-linecap:butt;stroke-linejoin:miter;stroke:rgb(0%,0%,0%);stroke-opacity:1;stroke-miterlimit:10;" d="M 34.868531 34.866656 L 56.69275 56.694781 " transform="matrix(1,0,0,-1,22.026,56.894)"/>
</g>
<path style="fill:none;stroke-width:0.3985;stroke-linecap:butt;stroke-linejoin:miter;stroke:rgb(0%,0%,0%);stroke-opacity:1;stroke-miterlimit:10;" d="M -21.826781 34.866656 L 34.868531 34.866656 " transform="matrix(1,0,0,-1,22.026,56.894)"/>
<path style="fill:none;stroke-width:0.3985;stroke-linecap:butt;stroke-linejoin:miter;stroke:rgb(0%,0%,0%);stroke-opacity:1;stroke-miterlimit:10;" d="M 56.69275 -0.00053125 L 56.69275 56.694781 " transform="matrix(1,0,0,-1,22.026,56.894)"/>
<path style="fill:none;stroke-width:0.3985;stroke-linecap:butt;stroke-linejoin:miter;stroke:rgb(0%,0%,0%);stroke-opacity:1;stroke-miterlimit:10;" d="M 0.00134375 56.694781 L 56.69275 56.694781 " transform="matrix(1,0,0,-1,22.026,56.894)"/>
<path style="fill:none;stroke-width:0.3985;stroke-linecap:butt;stroke-linejoin:miter;stroke:rgb(0%,0%,0%);stroke-opacity:1;stroke-miterlimit:10;" d="M 45.778687 -10.914594 L 45.778687 45.780719 " transform="matrix(1,0,0,-1,22.026,56.894)"/>
<path style="fill:none;stroke-width:0.3985;stroke-linecap:butt;stroke-linejoin:miter;stroke:rgb(0%,0%,0%);stroke-opacity:1;stroke-miterlimit:10;" d="M -10.912719 45.780719 L 45.778687 45.780719 " transform="matrix(1,0,0,-1,22.026,56.894)"/>
<g clip-path="url(#clip9)" clip-rule="nonzero">
<path style="fill:none;stroke-width:0.3985;stroke-linecap:butt;stroke-linejoin:miter;stroke:rgb(0%,0%,0%);stroke-opacity:1;stroke-miterlimit:10;" d="M 34.868531 -21.828656 L 34.868531 34.866656 " transform="matrix(1,0,0,-1,22.026,56.894)"/>
</g>
<path style="fill:none;stroke-width:0.3985;stroke-linecap:butt;stroke-linejoin:miter;stroke:rgb(0%,0%,0%);stroke-opacity:1;stroke-miterlimit:10;" d="M -21.826781 34.866656 L 34.868531 34.866656 " transform="matrix(1,0,0,-1,22.026,56.894)"/>
</g>
</svg>
