<?xml version="1.0" encoding="UTF-8" standalone="no"?>
<!DOCTYPE svg PUBLIC "-//W3C//DTD SVG 1.1//EN" "http://www.w3.org/Graphics/SVG/1.1/DTD/svg11.dtd">
<svg width="100%" height="100%" viewBox="0 0 253 188" version="1.1" xmlns="http://www.w3.org/2000/svg" xmlns:xlink="http://www.w3.org/1999/xlink" xml:space="preserve" xmlns:serif="http://www.serif.com/" style="fill-rule:evenodd;clip-rule:evenodd;stroke-miterlimit:8;">
    <g transform="matrix(1,0,0,1,-346.048,-71.375)">
        <g>
            <g transform="matrix(1,0,0,1,6,0)">
                <text x="370px" y="80px" style="font-family:'ArialMT', 'Arial', sans-serif;font-size:12px;">0.75</text>
            </g>
            <g transform="matrix(1,0,0,1,2,0)">
                <text x="514px" y="80px" style="font-family:'ArialMT', 'Arial', sans-serif;font-size:12px;">1</text>
            </g>
            <g transform="matrix(1,0,0,1,3,0)">
                <text x="425px" y="216px" style="font-family:'ArialMT', 'Arial', sans-serif;font-size:12px;">1</text>
            </g>
            <g transform="matrix(1,0,0,1,3,0)">
                <text x="377px" y="216px" style="font-family:'ArialMT', 'Arial', sans-serif;font-size:12px;">0.75</text>
            </g>
            <g transform="matrix(1,0,0,1,3,0)">
                <text x="343px" y="216px" style="font-family:'ArialMT', 'Arial', sans-serif;font-size:12px;">0.5</text>
            </g>
            <g transform="matrix(1,0,0,1,6,0)">
                <text x="521px" y="216px" style="font-family:'ArialMT', 'Arial', sans-serif;font-size:12px;">1.25</text>
            </g>
            <g transform="matrix(1,0,0,1,3,0)">
                <text x="489px" y="216px" style="font-family:'ArialMT', 'Arial', sans-serif;font-size:12px;">0.75</text>
            </g>
            <g transform="matrix(1,0,0,1,3,0)">
                <text x="565px" y="216px" style="font-family:'ArialMT', 'Arial', sans-serif;font-size:12px;">1.25</text>
            </g>
            <text x="365px" y="238px" style="font-family:'ArialMT', 'Arial', sans-serif;font-size:12px;">Av<tspan x="379.004px " y="238px ">e</tspan>rage: 0.75</text>
            <text x="495px" y="238px" style="font-family:'ArialMT', 'Arial', sans-serif;font-size:12px;">Av<tspan x="509.004px " y="238px ">e</tspan>rage: 1</text>
            <g transform="matrix(1,0,0,1,3,0)">
                <text x="460px" y="216px" style="font-family:'ArialMT', 'Arial', sans-serif;font-size:12px;">0.75</text>
            </g>
            <g transform="matrix(1,0,0,1,4,-4)">
                <text x="434px" y="263px" style="font-family:'Arial-ItalicMT', 'Arial', sans-serif;font-style:italic;font-size:14px;">h² =</text>
                <text x="462.403px" y="263px" style="font-family:'ArialMT', 'Arial', sans-serif;font-size:14px;">1</text>
            </g>
            <g>
                <clipPath id="_clip1">
                    <rect x="376.97" y="87.961" width="24.26" height="24.26" clip-rule="nonzero"/>
                </clipPath>
                <g clip-path="url(#_clip1)">
                    <g transform="matrix(-0.707107,-0.707107,-0.707107,0.707107,975.298,64.1644)">
                        <circle cx="389.1" cy="439.909" r="10.63" style="stroke:black;stroke-width:1px;"/>
                    </g>
                </g>
            </g>
            <g>
                <clipPath id="_clip2">
                    <path d="M384.371,120.563L363.291,162.463L354.782,158.182L375.863,116.282L384.371,120.563Z" clip-rule="nonzero"/>
                </clipPath>
                <g clip-path="url(#_clip2)">
                    <g transform="matrix(-0.44944,0.893311,0.893311,0.44944,379.668,119.316)">
                        <path d="M0,0L37.046,0" style="fill:none;stroke:black;stroke-width:2.25px;"/>
                    </g>
                    <g transform="matrix(1,0,0,1,0,-229.554)">
                        <path d="M366.229,383.952L359.486,388.984L359.507,380.571L366.229,383.952Z" style="fill-rule:nonzero;"/>
                    </g>
                </g>
            </g>
            <g>
                <clipPath id="_clip3">
                    <path d="M403.811,116.081L427.127,157.988L418.804,162.619L395.487,120.712L403.811,116.081Z" clip-rule="nonzero"/>
                </clipPath>
                <g clip-path="url(#_clip3)">
                    <g transform="matrix(0.486199,0.873848,0.873848,-0.486199,400.135,119.27)">
                        <path d="M0,0L38.098,0" style="fill:none;stroke:black;stroke-width:2.25px;"/>
                    </g>
                    <g transform="matrix(1,0,0,1,0,-229.546)">
                        <path d="M422.109,380.571L422.479,388.975L415.533,384.229L422.109,380.571Z" style="fill-rule:nonzero;"/>
                    </g>
                </g>
            </g>
            <g>
                <clipPath id="_clip4">
                    <rect x="385.837" y="118.066" width="9.525" height="42.364" clip-rule="nonzero"/>
                </clipPath>
                <g clip-path="url(#_clip4)">
                    <g transform="matrix(0,1,1,0,390.6,119.066)">
                        <path d="M0,0L32.505,0" style="fill:none;stroke:black;stroke-width:2.25px;"/>
                    </g>
                    <g transform="matrix(1,0,0,1,0,-228.666)">
                        <path d="M394.363,380.571L390.6,388.095L386.837,380.571L394.363,380.571Z" style="fill-rule:nonzero;"/>
                    </g>
                </g>
            </g>
            <g>
                <clipPath id="_clip5">
                    <rect x="346.048" y="163.344" width="17.173" height="17.173" clip-rule="nonzero"/>
                </clipPath>
                <g clip-path="url(#_clip5)">
                    <g transform="matrix(-0.707107,-0.707107,-0.707107,0.707107,865.663,162.431)">
                        <circle cx="354.634" cy="368.069" r="7.087" style="stroke:black;stroke-width:1px;"/>
                    </g>
                </g>
            </g>
            <g>
                <clipPath id="_clip6">
                    <rect x="380.354" y="163.344" width="24.26" height="24.26" clip-rule="nonzero"/>
                </clipPath>
                <g clip-path="url(#_clip6)">
                    <g transform="matrix(-0.707107,-0.707107,-0.707107,0.707107,927.771,195.244)">
                        <ellipse cx="392.484" cy="364.526" rx="10.63" ry="10.63" style="stroke:black;stroke-width:1px;"/>
                    </g>
                </g>
            </g>
            <g>
                <clipPath id="_clip7">
                    <rect x="415.248" y="163.344" width="31.346" height="31.346" clip-rule="nonzero"/>
                </clipPath>
                <g clip-path="url(#_clip7)">
                    <g transform="matrix(-0.707105,-0.707109,-0.707109,0.707105,990.882,228.473)">
                        <ellipse cx="430.921" cy="360.982" rx="14.173" ry="14.173" style="stroke:black;stroke-width:1px;"/>
                    </g>
                </g>
            </g>
            <g>
                <clipPath id="_clip8">
                    <rect x="506.293" y="85.141" width="31.346" height="31.346" clip-rule="nonzero"/>
                </clipPath>
                <g clip-path="url(#_clip8)">
                    <g transform="matrix(-0.707107,-0.707107,-0.707107,0.707107,1201.6,159.348)">
                        <circle cx="521.966" cy="439.186" r="14.173" style="stroke:black;stroke-width:1px;"/>
                    </g>
                </g>
            </g>
            <g>
                <clipPath id="_clip9">
                    <path d="M513.97,121.825L484.116,163.685L476.362,158.154L506.215,116.294L513.97,121.825Z" clip-rule="nonzero"/>
                </clipPath>
                <g clip-path="url(#_clip9)">
                    <g transform="matrix(-0.580643,0.814159,0.814159,0.580643,509.512,119.873)">
                        <path d="M0,0L41.557,0" style="fill:none;stroke:black;stroke-width:2.25px;"/>
                    </g>
                    <g transform="matrix(1,0,0,1,0,-228.101)">
                        <path d="M488.252,384.264L480.82,388.206L482.126,379.895L488.252,384.264Z" style="fill-rule:nonzero;"/>
                    </g>
                </g>
            </g>
            <g>
                <clipPath id="_clip10">
                    <path d="M537.994,116.552L566.25,157.55L558.407,162.956L530.151,121.957L537.994,116.552Z" clip-rule="nonzero"/>
                </clipPath>
                <g clip-path="url(#_clip10)">
                    <g transform="matrix(0.567484,0.823385,0.823385,-0.567484,534.64,120.078)">
                        <path d="M0,0L39.934,0" style="fill:none;stroke:black;stroke-width:2.25px;"/>
                    </g>
                    <g transform="matrix(1,0,0,1,0,-229.472)">
                        <path d="M560.589,380.571L561.761,388.902L554.393,384.841L560.589,380.571Z" style="fill-rule:nonzero;"/>
                    </g>
                </g>
            </g>
            <g>
                <clipPath id="_clip11">
                    <path d="M529.881,117.628L541.707,159.918L532.533,162.483L520.708,120.193L529.881,117.628Z" clip-rule="nonzero"/>
                </clipPath>
                <g clip-path="url(#_clip11)">
                    <g transform="matrix(0.269292,0.963058,0.963058,-0.269292,525.564,119.874)">
                        <path d="M0,0L34.054,0" style="fill:none;stroke:black;stroke-width:2.25px;"/>
                    </g>
                    <g transform="matrix(1,0,0,1,0,-227.786)">
                        <path d="M538.448,379.763L536.851,388.023L531.201,381.789L538.448,379.763Z" style="fill-rule:nonzero;"/>
                    </g>
                </g>
            </g>
            <g>
                <clipPath id="_clip12">
                    <path d="M522.263,120.042L511.983,161.773L502.734,159.495L513.014,117.763L522.263,120.042Z" clip-rule="nonzero"/>
                </clipPath>
                <g clip-path="url(#_clip12)">
                    <g transform="matrix(-0.239187,0.970974,0.970974,0.239187,517.399,119.873)">
                        <path d="M0,0L33.121,0" style="fill:none;stroke:black;stroke-width:2.25px;"/>
                    </g>
                    <g transform="matrix(1,0,0,1,0,-228.88)">
                        <path d="M513.051,382.137L507.598,388.543L505.744,380.337L513.051,382.137Z" style="fill-rule:nonzero;"/>
                    </g>
                </g>
            </g>
            <g>
                <clipPath id="_clip13">
                    <rect x="520.2" y="163.46" width="38.433" height="38.433" clip-rule="nonzero"/>
                </clipPath>
                <g clip-path="url(#_clip13)">
                    <g transform="matrix(-0.707105,-0.707108,-0.707108,0.707105,1173.51,311.437)">
                        <ellipse cx="539.417" cy="357.323" rx="17.717" ry="17.717" style="stroke:black;stroke-width:1px;"/>
                    </g>
                </g>
            </g>
            <g>
                <clipPath id="_clip14">
                    <rect x="560.083" y="162.608" width="38.433" height="38.433" clip-rule="nonzero"/>
                </clipPath>
                <g clip-path="url(#_clip14)">
                    <g transform="matrix(-0.707107,-0.707107,-0.707107,0.707107,1242.19,338.182)">
                        <circle cx="579.3" cy="358.176" r="17.717" style="stroke:black;stroke-width:1px;"/>
                    </g>
                </g>
            </g>
            <g>
                <clipPath id="_clip15">
                    <rect x="462.797" y="163.382" width="24.26" height="24.26" clip-rule="nonzero"/>
                </clipPath>
                <g clip-path="url(#_clip15)">
                    <g transform="matrix(-0.707107,-0.707107,-0.707107,0.707107,1068.48,253.604)">
                        <ellipse cx="474.927" cy="364.488" rx="10.63" ry="10.63" style="stroke:black;stroke-width:1px;"/>
                    </g>
                </g>
            </g>
            <g>
                <clipPath id="_clip16">
                    <rect x="492.146" y="163.344" width="24.26" height="24.26" clip-rule="nonzero"/>
                </clipPath>
                <g clip-path="url(#_clip16)">
                    <g transform="matrix(-0.707109,-0.707104,-0.707104,0.707109,1118.61,274.29)">
                        <circle cx="504.276" cy="364.526" r="10.63" style="stroke:black;stroke-width:1px;"/>
                    </g>
                </g>
            </g>
        </g>
    </g>
</svg>
