<?xml version="1.0" encoding="UTF-8" standalone="no"?>
<!DOCTYPE svg PUBLIC "-//W3C//DTD SVG 1.1//EN" "http://www.w3.org/Graphics/SVG/1.1/DTD/svg11.dtd">
<svg width="100%" height="100%" viewBox="0 0 255 194" version="1.1" xmlns="http://www.w3.org/2000/svg" xmlns:xlink="http://www.w3.org/1999/xlink" xml:space="preserve" xmlns:serif="http://www.serif.com/" style="fill-rule:evenodd;clip-rule:evenodd;stroke-miterlimit:8;">
    <g transform="matrix(1,0,0,1,-44.1911,-71.375)">
        <g transform="matrix(1,0,0,1,2,0)">
            <text x="124px" y="216px" style="font-family:'ArialMT', 'Arial', sans-serif;font-size:12px;">0.95</text>
        </g>
        <g transform="matrix(1,0,0,1,10,0)">
            <text x="84px" y="216px" style="font-family:'ArialMT', 'Arial', sans-serif;font-size:12px;">0.8</text>
        </g>
        <g transform="matrix(1,0,0,1,7,0)">
            <text x="51px" y="216px" style="font-family:'ArialMT', 'Arial', sans-serif;font-size:12px;">0.8</text>
        </g>
        <g transform="matrix(1,0,0,1,8,0)">
            <text x="229px" y="216px" style="font-family:'ArialMT', 'Arial', sans-serif;font-size:12px;">1</text>
        </g>
        <g transform="matrix(1,0,0,1,7,0)">
            <text x="193px" y="216px" style="font-family:'ArialMT', 'Arial', sans-serif;font-size:12px;">0.8</text>
        </g>
        <g transform="matrix(1,0,0,1,8,0)">
            <text x="165px" y="216px" style="font-family:'ArialMT', 'Arial', sans-serif;font-size:12px;">0.8</text>
        </g>
        <g transform="matrix(1,0,0,1,6,0)">
            <text x="264px" y="216px" style="font-family:'ArialMT', 'Arial', sans-serif;font-size:12px;">1</text>
        </g>
        <g transform="matrix(1,0,0,1,6,0)">
            <text x="79px" y="80px" style="font-family:'ArialMT', 'Arial', sans-serif;font-size:12px;">0.75</text>
        </g>
        <g transform="matrix(1,0,0,1,4,0)">
            <text x="214px" y="80px" style="font-family:'ArialMT', 'Arial', sans-serif;font-size:12px;">1</text>
        </g>
        <g transform="matrix(1,0,0,1,14,0)">
            <text x="53px" y="238px" style="font-family:'ArialMT', 'Arial', sans-serif;font-size:12px;">Av<tspan x="67.004px " y="238px ">e</tspan>rage: 0.85</text>
        </g>
        <g transform="matrix(1,0,0,1,55.6591,5.68434e-14)">
            <text x="132px" y="238px" style="font-family:'ArialMT', 'Arial', sans-serif;font-size:12px;">Av<tspan x="146.004px " y="238px ">e</tspan>rage: 0.9</text>
        </g>
        <g transform="matrix(-0.707107,-0.707107,-0.707107,0.707107,475.128,-142.851)">
            <ellipse cx="96.141" cy="439.828" rx="10.63" ry="10.63" style="stroke:black;stroke-width:1px;"/>
        </g>
        <g transform="matrix(-0.449441,0.89331,0.89331,0.449441,86.7085,119.397)">
            <path d="M0,0L37.046,0" style="fill:none;stroke:black;stroke-width:2.25px;"/>
        </g>
        <g transform="matrix(1,0,0,1,0,-229.393)">
            <path d="M73.27,383.872L66.527,388.903L66.548,380.49L73.27,383.872Z" style="fill-rule:nonzero;"/>
        </g>
        <g transform="matrix(0.486201,0.873847,0.873847,-0.486201,107.176,119.351)">
            <path d="M0,0L38.098,0" style="fill:none;stroke:black;stroke-width:2.25px;"/>
        </g>
        <g transform="matrix(1,0,0,1,0,-229.384)">
            <path d="M129.149,380.49L129.52,388.895L122.574,384.148L129.149,380.49Z" style="fill-rule:nonzero;"/>
        </g>
        <g transform="matrix(0,1,1,0,97.6408,119.147)">
            <path d="M0,0L31.932,0" style="fill:none;stroke:black;stroke-width:2.25px;"/>
        </g>
        <g transform="matrix(1,0,0,1,0,-229.652)">
            <path d="M101.403,381.063L97.641,388.588L93.878,381.063L101.403,381.063Z" style="fill-rule:nonzero;"/>
        </g>
        <g transform="matrix(-0.707105,-0.707109,-0.707109,0.707105,369.746,-34.3181)">
            <ellipse cx="65.927" cy="363.736" rx="11.339" ry="11.339" style="stroke:black;stroke-width:1px;"/>
        </g>
        <g transform="matrix(-0.707107,-0.707107,-0.707107,0.707107,490.712,21.4565)">
            <circle cx="137.962" cy="360.902" r="14.173" style="stroke:black;stroke-width:1px;"/>
        </g>
        <g transform="matrix(-0.707107,-0.707107,-0.707107,0.707107,688.732,-54.5436)">
            <circle cx="221.232" cy="439.913" r="14.173" style="stroke:black;stroke-width:1px;"/>
        </g>
        <g transform="matrix(-0.49934,0.866406,0.866406,0.49934,208.778,119.147)">
            <path d="M0,0L38.729,0" style="fill:none;stroke:black;stroke-width:2.25px;"/>
        </g>
        <g transform="matrix(1,0,0,1,0,-229.378)">
            <path d="M192.532,384.247L185.515,388.888L186.013,380.49L192.532,384.247Z" style="fill-rule:nonzero;"/>
        </g>
        <g transform="matrix(0.486201,0.873847,0.873847,-0.486201,233.905,119.351)">
            <path d="M0,0L38.098,0" style="fill:none;stroke:black;stroke-width:2.25px;"/>
        </g>
        <g transform="matrix(1,0,0,1,0,-229.384)">
            <path d="M255.879,380.49L256.249,388.895L249.303,384.148L255.879,380.49Z" style="fill-rule:nonzero;"/>
        </g>
        <g transform="matrix(0.269294,0.963058,0.963058,-0.269294,224.83,119.147)">
            <path d="M0,0L34.054,0" style="fill:none;stroke:black;stroke-width:2.25px;"/>
        </g>
        <g transform="matrix(1,0,0,1,0,-229.239)">
            <path d="M237.713,380.49L236.116,388.75L230.466,382.516L237.713,380.49Z" style="fill-rule:nonzero;"/>
        </g>
        <g transform="matrix(-0.163326,0.986572,0.986572,0.163326,216.665,119.147)">
            <path d="M0,0L32.473,0" style="fill:none;stroke:black;stroke-width:2.25px;"/>
        </g>
        <g transform="matrix(1,0,0,1,0,-230.165)">
            <path d="M215.019,382.292L210.078,389.102L207.595,381.063L215.019,382.292Z" style="fill-rule:nonzero;"/>
        </g>
        <g transform="matrix(-0.707105,-0.707109,-0.707109,0.707105,567.348,47.5321)">
            <ellipse cx="181.68" cy="363.736" rx="11.339" ry="11.339" style="stroke:black;stroke-width:1px;"/>
        </g>
        <g transform="matrix(-0.707107,-0.707107,-0.707107,0.707107,663.2,92.9032)">
            <circle cx="239.003" cy="360.901" r="14.173" style="stroke:black;stroke-width:1px;"/>
        </g>
        <g transform="matrix(-0.707107,-0.707107,-0.707107,0.707107,721.764,117.161)">
            <circle cx="273.309" cy="360.902" r="14.173" style="stroke:black;stroke-width:1px;"/>
        </g>
        <g transform="matrix(-0.707105,-0.707108,-0.707108,0.707105,431.794,-8.61696)">
            <ellipse cx="102.274" cy="363.736" rx="11.339" ry="11.339" style="stroke:black;stroke-width:1px;"/>
        </g>
        <g transform="matrix(-0.707107,-0.707107,-0.707107,0.707107,614.972,67.1904)">
            <circle cx="209.564" cy="363.77" r="11.339" style="stroke:black;stroke-width:1px;"/>
        </g>
        <g transform="matrix(1,0,0,1,128.678,248.855)">
            <g>
                <text x="8.889px" y="10.028px" style="font-family:'Arial-ItalicMT', 'Arial', sans-serif;font-style:italic;font-size:14px;">h² =</text>
                <text x="37.293px" y="10.028px" style="font-family:'ArialMT', 'Arial', sans-serif;font-size:14px;">0.2</text>
            </g>
        </g>
    </g>
</svg>
