<?xml version="1.0" encoding="UTF-8"?>
<svg xmlns="http://www.w3.org/2000/svg" xmlns:xlink="http://www.w3.org/1999/xlink" width="250.89pt" height="170.62pt" viewBox="0 0 250.89 170.62" version="1.1">
<defs>
<clipPath id="clip1">
  <path d="M 27 0 L 208 0 L 208 170.621094 L 27 170.621094 Z M 27 0 "/>
</clipPath>
<clipPath id="clip2">
  <path d="M 94 18 L 250.890625 18 L 250.890625 170.621094 L 94 170.621094 Z M 94 18 "/>
</clipPath>
<clipPath id="clip3">
  <path d="M 51 0 L 250.890625 0 L 250.890625 170.621094 L 51 170.621094 Z M 51 0 "/>
</clipPath>
<clipPath id="clip4">
  <path d="M 0 0 L 183 0 L 183 170.621094 L 0 170.621094 Z M 0 0 "/>
</clipPath>
<clipPath id="clip5">
  <path d="M 47 62 L 210 62 L 210 170.621094 L 47 170.621094 Z M 47 62 "/>
</clipPath>
<clipPath id="clip6">
  <path d="M 0 19 L 250.890625 19 L 250.890625 37 L 0 37 Z M 0 19 "/>
</clipPath>
</defs>
<g id="surface1">
<path style="fill:none;stroke-width:0.79701;stroke-linecap:butt;stroke-linejoin:miter;stroke:rgb(0%,0%,0%);stroke-opacity:1;stroke-miterlimit:10;" d="M 30.067719 30.067625 L -40.088531 100.219969 " transform="matrix(1,0,0,-1,125.444,150.177)"/>
<path style="fill:none;stroke-width:0.79701;stroke-linecap:butt;stroke-linejoin:miter;stroke:rgb(0%,0%,0%);stroke-opacity:1;stroke-miterlimit:10;" d="M -10.022125 70.153563 L 50.110688 130.286375 " transform="matrix(1,0,0,-1,125.444,150.177)"/>
<path style="fill:none;stroke-width:0.79701;stroke-linecap:butt;stroke-linejoin:miter;stroke:rgb(0%,0%,0%);stroke-opacity:1;stroke-miterlimit:10;" d="M 20.044281 100.219969 L -10.022125 130.286375 " transform="matrix(1,0,0,-1,125.444,150.177)"/>
<g clip-path="url(#clip1)" clip-rule="nonzero">
<path style="fill:none;stroke-width:3.9851;stroke-linecap:butt;stroke-linejoin:miter;stroke:rgb(0%,0%,100%);stroke-opacity:1;stroke-miterlimit:10;" d="M 27.950894 32.181269 L -40.088169 100.220331 " transform="matrix(1,0,0,-1,123.45145,152.16955)"/>
</g>
<path style="fill:none;stroke-width:3.9851;stroke-linecap:butt;stroke-linejoin:miter;stroke:rgb(0%,0%,100%);stroke-opacity:1;stroke-miterlimit:10;" d="M -12.135769 68.040644 L 49.4072 129.583613 " transform="matrix(1,0,0,-1,127.43655,152.16955)"/>
<path style="fill:none;stroke-width:3.9851;stroke-linecap:butt;stroke-linejoin:miter;stroke:rgb(0%,0%,100%);stroke-opacity:1;stroke-miterlimit:10;" d="M 22.157925 98.10705 L -10.021762 130.286738 " transform="matrix(1,0,0,-1,123.45145,152.16955)"/>
<path style="fill:none;stroke-width:0.79701;stroke-linecap:butt;stroke-linejoin:miter;stroke:rgb(0%,0%,0%);stroke-opacity:1;stroke-miterlimit:10;" d="M 0.0013125 0.00121875 L -120.264312 120.266844 " transform="matrix(1,0,0,-1,125.444,150.177)"/>
<g clip-path="url(#clip2)" clip-rule="nonzero">
<path style="fill:none;stroke-width:0.79701;stroke-linecap:butt;stroke-linejoin:miter;stroke:rgb(0%,0%,0%);stroke-opacity:1;stroke-miterlimit:10;" d="M -20.045562 -20.045656 L 120.266938 120.266844 " transform="matrix(1,0,0,-1,125.444,150.177)"/>
</g>
<g clip-path="url(#clip3)" clip-rule="nonzero">
<path style="fill:none;stroke-width:3.9851;stroke-linecap:butt;stroke-linejoin:miter;stroke:rgb(100%,0%,0%);stroke-opacity:1;stroke-miterlimit:10;" d="M -20.045925 -20.045294 L 120.266575 120.267206 " transform="matrix(1,0,0,-1,127.43655,152.16955)"/>
</g>
<g clip-path="url(#clip4)" clip-rule="nonzero">
<path style="fill:none;stroke-width:3.9851;stroke-linecap:butt;stroke-linejoin:miter;stroke:rgb(100%,0%,0%);stroke-opacity:1;stroke-miterlimit:10;" d="M 2.818081 -2.818731 L -120.26395 120.267206 " transform="matrix(1,0,0,-1,123.45145,152.16955)"/>
</g>
<g clip-path="url(#clip5)" clip-rule="nonzero">
<path style="fill:none;stroke-width:3.9851;stroke-linecap:butt;stroke-linejoin:miter;stroke:rgb(0%,0%,100%);stroke-opacity:1;stroke-miterlimit:10;" d="M -20.0452 -20.046019 L 29.501675 29.500856 " transform="matrix(1,0,0,-1,123.45145,148.18445)"/>
</g>
<path style="fill-rule:nonzero;fill:rgb(0%,0%,0%);fill-opacity:1;stroke-width:0.3985;stroke-linecap:butt;stroke-linejoin:miter;stroke:rgb(0%,0%,0%);stroke-opacity:1;stroke-miterlimit:10;" d="M -9.026031 132.278563 C -9.026031 133.930906 -10.365875 135.266844 -12.014312 135.266844 C -13.666656 135.266844 -15.002594 133.930906 -15.002594 132.278563 C -15.002594 130.630125 -13.666656 129.290281 -12.014312 129.290281 C -10.365875 129.290281 -9.026031 130.630125 -9.026031 132.278563 Z M -39.092437 102.212156 C -39.092437 103.8645 -40.432281 105.200438 -42.080719 105.200438 C -43.733062 105.200438 -45.069 103.8645 -45.069 102.212156 C -45.069 100.563719 -43.733062 99.223875 -42.080719 99.223875 C -40.432281 99.223875 -39.092437 100.563719 -39.092437 102.212156 Z M 55.091156 132.278563 C 55.091156 133.930906 53.751313 135.266844 52.102875 135.266844 C 50.450531 135.266844 49.114594 133.930906 49.114594 132.278563 C 49.114594 130.630125 50.450531 129.290281 52.102875 129.290281 C 53.751313 129.290281 55.091156 130.630125 55.091156 132.278563 Z M 55.091156 132.278563 " transform="matrix(1,0,0,-1,125.444,150.177)"/>
<g clip-path="url(#clip6)" clip-rule="nonzero">
<path style="fill:none;stroke-width:0.3985;stroke-linecap:butt;stroke-linejoin:miter;stroke:rgb(0%,0%,0%);stroke-opacity:1;stroke-miterlimit:10;" d="M 125.247406 122.259031 C 125.247406 123.907469 123.907563 125.247313 122.259125 125.247313 C 120.606781 125.247313 119.270844 123.907469 119.270844 122.259031 C 119.270844 120.606688 120.606781 119.27075 122.259125 119.27075 C 123.907563 119.27075 125.247406 120.606688 125.247406 122.259031 Z M -119.268219 122.259031 C -119.268219 123.907469 -120.608062 125.247313 -122.2565 125.247313 C -123.908844 125.247313 -125.248687 123.907469 -125.248687 122.259031 C -125.248687 120.606688 -123.908844 119.27075 -122.2565 119.27075 C -120.608062 119.27075 -119.268219 120.606688 -119.268219 122.259031 Z M -119.268219 122.259031 " transform="matrix(1,0,0,-1,125.444,150.177)"/>
</g>
<path style="fill:none;stroke-width:0.79701;stroke-linecap:butt;stroke-linejoin:miter;stroke:rgb(0%,0%,0%);stroke-opacity:1;stroke-miterlimit:10;" d="M 75.83725 100.219969 C 75.83725 127.594969 44.126313 149.786375 5.009125 149.786375 C -34.104156 149.786375 -65.815094 127.594969 -65.815094 100.219969 C -65.815094 72.844969 -34.104156 50.657469 5.009125 50.657469 C 44.126313 50.657469 75.83725 72.844969 75.83725 100.219969 Z M 75.83725 100.219969 " transform="matrix(1,0,0,-1,125.444,150.177)"/>
</g>
</svg>
