<?xml version="1.0" encoding="UTF-8"?>
<svg xmlns="http://www.w3.org/2000/svg" xmlns:xlink="http://www.w3.org/1999/xlink" width="187.24pt" height="158.89pt" viewBox="0 0 187.24 158.89" version="1.1">
<defs>
<clipPath id="clip1">
  <path d="M 14 2 L 18 2 L 18 158.890625 L 14 158.890625 Z M 14 2 "/>
</clipPath>
</defs>
<g id="surface1">
<g clip-path="url(#clip1)" clip-rule="nonzero">
<path style="fill:none;stroke-width:2.98883;stroke-linecap:butt;stroke-linejoin:miter;stroke:rgb(0%,0%,0%);stroke-opacity:1;stroke-miterlimit:10;" d="M -0.00003125 -14.171531 L -0.00003125 139.656594 " transform="matrix(1,0,0,-1,15.668,143.223)"/>
</g>
<path style="fill:none;stroke-width:2.39107;stroke-linecap:round;stroke-linejoin:round;stroke:rgb(0%,0%,0%);stroke-opacity:1;stroke-miterlimit:10;" d="M -3.52755 4.703156 C -3.234581 2.937531 -0.00020625 0.293 0.882606 0.00003125 C -0.00020625 -0.292938 -3.234581 -2.937469 -3.52755 -4.703094 " transform="matrix(0,-1,-1,0,15.668,3.5662)"/>
<path style="fill:none;stroke-width:2.98883;stroke-linecap:butt;stroke-linejoin:miter;stroke:rgb(0%,0%,0%);stroke-opacity:1;stroke-miterlimit:10;" d="M -14.171906 0.00034375 L 168.003875 0.00034375 " transform="matrix(1,0,0,-1,15.668,143.223)"/>
<path style="fill:none;stroke-width:2.39107;stroke-linecap:round;stroke-linejoin:round;stroke:rgb(0%,0%,0%);stroke-opacity:1;stroke-miterlimit:10;" d="M -3.527069 4.703469 C -3.2341 2.937844 0.000275 0.293313 0.883088 0.00034375 C 0.000275 -0.292625 -3.2341 -2.937156 -3.527069 -4.702781 " transform="matrix(1,0,0,-1,183.6716,143.223)"/>
<path style="fill-rule:nonzero;fill:rgb(0%,0%,0%);fill-opacity:1;stroke-width:0.3985;stroke-linecap:butt;stroke-linejoin:miter;stroke:rgb(0%,0%,0%);stroke-opacity:1;stroke-miterlimit:10;" d="M 62.949188 60.133156 C 62.949188 61.687844 61.687469 62.949563 60.132781 62.949563 C 58.578094 62.949563 57.316375 61.687844 57.316375 60.133156 C 57.316375 58.574563 58.578094 57.312844 60.132781 57.312844 C 61.687469 57.312844 62.949188 58.574563 62.949188 60.133156 Z M 62.949188 60.133156 " transform="matrix(1,0,0,-1,15.668,143.223)"/>
<path style="fill-rule:nonzero;fill:rgb(0%,0%,0%);fill-opacity:1;stroke-width:0.3985;stroke-linecap:butt;stroke-linejoin:miter;stroke:rgb(0%,0%,0%);stroke-opacity:1;stroke-miterlimit:10;" d="M 85.746062 77.332375 C 85.746062 78.887063 84.484344 80.148781 82.92575 80.148781 C 81.371062 80.148781 80.109344 78.887063 80.109344 77.332375 C 80.109344 75.773781 81.371062 74.512063 82.92575 74.512063 C 84.484344 74.512063 85.746062 75.773781 85.746062 77.332375 Z M 85.746062 77.332375 " transform="matrix(1,0,0,-1,15.668,143.223)"/>
<path style="fill-rule:nonzero;fill:rgb(0%,0%,0%);fill-opacity:1;stroke-width:0.3985;stroke-linecap:butt;stroke-linejoin:miter;stroke:rgb(0%,0%,0%);stroke-opacity:1;stroke-miterlimit:10;" d="M 101.015594 56.69175 C 101.015594 58.250344 99.753875 59.512063 98.195281 59.512063 C 96.640594 59.512063 95.378875 58.250344 95.378875 56.69175 C 95.378875 55.137063 96.640594 53.875344 98.195281 53.875344 C 99.753875 53.875344 101.015594 55.137063 101.015594 56.69175 Z M 101.015594 56.69175 " transform="matrix(1,0,0,-1,15.668,143.223)"/>
<path style="fill:none;stroke-width:0.3985;stroke-linecap:butt;stroke-linejoin:miter;stroke:rgb(0%,0%,0%);stroke-opacity:1;stroke-miterlimit:10;" d="M 56.093719 19.390969 C 56.093719 20.945656 54.832 22.207375 53.273406 22.207375 C 51.718719 22.207375 50.457 20.945656 50.457 19.390969 C 50.457 17.832375 51.718719 16.570656 53.273406 16.570656 C 54.832 16.570656 56.093719 17.832375 56.093719 19.390969 Z M 56.093719 19.390969 " transform="matrix(1,0,0,-1,15.668,143.223)"/>
<path style="fill:none;stroke-width:0.3985;stroke-linecap:butt;stroke-linejoin:miter;stroke:rgb(0%,0%,0%);stroke-opacity:1;stroke-miterlimit:10;" d="M 17.585906 83.750344 C 17.585906 85.305031 16.324188 86.56675 14.765594 86.56675 C 13.210906 86.56675 11.949188 85.305031 11.949188 83.750344 C 11.949188 82.19175 13.210906 80.930031 14.765594 80.930031 C 16.324188 80.930031 17.585906 82.19175 17.585906 83.750344 Z M 17.585906 83.750344 " transform="matrix(1,0,0,-1,15.668,143.223)"/>
<path style="fill:none;stroke-width:0.3985;stroke-linecap:butt;stroke-linejoin:miter;stroke:rgb(0%,0%,0%);stroke-opacity:1;stroke-miterlimit:10;" d="M 103.039031 100.223 C 103.039031 101.777688 101.777312 103.039406 100.222625 103.039406 C 98.664031 103.039406 97.402312 101.777688 97.402312 100.223 C 97.402312 98.664406 98.664031 97.402688 100.222625 97.402688 C 101.777312 97.402688 103.039031 98.664406 103.039031 100.223 Z M 103.039031 100.223 " transform="matrix(1,0,0,-1,15.668,143.223)"/>
<path style="fill:none;stroke-width:0.79701;stroke-linecap:butt;stroke-linejoin:miter;stroke:rgb(0%,0%,0%);stroke-opacity:1;stroke-miterlimit:10;" d="M 117.390594 67.012063 C 117.390594 81.320656 100.277312 92.918313 79.164031 92.918313 C 58.05075 92.918313 40.937469 81.320656 40.937469 67.012063 C 40.937469 52.703469 58.05075 41.105813 79.164031 41.105813 C 100.277312 41.105813 117.390594 52.703469 117.390594 67.012063 Z M 117.390594 67.012063 " transform="matrix(1,0,0,-1,15.668,143.223)"/>
</g>
</svg>
