<?xml version="1.0" encoding="UTF-8" standalone="no"?>
<!DOCTYPE svg PUBLIC "-//W3C//DTD SVG 1.1//EN" "http://www.w3.org/Graphics/SVG/1.1/DTD/svg11.dtd">
<svg width="100%" height="100%" viewBox="0 0 855 624" version="1.1" xmlns="http://www.w3.org/2000/svg" xmlns:xlink="http://www.w3.org/1999/xlink" xml:space="preserve" xmlns:serif="http://www.serif.com/" style="fill-rule:evenodd;clip-rule:evenodd;stroke-linecap:round;stroke-linejoin:round;stroke-miterlimit:1.5;">
    <g id="Artboard1" transform="matrix(1.02069,0,0,1,-87.0299,-108.686)">
        <rect x="85.266" y="108.686" width="837.652" height="623.573" style="fill:none;"/>
        <g transform="matrix(0.979727,0,0,1,591.931,-111.294)">
            <circle cx="249.118" cy="312.061" r="72.732" style="fill:white;stroke:black;stroke-width:4px;"/>
        </g>
        <g transform="matrix(0.979727,0,0,1,85.2664,108.686)">
            <g>
                <path d="M645.536,68.081L693.536,92.081L645.536,116.081C657.536,104.081 657.536,80.081 645.536,68.081Z"/>
                <path d="M446.368,92.081L655.136,92.081" style="fill:none;stroke:black;stroke-width:4px;"/>
            </g>
        </g>
        <g transform="matrix(0.979727,0,0,1,259.952,-111.294)">
            <circle cx="249.118" cy="312.061" r="72.732" style="fill:white;stroke:black;stroke-width:4px;"/>
        </g>
        <g transform="matrix(0.979728,0,0,1,85.2655,108.686)">
            <g>
                <path d="M358.779,123.661C368.431,114.589 383.632,115.06 392.704,124.711C401.776,134.363 401.305,149.564 391.653,158.636C382.002,167.708 366.8,167.237 357.728,157.586C348.657,147.934 349.127,132.733 358.779,123.661Z"/>
                <path d="M86.947,412.102C86.947,412.102 289.216,221.983 364.724,151.011" style="fill:none;stroke:black;stroke-width:4px;"/>
            </g>
        </g>
        <g transform="matrix(0.979728,0,0,1,85.2655,108.686)">
            <g>
                <path d="M699.251,123.661C708.903,114.589 724.104,115.06 733.176,124.711C742.248,134.363 741.777,149.564 732.125,158.636C722.474,167.708 707.272,167.237 698.201,157.586C689.129,147.934 689.599,132.733 699.251,123.661Z"/>
                <path d="M427.419,412.102C427.419,412.102 629.688,221.983 705.196,151.011" style="fill:none;stroke:black;stroke-width:4px;"/>
            </g>
        </g>
        <g transform="matrix(0.979727,0,0,1,139.176,720.974)">
            <g transform="matrix(96,0,0,96,0,0)">
                <path d="M0.26,-0.563L0.222,-0.43L0.298,-0.43L0.29,-0.399L0.214,-0.399L0.13,-0.111C0.121,-0.08 0.116,-0.06 0.116,-0.051C0.116,-0.046 0.118,-0.042 0.12,-0.039C0.123,-0.036 0.126,-0.034 0.129,-0.034C0.138,-0.034 0.148,-0.04 0.162,-0.051C0.169,-0.058 0.187,-0.078 0.214,-0.111L0.23,-0.099C0.2,-0.056 0.172,-0.025 0.145,-0.007C0.127,0.006 0.108,0.012 0.09,0.012C0.076,0.012 0.064,0.007 0.055,-0.002C0.046,-0.011 0.041,-0.022 0.041,-0.036C0.041,-0.054 0.046,-0.081 0.057,-0.117L0.138,-0.399L0.064,-0.399L0.069,-0.418C0.105,-0.428 0.135,-0.443 0.159,-0.462C0.182,-0.482 0.209,-0.515 0.238,-0.563L0.26,-0.563Z" style="fill-rule:nonzero;"/>
            </g>
            <g transform="matrix(96,0,0,96,26.6719,0)">
                <path d="M0.417,-0.676L0.26,-0.128C0.251,-0.096 0.247,-0.073 0.247,-0.059C0.247,-0.047 0.251,-0.037 0.259,-0.031C0.267,-0.025 0.287,-0.02 0.317,-0.018L0.313,-0L0.061,-0L0.068,-0.018C0.095,-0.019 0.112,-0.021 0.121,-0.024C0.134,-0.03 0.145,-0.038 0.151,-0.048C0.162,-0.063 0.173,-0.09 0.184,-0.128L0.297,-0.521C0.304,-0.545 0.308,-0.559 0.309,-0.563C0.31,-0.569 0.31,-0.575 0.31,-0.582C0.31,-0.593 0.307,-0.602 0.301,-0.608C0.295,-0.615 0.286,-0.618 0.275,-0.618C0.267,-0.618 0.254,-0.616 0.236,-0.612L0.229,-0.63L0.394,-0.676L0.417,-0.676Z" style="fill-rule:nonzero;"/>
            </g>
        </g>
        <g transform="matrix(0.979727,0,0,1,461.86,720.974)">
            <g transform="matrix(96,0,0,96,0,0)">
                <path d="M0.26,-0.563L0.222,-0.43L0.298,-0.43L0.29,-0.399L0.214,-0.399L0.13,-0.111C0.121,-0.08 0.116,-0.06 0.116,-0.051C0.116,-0.046 0.118,-0.042 0.12,-0.039C0.123,-0.036 0.126,-0.034 0.129,-0.034C0.138,-0.034 0.148,-0.04 0.162,-0.051C0.169,-0.058 0.187,-0.078 0.214,-0.111L0.23,-0.099C0.2,-0.056 0.172,-0.025 0.145,-0.007C0.127,0.006 0.108,0.012 0.09,0.012C0.076,0.012 0.064,0.007 0.055,-0.002C0.046,-0.011 0.041,-0.022 0.041,-0.036C0.041,-0.054 0.046,-0.081 0.057,-0.117L0.138,-0.399L0.064,-0.399L0.069,-0.418C0.105,-0.428 0.135,-0.443 0.159,-0.462C0.182,-0.482 0.209,-0.515 0.238,-0.563L0.26,-0.563Z" style="fill-rule:nonzero;"/>
            </g>
            <g transform="matrix(96,0,0,96,26.6719,0)">
                <path d="M0.345,-0L0.016,-0L0.016,-0.018C0.184,-0.165 0.295,-0.281 0.349,-0.364C0.374,-0.403 0.386,-0.444 0.386,-0.486C0.386,-0.52 0.376,-0.548 0.355,-0.569C0.334,-0.59 0.307,-0.601 0.274,-0.601C0.228,-0.601 0.19,-0.579 0.161,-0.535L0.144,-0.543C0.16,-0.585 0.184,-0.618 0.216,-0.641C0.248,-0.664 0.283,-0.676 0.32,-0.676C0.362,-0.676 0.397,-0.661 0.426,-0.633C0.454,-0.604 0.469,-0.569 0.469,-0.528C0.469,-0.499 0.464,-0.473 0.454,-0.448C0.438,-0.41 0.409,-0.368 0.367,-0.32C0.303,-0.248 0.218,-0.165 0.112,-0.071L0.278,-0.071C0.305,-0.071 0.326,-0.076 0.344,-0.087C0.361,-0.098 0.373,-0.113 0.381,-0.132L0.4,-0.132L0.345,-0Z" style="fill-rule:nonzero;"/>
            </g>
        </g>
        <g transform="matrix(0.979727,0,0,1,781.039,720.974)">
            <g transform="matrix(96,0,0,96,0,0)">
                <path d="M0.26,-0.563L0.222,-0.43L0.298,-0.43L0.29,-0.399L0.214,-0.399L0.13,-0.111C0.121,-0.08 0.116,-0.06 0.116,-0.051C0.116,-0.046 0.118,-0.042 0.12,-0.039C0.123,-0.036 0.126,-0.034 0.129,-0.034C0.138,-0.034 0.148,-0.04 0.162,-0.051C0.169,-0.058 0.187,-0.078 0.214,-0.111L0.23,-0.099C0.2,-0.056 0.172,-0.025 0.145,-0.007C0.127,0.006 0.108,0.012 0.09,0.012C0.076,0.012 0.064,0.007 0.055,-0.002C0.046,-0.011 0.041,-0.022 0.041,-0.036C0.041,-0.054 0.046,-0.081 0.057,-0.117L0.138,-0.399L0.064,-0.399L0.069,-0.418C0.105,-0.428 0.135,-0.443 0.159,-0.462C0.182,-0.482 0.209,-0.515 0.238,-0.563L0.26,-0.563Z" style="fill-rule:nonzero;"/>
            </g>
            <g transform="matrix(96,0,0,96,26.6719,0)">
                <path d="M0.153,-0.362L0.153,-0.376C0.232,-0.388 0.29,-0.411 0.329,-0.446C0.357,-0.471 0.371,-0.5 0.371,-0.535C0.371,-0.56 0.363,-0.582 0.347,-0.598C0.33,-0.615 0.311,-0.624 0.288,-0.624C0.251,-0.624 0.219,-0.601 0.19,-0.556L0.172,-0.561C0.189,-0.599 0.211,-0.627 0.238,-0.647C0.264,-0.666 0.293,-0.676 0.325,-0.676C0.363,-0.676 0.394,-0.664 0.418,-0.641C0.442,-0.618 0.454,-0.589 0.454,-0.554C0.454,-0.524 0.442,-0.495 0.42,-0.468C0.398,-0.44 0.36,-0.415 0.305,-0.394C0.339,-0.38 0.365,-0.359 0.382,-0.333C0.399,-0.307 0.408,-0.276 0.408,-0.239C0.408,-0.198 0.396,-0.157 0.373,-0.116C0.349,-0.076 0.317,-0.044 0.276,-0.022C0.235,0.001 0.192,0.012 0.147,0.012C0.106,0.012 0.075,0.005 0.054,-0.01C0.04,-0.02 0.033,-0.031 0.033,-0.044C0.033,-0.055 0.037,-0.065 0.046,-0.073C0.054,-0.081 0.064,-0.085 0.076,-0.085C0.085,-0.085 0.093,-0.084 0.102,-0.082C0.107,-0.08 0.12,-0.073 0.14,-0.062C0.16,-0.051 0.176,-0.043 0.188,-0.039C0.199,-0.036 0.211,-0.034 0.223,-0.034C0.252,-0.034 0.276,-0.051 0.295,-0.085C0.314,-0.119 0.324,-0.155 0.324,-0.193C0.324,-0.225 0.317,-0.252 0.304,-0.277C0.292,-0.301 0.271,-0.321 0.244,-0.336C0.216,-0.351 0.186,-0.36 0.153,-0.362Z" style="fill-rule:nonzero;"/>
            </g>
        </g>
        <g transform="matrix(0.979727,0,0,1,85.2656,108.686)">
            <path d="M306.687,68.081L354.687,92.081L306.687,116.081C318.687,104.081 318.687,80.081 306.687,68.081Z"/>
            <path d="M86.947,92.081L316.287,92.081" style="fill:none;stroke:black;stroke-width:4px;"/>
        </g>
        <g transform="matrix(0.979727,0,0,1,259.952,208.727)">
            <circle cx="249.118" cy="312.061" r="72.732" style="fill:rgb(115,115,115);"/>
        </g>
        <g transform="matrix(0.979727,0,0,1,480.713,553.553)">
            <g transform="matrix(96,0,0,96,0,0)">
                <path d="M0.289,-0.694L0.192,-0.357C0.224,-0.389 0.251,-0.412 0.274,-0.424C0.297,-0.436 0.322,-0.442 0.347,-0.442C0.383,-0.442 0.412,-0.43 0.435,-0.406C0.458,-0.382 0.469,-0.35 0.469,-0.31C0.469,-0.257 0.454,-0.205 0.424,-0.153C0.394,-0.101 0.357,-0.061 0.312,-0.032C0.266,-0.003 0.222,0.012 0.178,0.012C0.129,0.012 0.078,-0.007 0.026,-0.043L0.175,-0.555C0.186,-0.594 0.192,-0.617 0.192,-0.624C0.192,-0.632 0.189,-0.639 0.184,-0.643C0.177,-0.649 0.166,-0.652 0.151,-0.652C0.144,-0.652 0.134,-0.651 0.12,-0.648L0.12,-0.667L0.289,-0.694ZM0.1,-0.038C0.132,-0.02 0.161,-0.011 0.186,-0.011C0.214,-0.011 0.244,-0.022 0.275,-0.043C0.305,-0.064 0.332,-0.099 0.355,-0.149C0.377,-0.199 0.389,-0.249 0.389,-0.3C0.389,-0.33 0.381,-0.353 0.366,-0.37C0.352,-0.387 0.334,-0.396 0.314,-0.396C0.284,-0.396 0.254,-0.383 0.225,-0.359C0.196,-0.335 0.175,-0.301 0.163,-0.258L0.1,-0.038Z" style="fill:white;fill-rule:nonzero;"/>
            </g>
        </g>
        <g transform="matrix(0.979727,0,0,1,-70.6787,-111.294)">
            <circle cx="249.118" cy="312.061" r="72.732" style="fill:rgb(115,115,115);"/>
        </g>
        <g transform="matrix(0.979727,0,0,1,150.221,221.416)">
            <g transform="matrix(96,0,0,96,0,0)">
                <path d="M0.469,-0.442L0.374,-0.111L0.363,-0.066C0.362,-0.062 0.362,-0.059 0.362,-0.056C0.362,-0.05 0.363,-0.046 0.367,-0.042C0.369,-0.039 0.373,-0.038 0.376,-0.038C0.381,-0.038 0.386,-0.04 0.393,-0.045C0.406,-0.055 0.423,-0.074 0.444,-0.104L0.46,-0.092C0.438,-0.058 0.415,-0.033 0.391,-0.015C0.367,0.003 0.345,0.012 0.325,0.012C0.311,0.012 0.301,0.008 0.294,0.001C0.287,-0.006 0.283,-0.016 0.283,-0.029C0.283,-0.045 0.287,-0.066 0.294,-0.092L0.304,-0.129C0.262,-0.073 0.222,-0.034 0.187,-0.012C0.161,0.004 0.136,0.012 0.111,0.012C0.087,0.012 0.067,0.002 0.049,-0.018C0.032,-0.038 0.023,-0.065 0.023,-0.099C0.023,-0.151 0.039,-0.205 0.07,-0.263C0.101,-0.32 0.141,-0.366 0.188,-0.401C0.226,-0.428 0.261,-0.442 0.294,-0.442C0.314,-0.442 0.331,-0.437 0.344,-0.426C0.357,-0.416 0.367,-0.399 0.374,-0.375L0.392,-0.43L0.469,-0.442ZM0.295,-0.417C0.275,-0.417 0.252,-0.407 0.229,-0.387C0.196,-0.36 0.166,-0.319 0.14,-0.264C0.115,-0.21 0.102,-0.161 0.102,-0.117C0.102,-0.095 0.107,-0.077 0.118,-0.064C0.129,-0.051 0.142,-0.045 0.156,-0.045C0.192,-0.045 0.23,-0.071 0.272,-0.124C0.328,-0.193 0.355,-0.265 0.355,-0.338C0.355,-0.366 0.35,-0.386 0.339,-0.398C0.329,-0.41 0.314,-0.417 0.295,-0.417Z" style="fill:white;fill-rule:nonzero;"/>
            </g>
        </g>
        <g transform="matrix(0.979727,0,0,1,-70.6787,208.727)">
            <circle cx="249.118" cy="312.061" r="72.732" style="fill:rgb(115,115,115);"/>
        </g>
        <g transform="matrix(0.979727,0,0,1,149.141,541.436)">
            <g transform="matrix(96,0,0,96,0,0)">
                <path d="M0.386,-0.106C0.352,-0.066 0.318,-0.036 0.284,-0.017C0.249,0.002 0.213,0.012 0.174,0.012C0.128,0.012 0.092,-0.001 0.066,-0.027C0.04,-0.053 0.027,-0.088 0.027,-0.132C0.027,-0.182 0.041,-0.231 0.069,-0.279C0.097,-0.327 0.134,-0.367 0.181,-0.397C0.228,-0.427 0.275,-0.442 0.32,-0.442C0.355,-0.442 0.382,-0.434 0.399,-0.42C0.417,-0.405 0.426,-0.387 0.426,-0.365C0.426,-0.345 0.42,-0.328 0.407,-0.313C0.398,-0.302 0.387,-0.297 0.374,-0.297C0.363,-0.297 0.355,-0.3 0.348,-0.307C0.342,-0.313 0.338,-0.321 0.338,-0.331C0.338,-0.337 0.34,-0.343 0.342,-0.348C0.344,-0.353 0.35,-0.36 0.357,-0.367C0.365,-0.374 0.369,-0.38 0.371,-0.383C0.373,-0.386 0.374,-0.389 0.374,-0.393C0.374,-0.4 0.37,-0.406 0.364,-0.41C0.355,-0.417 0.341,-0.42 0.324,-0.42C0.292,-0.42 0.261,-0.409 0.229,-0.386C0.198,-0.364 0.172,-0.332 0.149,-0.291C0.123,-0.24 0.109,-0.19 0.109,-0.14C0.109,-0.107 0.119,-0.081 0.138,-0.061C0.157,-0.042 0.182,-0.032 0.215,-0.032C0.24,-0.032 0.265,-0.038 0.289,-0.051C0.314,-0.064 0.341,-0.086 0.372,-0.119L0.386,-0.106Z" style="fill:white;fill-rule:nonzero;"/>
            </g>
        </g>
        <g transform="matrix(0.979727,0,0,1,814.3,221.416)">
            <g transform="matrix(96,0,0,96,0,0)">
                <path d="M0.119,-0.184C0.117,-0.168 0.116,-0.154 0.116,-0.144C0.116,-0.115 0.126,-0.09 0.146,-0.07C0.167,-0.049 0.192,-0.039 0.221,-0.039C0.245,-0.039 0.267,-0.044 0.289,-0.053C0.31,-0.063 0.343,-0.084 0.385,-0.117L0.396,-0.103C0.318,-0.027 0.245,0.012 0.175,0.012C0.127,0.012 0.091,-0.003 0.067,-0.033C0.043,-0.063 0.031,-0.096 0.031,-0.132C0.031,-0.181 0.046,-0.23 0.076,-0.281C0.106,-0.332 0.144,-0.372 0.189,-0.4C0.234,-0.428 0.281,-0.442 0.329,-0.442C0.363,-0.442 0.389,-0.435 0.405,-0.421C0.422,-0.407 0.43,-0.39 0.43,-0.371C0.43,-0.344 0.419,-0.318 0.398,-0.293C0.37,-0.261 0.328,-0.235 0.273,-0.215C0.236,-0.202 0.185,-0.192 0.119,-0.184ZM0.123,-0.208C0.171,-0.214 0.21,-0.223 0.24,-0.236C0.28,-0.254 0.31,-0.276 0.33,-0.301C0.35,-0.325 0.36,-0.349 0.36,-0.372C0.36,-0.385 0.356,-0.396 0.347,-0.405C0.339,-0.413 0.326,-0.417 0.311,-0.417C0.277,-0.417 0.242,-0.4 0.205,-0.365C0.168,-0.329 0.14,-0.277 0.123,-0.208Z" style="fill-rule:nonzero;"/>
            </g>
        </g>
        <g transform="matrix(0.979727,0,0,1,477.682,233.533)">
            <g transform="matrix(96,0,0,96,0,0)">
                <path d="M0.541,-0.694L0.373,-0.118C0.364,-0.087 0.359,-0.066 0.359,-0.057C0.359,-0.053 0.361,-0.05 0.364,-0.047C0.366,-0.044 0.369,-0.043 0.372,-0.043C0.376,-0.043 0.381,-0.045 0.387,-0.049C0.398,-0.057 0.417,-0.077 0.443,-0.108L0.459,-0.098C0.436,-0.065 0.412,-0.039 0.388,-0.019C0.365,0.002 0.342,0.012 0.321,0.012C0.31,0.012 0.301,0.008 0.294,-0C0.287,-0.008 0.283,-0.019 0.283,-0.033C0.283,-0.052 0.288,-0.077 0.298,-0.108L0.317,-0.168C0.27,-0.096 0.227,-0.045 0.188,-0.017C0.161,0.002 0.136,0.012 0.111,0.012C0.087,0.012 0.065,0.001 0.047,-0.021C0.028,-0.043 0.019,-0.073 0.019,-0.111C0.019,-0.159 0.035,-0.211 0.065,-0.266C0.096,-0.321 0.137,-0.366 0.188,-0.4C0.228,-0.428 0.265,-0.442 0.298,-0.442C0.316,-0.442 0.331,-0.438 0.344,-0.431C0.356,-0.424 0.369,-0.412 0.381,-0.396L0.429,-0.565C0.433,-0.577 0.436,-0.587 0.438,-0.594C0.442,-0.607 0.444,-0.618 0.444,-0.626C0.444,-0.633 0.441,-0.639 0.437,-0.644C0.43,-0.649 0.421,-0.652 0.41,-0.652C0.403,-0.652 0.39,-0.651 0.373,-0.648L0.373,-0.667L0.541,-0.694ZM0.36,-0.348C0.36,-0.368 0.354,-0.385 0.342,-0.398C0.33,-0.411 0.314,-0.417 0.296,-0.417C0.255,-0.417 0.212,-0.383 0.168,-0.315C0.123,-0.248 0.101,-0.183 0.101,-0.121C0.101,-0.097 0.106,-0.078 0.117,-0.065C0.128,-0.052 0.141,-0.046 0.156,-0.046C0.19,-0.046 0.232,-0.083 0.283,-0.156C0.334,-0.229 0.36,-0.293 0.36,-0.348Z" style="fill-rule:nonzero;"/>
            </g>
        </g>
    </g>
</svg>
