<?xml version="1.0" encoding="UTF-8" standalone="no"?>
<!DOCTYPE svg PUBLIC "-//W3C//DTD SVG 1.1//EN" "http://www.w3.org/Graphics/SVG/1.1/DTD/svg11.dtd">
<svg width="100%" height="100%" viewBox="0 0 578 317" version="1.1" xmlns="http://www.w3.org/2000/svg" xmlns:xlink="http://www.w3.org/1999/xlink" xml:space="preserve" xmlns:serif="http://www.serif.com/" style="fill-rule:evenodd;clip-rule:evenodd;stroke-linecap:round;stroke-linejoin:round;stroke-miterlimit:1.5;">
    <g id="Artboard1" transform="matrix(0.878872,0,0,0.864848,-237.676,-83.606)">
        <rect x="270.434" y="96.671" width="657.566" height="365.538" style="fill:none;"/>
        <g transform="matrix(1.13782,0,0,1.15627,-74.7004,41.3708)">
            <g transform="matrix(72,0,0,72,318.769,309.147)">
                <path d="M0.131,-0.649L0.125,-0.623C0.205,-0.615 0.21,-0.61 0.195,-0.538L0.114,-0.12C0.098,-0.039 0.091,-0.034 0.013,-0.027L0.007,-0L0.22,-0C0.298,-0 0.367,-0.008 0.422,-0.034C0.489,-0.066 0.537,-0.123 0.537,-0.196C0.537,-0.289 0.468,-0.336 0.39,-0.352L0.39,-0.354C0.479,-0.373 0.553,-0.421 0.553,-0.512C0.553,-0.613 0.477,-0.649 0.365,-0.649L0.131,-0.649ZM0.242,-0.367L0.279,-0.564C0.284,-0.591 0.29,-0.602 0.299,-0.608C0.308,-0.614 0.323,-0.618 0.345,-0.618C0.402,-0.618 0.463,-0.594 0.463,-0.51C0.463,-0.423 0.403,-0.367 0.293,-0.367L0.242,-0.367ZM0.235,-0.334L0.284,-0.334C0.369,-0.334 0.441,-0.303 0.441,-0.201C0.441,-0.1 0.37,-0.034 0.273,-0.034C0.208,-0.034 0.182,-0.048 0.195,-0.122L0.235,-0.334Z" style="fill-rule:nonzero;"/>
            </g>
        </g>
        <g transform="matrix(1.13782,0,0,1.15627,214.463,-186.726)">
            <g transform="matrix(72,0,0,72,318.769,309.147)">
                <path d="M0.132,-0.649L0.126,-0.623C0.206,-0.614 0.211,-0.608 0.195,-0.53L0.115,-0.125C0.098,-0.04 0.09,-0.035 0.013,-0.027L0.007,-0L0.272,-0L0.278,-0.027C0.187,-0.035 0.18,-0.041 0.196,-0.125L0.226,-0.283L0.293,-0.262C0.305,-0.262 0.319,-0.262 0.332,-0.263C0.44,-0.27 0.57,-0.338 0.57,-0.481C0.57,-0.59 0.5,-0.649 0.36,-0.649L0.132,-0.649ZM0.28,-0.563C0.286,-0.594 0.293,-0.605 0.304,-0.61C0.315,-0.615 0.33,-0.618 0.347,-0.618C0.434,-0.618 0.481,-0.567 0.481,-0.484C0.481,-0.349 0.378,-0.302 0.307,-0.302C0.271,-0.302 0.247,-0.31 0.233,-0.315L0.28,-0.563Z" style="fill-rule:nonzero;"/>
            </g>
        </g>
        <g transform="matrix(1.13782,0,0,1.15627,348.092,-174.283)">
            <g transform="matrix(72,0,0,72,440.615,497.455)">
                <path d="M0.636,-0.674C0.617,-0.655 0.609,-0.649 0.583,-0.649L0.207,-0.649C0.18,-0.649 0.169,-0.651 0.158,-0.674L0.137,-0.674C0.125,-0.619 0.108,-0.555 0.09,-0.496L0.12,-0.496C0.137,-0.536 0.153,-0.567 0.169,-0.586C0.188,-0.608 0.206,-0.616 0.292,-0.616L0.343,-0.616L0.248,-0.12C0.233,-0.04 0.227,-0.033 0.142,-0.027L0.136,-0L0.408,-0L0.414,-0.027C0.324,-0.033 0.317,-0.039 0.332,-0.12L0.425,-0.616L0.485,-0.616C0.562,-0.616 0.583,-0.609 0.592,-0.585C0.602,-0.564 0.604,-0.534 0.604,-0.496L0.634,-0.499C0.64,-0.553 0.649,-0.629 0.657,-0.674L0.636,-0.674Z" style="fill-rule:nonzero;"/>
            </g>
        </g>
        <g transform="matrix(1.13782,0,0,1.15627,-127.406,-71.4544)">
            <g transform="matrix(1,-0,-0,1,349.65,145.403)">
                <path d="M209.021,73.855L248.056,64.047L232.482,101.161C233.443,88.469 221.712,74.816 209.021,73.855Z"/>
                <path d="M72.839,214.597C72.839,214.597 179.239,123.176 226.212,82.816" style="fill:none;stroke:black;stroke-width:4px;"/>
            </g>
        </g>
        <g transform="matrix(1.13782,0,0,-1.15627,157.893,586.985)">
            <g transform="matrix(1,0,0,-1,98.9088,424.047)">
                <path d="M483.223,177.483L498.798,214.597L459.762,204.788C472.453,203.827 484.184,190.175 483.223,177.483Z"/>
                <path d="M323.581,64.047C323.581,64.047 429.98,155.467 476.953,195.828" style="fill:none;stroke:black;stroke-width:4px;"/>
            </g>
        </g>
        <g transform="matrix(1.13782,0,0,1.15627,-127.406,-71.4544)">
            <g transform="matrix(1,-0,-0,1,349.65,145.403)">
                <path d="M462.798,219.956L498.798,237.956L462.798,255.956C471.798,246.956 471.798,228.956 462.798,219.956Z"/>
                <path d="M72.839,237.956L469.998,237.956" style="fill:none;stroke:black;stroke-width:4px;"/>
            </g>
        </g>
        <g id="klf_2021-11-02_19-05_P11812.600.ps" transform="matrix(6.70304,0,0,6.81173,589.511,422.665)">
            <g transform="matrix(1,0,0,1,-3.5,-3.5)">
                <g>
                    <path d="M3.662,3.816L6.434,3.816C6.573,3.816 6.762,3.816 6.762,3.618C6.762,3.418 6.573,3.418 6.434,3.418L3.662,3.418L3.662,0.636C3.662,0.497 3.662,0.31 3.464,0.31C3.265,0.31 3.265,0.497 3.265,0.636L3.265,3.418L0.484,3.418C0.345,3.418 0.156,3.418 0.156,3.618C0.156,3.816 0.345,3.816 0.484,3.816L3.265,3.816L3.265,6.597C3.265,6.736 3.265,6.925 3.464,6.925C3.662,6.925 3.662,6.736 3.662,6.597L3.662,3.816Z" style="fill-rule:nonzero;"/>
                </g>
            </g>
        </g>
        <g id="klf_2021-11-02_19-05_P11812.600.ps1" serif:id="klf_2021-11-02_19-05_P11812.600.ps" transform="matrix(6.70304,0,0,6.81173,759.087,207.41)">
            <g transform="matrix(1,0,0,1,-3.5,-3.5)">
                <g>
                    <path d="M3.662,3.816L6.434,3.816C6.573,3.816 6.762,3.816 6.762,3.618C6.762,3.418 6.573,3.418 6.434,3.418L3.662,3.418L3.662,0.636C3.662,0.497 3.662,0.31 3.464,0.31C3.265,0.31 3.265,0.497 3.265,0.636L3.265,3.418L0.484,3.418C0.345,3.418 0.156,3.418 0.156,3.618C0.156,3.816 0.345,3.816 0.484,3.816L3.265,3.816L3.265,6.597C3.265,6.736 3.265,6.925 3.464,6.925C3.662,6.925 3.662,6.736 3.662,6.597L3.662,3.816Z" style="fill-rule:nonzero;"/>
                </g>
            </g>
        </g>
        <g id="klf_2021-11-02_19-06_i11812.600.ps" transform="matrix(6.27091,0,0,6.37259,375.26,228.065)">
            <g transform="matrix(1,0,0,1,-3.5,-0.5)">
                <clipPath id="_clip1">
                    <rect x="0" y="0" width="7" height="1"/>
                </clipPath>
                <g clip-path="url(#_clip1)">
                    <g>
                        <path d="M5.746,1.015C5.915,1.015 6.093,1.015 6.093,0.818C6.093,0.618 5.915,0.618 5.746,0.618L0.371,0.618C0.203,0.618 0.025,0.618 0.025,0.818C0.025,1.015 0.203,1.015 0.371,1.015L5.746,1.015Z" style="fill-rule:nonzero;"/>
                    </g>
                </g>
            </g>
        </g>
    </g>
</svg>
