<?xml version="1.0" encoding="UTF-8" standalone="no"?>
<!DOCTYPE svg PUBLIC "-//W3C//DTD SVG 1.1//EN" "http://www.w3.org/Graphics/SVG/1.1/DTD/svg11.dtd">
<svg width="100%" height="100%" viewBox="0 0 1190 624" version="1.1" xmlns="http://www.w3.org/2000/svg" xmlns:xlink="http://www.w3.org/1999/xlink" xml:space="preserve" xmlns:serif="http://www.serif.com/" style="fill-rule:evenodd;clip-rule:evenodd;stroke-linecap:round;stroke-linejoin:round;stroke-miterlimit:1.5;">
    <g id="Artboard1" transform="matrix(1.42022,0,0,1,-121.096,-108.686)">
        <rect x="85.266" y="108.686" width="837.652" height="623.573" style="fill:none;"/>
        <g transform="matrix(0.569876,-5.55112e-17,3.90862e-17,0.809351,99.4172,-60.9906)">
            <g transform="matrix(1.23556,8.47435e-17,-8.47435e-17,1.23556,-24.8328,209.645)">
                <path d="M639.873,120.629L693.536,121.097L660.964,163.747C666.47,147.695 655.925,126.136 639.873,120.629Z"/>
                <path d="M427.419,251.268C427.419,251.268 587.048,173.186 659.042,137.97" style="fill:none;stroke:black;stroke-width:4px;"/>
            </g>
        </g>
        <g transform="matrix(0.569876,-5.55112e-17,3.90862e-17,0.809351,338.006,99.8429)">
            <g transform="matrix(1.23556,8.47435e-17,-8.47435e-17,1.23556,-443.5,10.9263)">
                <path d="M978.722,281.463L1032.38,281.931L999.813,324.581C1005.32,308.529 994.774,286.97 978.722,281.463Z"/>
                <path d="M766.268,412.102C766.268,412.102 925.897,334.019 997.891,298.804" style="fill:none;stroke:black;stroke-width:4px;"/>
            </g>
        </g>
        <g transform="matrix(0.569876,-5.55112e-17,3.90862e-17,0.809351,338.006,99.8429)">
            <g transform="matrix(1.23556,8.47435e-17,-8.47435e-17,1.23556,-443.5,10.9263)">
                <path d="M978.722,281.463L1032.38,281.931L999.813,324.581C1005.32,308.529 994.774,286.97 978.722,281.463Z"/>
                <path d="M766.268,412.102C766.268,412.102 925.897,334.019 997.891,298.804" style="fill:none;stroke:black;stroke-width:4px;"/>
            </g>
        </g>
        <g transform="matrix(0.569876,-5.55112e-17,3.90862e-17,0.809351,-138.202,99.8429)">
            <g transform="matrix(1.23556,8.47435e-17,-8.47435e-17,1.23556,392.133,10.9263)">
                <path d="M302.401,281.463L356.064,281.931L323.492,324.581C328.998,308.529 318.453,286.97 302.401,281.463Z"/>
                <path d="M89.947,412.102C89.947,412.102 249.576,334.019 321.57,298.804" style="fill:none;stroke:black;stroke-width:4px;"/>
            </g>
        </g>
        <g transform="matrix(0.569876,5.55112e-17,3.90862e-17,-0.809351,-130.691,621.712)">
            <g transform="matrix(1.23556,8.47435e-17,8.47435e-17,-1.23556,378.954,633.873)">
                <path d="M371.965,207.001L336.189,207.313L357.904,235.746L371.965,207.001Z" style="stroke:black;stroke-width:4px;stroke-linejoin:miter;stroke-miterlimit:10;"/>
                <path d="M100.614,92.081C100.614,92.081 266.28,173.117 336.189,207.313" style="fill:none;stroke:black;stroke-width:4px;"/>
            </g>
        </g>
        <g transform="matrix(0.569876,5.55112e-17,3.90862e-17,-0.809351,99.4172,780.899)">
            <g transform="matrix(1.23556,8.47435e-17,8.47435e-17,-1.23556,-24.8328,830.558)">
                <path d="M660.964,338.789L693.536,381.439L639.873,381.907C655.925,376.4 666.47,354.841 660.964,338.789Z"/>
                <path d="M427.419,251.268C427.419,251.268 587.048,329.35 659.042,364.566" style="fill:none;stroke:black;stroke-width:4px;"/>
            </g>
        </g>
        <g transform="matrix(0.704115,0,0,1,449.399,-111.294)">
            <circle cx="249.118" cy="312.061" r="72.732" style="fill:white;stroke:black;stroke-width:4px;"/>
        </g>
        <g transform="matrix(0.704115,0,0,1,10.6354,146.804)">
            <g transform="matrix(96,0,0,96,161.017,574.17)">
                <path d="M0.26,-0.563L0.222,-0.43L0.298,-0.43L0.29,-0.399L0.214,-0.399L0.13,-0.111C0.121,-0.08 0.116,-0.06 0.116,-0.051C0.116,-0.046 0.118,-0.042 0.12,-0.039C0.123,-0.036 0.126,-0.034 0.129,-0.034C0.138,-0.034 0.148,-0.04 0.162,-0.051C0.169,-0.058 0.187,-0.078 0.214,-0.111L0.23,-0.099C0.2,-0.056 0.172,-0.025 0.145,-0.007C0.127,0.006 0.108,0.012 0.09,0.012C0.076,0.012 0.064,0.007 0.055,-0.002C0.046,-0.011 0.041,-0.022 0.041,-0.036C0.041,-0.054 0.046,-0.081 0.057,-0.117L0.138,-0.399L0.064,-0.399L0.069,-0.418C0.105,-0.428 0.135,-0.443 0.159,-0.462C0.182,-0.482 0.209,-0.515 0.238,-0.563L0.26,-0.563Z" style="fill-rule:nonzero;"/>
            </g>
            <g transform="matrix(96,0,0,96,187.688,574.17)">
                <path d="M0.417,-0.676L0.26,-0.128C0.251,-0.096 0.247,-0.073 0.247,-0.059C0.247,-0.047 0.251,-0.037 0.259,-0.031C0.267,-0.025 0.287,-0.02 0.317,-0.018L0.313,-0L0.061,-0L0.068,-0.018C0.095,-0.019 0.112,-0.021 0.121,-0.024C0.134,-0.03 0.145,-0.038 0.151,-0.048C0.162,-0.063 0.173,-0.09 0.184,-0.128L0.297,-0.521C0.304,-0.545 0.308,-0.559 0.309,-0.563C0.31,-0.569 0.31,-0.575 0.31,-0.582C0.31,-0.593 0.307,-0.602 0.301,-0.608C0.295,-0.615 0.286,-0.618 0.275,-0.618C0.267,-0.618 0.254,-0.616 0.236,-0.612L0.229,-0.63L0.394,-0.676L0.417,-0.676Z" style="fill-rule:nonzero;"/>
            </g>
        </g>
        <g transform="matrix(0.704115,0,0,1,242.543,146.804)">
            <g transform="matrix(96,0,0,96,161.017,574.17)">
                <path d="M0.26,-0.563L0.222,-0.43L0.298,-0.43L0.29,-0.399L0.214,-0.399L0.13,-0.111C0.121,-0.08 0.116,-0.06 0.116,-0.051C0.116,-0.046 0.118,-0.042 0.12,-0.039C0.123,-0.036 0.126,-0.034 0.129,-0.034C0.138,-0.034 0.148,-0.04 0.162,-0.051C0.169,-0.058 0.187,-0.078 0.214,-0.111L0.23,-0.099C0.2,-0.056 0.172,-0.025 0.145,-0.007C0.127,0.006 0.108,0.012 0.09,0.012C0.076,0.012 0.064,0.007 0.055,-0.002C0.046,-0.011 0.041,-0.022 0.041,-0.036C0.041,-0.054 0.046,-0.081 0.057,-0.117L0.138,-0.399L0.064,-0.399L0.069,-0.418C0.105,-0.428 0.135,-0.443 0.159,-0.462C0.182,-0.482 0.209,-0.515 0.238,-0.563L0.26,-0.563Z" style="fill-rule:nonzero;"/>
            </g>
            <g transform="matrix(96,0,0,96,187.688,574.17)">
                <path d="M0.345,-0L0.016,-0L0.016,-0.018C0.184,-0.165 0.295,-0.281 0.349,-0.364C0.374,-0.403 0.386,-0.444 0.386,-0.486C0.386,-0.52 0.376,-0.548 0.355,-0.569C0.334,-0.59 0.307,-0.601 0.274,-0.601C0.228,-0.601 0.19,-0.579 0.161,-0.535L0.144,-0.543C0.16,-0.585 0.184,-0.618 0.216,-0.641C0.248,-0.664 0.283,-0.676 0.32,-0.676C0.362,-0.676 0.397,-0.661 0.426,-0.633C0.454,-0.604 0.469,-0.569 0.469,-0.528C0.469,-0.499 0.464,-0.473 0.454,-0.448C0.438,-0.41 0.409,-0.368 0.367,-0.32C0.303,-0.248 0.218,-0.165 0.112,-0.071L0.278,-0.071C0.305,-0.071 0.326,-0.076 0.344,-0.087C0.361,-0.098 0.373,-0.113 0.381,-0.132L0.4,-0.132L0.345,-0Z" style="fill-rule:nonzero;"/>
            </g>
        </g>
        <g transform="matrix(0.704115,0,0,1,471.933,146.804)">
            <g transform="matrix(96,0,0,96,161.017,574.17)">
                <path d="M0.26,-0.563L0.222,-0.43L0.298,-0.43L0.29,-0.399L0.214,-0.399L0.13,-0.111C0.121,-0.08 0.116,-0.06 0.116,-0.051C0.116,-0.046 0.118,-0.042 0.12,-0.039C0.123,-0.036 0.126,-0.034 0.129,-0.034C0.138,-0.034 0.148,-0.04 0.162,-0.051C0.169,-0.058 0.187,-0.078 0.214,-0.111L0.23,-0.099C0.2,-0.056 0.172,-0.025 0.145,-0.007C0.127,0.006 0.108,0.012 0.09,0.012C0.076,0.012 0.064,0.007 0.055,-0.002C0.046,-0.011 0.041,-0.022 0.041,-0.036C0.041,-0.054 0.046,-0.081 0.057,-0.117L0.138,-0.399L0.064,-0.399L0.069,-0.418C0.105,-0.428 0.135,-0.443 0.159,-0.462C0.182,-0.482 0.209,-0.515 0.238,-0.563L0.26,-0.563Z" style="fill-rule:nonzero;"/>
            </g>
            <g transform="matrix(96,0,0,96,187.688,574.17)">
                <path d="M0.153,-0.362L0.153,-0.376C0.232,-0.388 0.29,-0.411 0.329,-0.446C0.357,-0.471 0.371,-0.5 0.371,-0.535C0.371,-0.56 0.363,-0.582 0.347,-0.598C0.33,-0.615 0.311,-0.624 0.288,-0.624C0.251,-0.624 0.219,-0.601 0.19,-0.556L0.172,-0.561C0.189,-0.599 0.211,-0.627 0.238,-0.647C0.264,-0.666 0.293,-0.676 0.325,-0.676C0.363,-0.676 0.394,-0.664 0.418,-0.641C0.442,-0.618 0.454,-0.589 0.454,-0.554C0.454,-0.524 0.442,-0.495 0.42,-0.468C0.398,-0.44 0.36,-0.415 0.305,-0.394C0.339,-0.38 0.365,-0.359 0.382,-0.333C0.399,-0.307 0.408,-0.276 0.408,-0.239C0.408,-0.198 0.396,-0.157 0.373,-0.116C0.349,-0.076 0.317,-0.044 0.276,-0.022C0.235,0.001 0.192,0.012 0.147,0.012C0.106,0.012 0.075,0.005 0.054,-0.01C0.04,-0.02 0.033,-0.031 0.033,-0.044C0.033,-0.055 0.037,-0.065 0.046,-0.073C0.054,-0.081 0.064,-0.085 0.076,-0.085C0.085,-0.085 0.093,-0.084 0.102,-0.082C0.107,-0.08 0.12,-0.073 0.14,-0.062C0.16,-0.051 0.176,-0.043 0.188,-0.039C0.199,-0.036 0.211,-0.034 0.223,-0.034C0.252,-0.034 0.276,-0.051 0.295,-0.085C0.314,-0.119 0.324,-0.155 0.324,-0.193C0.324,-0.225 0.317,-0.252 0.304,-0.277C0.292,-0.301 0.271,-0.321 0.244,-0.336C0.216,-0.351 0.186,-0.36 0.153,-0.362Z" style="fill-rule:nonzero;"/>
            </g>
        </g>
        <g transform="matrix(0.704115,0,0,1,725.414,146.804)">
            <g transform="matrix(96,0,0,96,161.017,574.17)">
                <path d="M0.26,-0.563L0.222,-0.43L0.298,-0.43L0.29,-0.399L0.214,-0.399L0.13,-0.111C0.121,-0.08 0.116,-0.06 0.116,-0.051C0.116,-0.046 0.118,-0.042 0.12,-0.039C0.123,-0.036 0.126,-0.034 0.129,-0.034C0.138,-0.034 0.148,-0.04 0.162,-0.051C0.169,-0.058 0.187,-0.078 0.214,-0.111L0.23,-0.099C0.2,-0.056 0.172,-0.025 0.145,-0.007C0.127,0.006 0.108,0.012 0.09,0.012C0.076,0.012 0.064,0.007 0.055,-0.002C0.046,-0.011 0.041,-0.022 0.041,-0.036C0.041,-0.054 0.046,-0.081 0.057,-0.117L0.138,-0.399L0.064,-0.399L0.069,-0.418C0.105,-0.428 0.135,-0.443 0.159,-0.462C0.182,-0.482 0.209,-0.515 0.238,-0.563L0.26,-0.563Z" style="fill-rule:nonzero;"/>
            </g>
            <g transform="matrix(96,0,0,96,187.688,574.17)">
                <path d="M0.487,-0.662L0.36,-0.227L0.439,-0.227L0.422,-0.166L0.342,-0.166L0.291,0.012L0.219,0.012L0.271,-0.166L0.031,-0.166L0.052,-0.234L0.45,-0.662L0.487,-0.662ZM0.378,-0.536L0.094,-0.227L0.29,-0.227L0.378,-0.536Z" style="fill-rule:nonzero;"/>
            </g>
        </g>
        <g transform="matrix(0.704115,0,0,1,501.275,-340.637)">
            <g transform="matrix(96,0,0,96,161.017,574.17)">
                <path d="M0.297,-0.694L0.13,-0.113C0.122,-0.084 0.118,-0.067 0.118,-0.06C0.118,-0.055 0.12,-0.051 0.123,-0.048C0.126,-0.045 0.13,-0.043 0.134,-0.043C0.14,-0.043 0.147,-0.046 0.154,-0.051C0.171,-0.065 0.189,-0.085 0.208,-0.113L0.222,-0.098C0.191,-0.055 0.163,-0.024 0.137,-0.007C0.118,0.006 0.099,0.012 0.082,0.012C0.07,0.012 0.059,0.007 0.051,-0.001C0.043,-0.009 0.039,-0.019 0.039,-0.03C0.039,-0.042 0.044,-0.066 0.054,-0.103L0.187,-0.561C0.197,-0.598 0.203,-0.619 0.203,-0.625C0.203,-0.633 0.2,-0.639 0.193,-0.644C0.187,-0.649 0.178,-0.652 0.165,-0.652C0.157,-0.652 0.146,-0.651 0.13,-0.648L0.13,-0.667L0.297,-0.694Z" style="fill-rule:nonzero;"/>
            </g>
        </g>
        <g transform="matrix(0.704115,0,0,1,449.399,208.727)">
            <circle cx="249.118" cy="312.061" r="72.732" style="fill:rgb(115,115,115);"/>
        </g>
        <g transform="matrix(0.704115,0,0,1,497.059,-32.1715)">
            <g transform="matrix(96,0,0,96,161.017,574.17)">
                <path d="M0.052,-0.415L0.221,-0.442L0.15,-0.205C0.207,-0.302 0.259,-0.37 0.306,-0.409C0.332,-0.431 0.354,-0.442 0.37,-0.442C0.381,-0.442 0.389,-0.439 0.396,-0.432C0.402,-0.426 0.405,-0.417 0.405,-0.405C0.405,-0.383 0.399,-0.363 0.388,-0.343C0.38,-0.329 0.369,-0.321 0.354,-0.321C0.347,-0.321 0.341,-0.324 0.335,-0.329C0.33,-0.333 0.326,-0.341 0.325,-0.351C0.325,-0.357 0.323,-0.361 0.321,-0.363C0.318,-0.366 0.315,-0.367 0.312,-0.367C0.306,-0.367 0.301,-0.366 0.296,-0.363C0.287,-0.359 0.275,-0.346 0.257,-0.325C0.23,-0.293 0.201,-0.252 0.169,-0.201C0.156,-0.18 0.144,-0.155 0.134,-0.128C0.121,-0.091 0.113,-0.069 0.111,-0.062L0.095,-0L0.021,-0L0.111,-0.303C0.121,-0.338 0.126,-0.363 0.126,-0.378C0.126,-0.384 0.124,-0.389 0.119,-0.393C0.113,-0.398 0.104,-0.401 0.093,-0.401C0.086,-0.401 0.074,-0.399 0.056,-0.396L0.052,-0.415Z" style="fill:white;fill-rule:nonzero;"/>
            </g>
        </g>
        <g transform="matrix(0.704115,0,0,1,-26.8093,-111.294)">
            <circle cx="249.118" cy="312.061" r="72.732" style="fill:rgb(115,115,115);"/>
        </g>
        <g transform="matrix(0.704115,0,0,1,25.1908,-350.434)">
            <g transform="matrix(96,0,0,96,161.017,574.17)">
                <path d="M0.296,-0.43L0.288,-0.398L0.216,-0.398L0.163,-0.185C0.139,-0.09 0.115,-0.018 0.091,0.034C0.057,0.106 0.02,0.156 -0.02,0.184C-0.049,0.205 -0.079,0.216 -0.109,0.216C-0.129,0.216 -0.146,0.21 -0.159,0.198C-0.169,0.19 -0.174,0.18 -0.174,0.167C-0.174,0.156 -0.17,0.147 -0.162,0.139C-0.154,0.132 -0.143,0.128 -0.131,0.128C-0.123,0.128 -0.115,0.131 -0.109,0.136C-0.103,0.142 -0.1,0.148 -0.1,0.155C-0.1,0.162 -0.104,0.169 -0.11,0.175C-0.116,0.18 -0.118,0.183 -0.118,0.186C-0.118,0.188 -0.117,0.191 -0.115,0.192C-0.112,0.195 -0.107,0.196 -0.101,0.196C-0.087,0.196 -0.072,0.191 -0.057,0.183C-0.041,0.174 -0.028,0.161 -0.016,0.143C-0.004,0.126 0.008,0.101 0.019,0.068C0.023,0.054 0.035,0.009 0.055,-0.067L0.14,-0.398L0.055,-0.398L0.062,-0.43C0.089,-0.43 0.108,-0.432 0.119,-0.436C0.129,-0.44 0.139,-0.447 0.148,-0.457C0.157,-0.468 0.169,-0.488 0.183,-0.517C0.202,-0.556 0.221,-0.586 0.238,-0.607C0.262,-0.636 0.288,-0.658 0.314,-0.673C0.341,-0.687 0.366,-0.694 0.389,-0.694C0.414,-0.694 0.434,-0.688 0.449,-0.676C0.464,-0.663 0.471,-0.649 0.471,-0.635C0.471,-0.623 0.467,-0.614 0.46,-0.606C0.452,-0.598 0.443,-0.594 0.431,-0.594C0.421,-0.594 0.413,-0.597 0.406,-0.603C0.4,-0.609 0.397,-0.616 0.397,-0.624C0.397,-0.629 0.399,-0.636 0.403,-0.643C0.408,-0.651 0.41,-0.656 0.41,-0.659C0.41,-0.663 0.408,-0.667 0.405,-0.669C0.401,-0.672 0.395,-0.674 0.387,-0.674C0.366,-0.674 0.348,-0.667 0.332,-0.654C0.31,-0.637 0.29,-0.61 0.273,-0.573C0.264,-0.554 0.248,-0.506 0.225,-0.43L0.296,-0.43Z" style="fill:white;fill-rule:nonzero;"/>
            </g>
        </g>
        <g transform="matrix(0.704115,0,0,1,-26.8093,208.727)">
            <circle cx="249.118" cy="312.061" r="72.732" style="fill:rgb(115,115,115);"/>
        </g>
        <g transform="matrix(0.704115,0,0,1,20.8671,-42.4372)">
            <g transform="matrix(96,0,0,96,161.017,574.17)">
                <path d="M0.221,-0.442L0.188,-0.33C0.223,-0.371 0.255,-0.4 0.282,-0.417C0.31,-0.434 0.339,-0.442 0.368,-0.442C0.397,-0.442 0.421,-0.43 0.442,-0.407C0.462,-0.385 0.473,-0.355 0.473,-0.318C0.473,-0.246 0.444,-0.173 0.385,-0.099C0.327,-0.025 0.259,0.012 0.182,0.012C0.165,0.012 0.151,0.01 0.138,0.006C0.126,0.003 0.112,-0.004 0.096,-0.013L0.061,0.113C0.053,0.138 0.05,0.154 0.05,0.162C0.05,0.169 0.052,0.175 0.055,0.18C0.059,0.185 0.065,0.189 0.074,0.192C0.082,0.194 0.099,0.196 0.124,0.196L0.12,0.214L-0.11,0.214L-0.105,0.196C-0.075,0.194 -0.055,0.189 -0.044,0.18C-0.034,0.171 -0.022,0.146 -0.011,0.104L0.113,-0.323C0.12,-0.35 0.124,-0.367 0.124,-0.374C0.124,-0.382 0.122,-0.389 0.116,-0.394C0.111,-0.399 0.104,-0.401 0.093,-0.401C0.084,-0.401 0.071,-0.4 0.054,-0.398L0.054,-0.417L0.221,-0.442ZM0.107,-0.051C0.128,-0.027 0.155,-0.015 0.189,-0.015C0.206,-0.015 0.223,-0.02 0.241,-0.029C0.258,-0.039 0.275,-0.053 0.292,-0.071C0.309,-0.09 0.324,-0.111 0.337,-0.135C0.351,-0.16 0.363,-0.188 0.373,-0.221C0.384,-0.254 0.389,-0.287 0.389,-0.319C0.389,-0.345 0.383,-0.365 0.371,-0.379C0.359,-0.392 0.346,-0.399 0.33,-0.399C0.294,-0.399 0.26,-0.379 0.225,-0.339C0.191,-0.299 0.166,-0.251 0.15,-0.197L0.107,-0.051Z" style="fill:white;fill-rule:nonzero;"/>
            </g>
        </g>
        <g transform="matrix(0.704115,0,0,1,687.987,47.8933)">
            <circle cx="249.118" cy="312.061" r="72.732" style="fill:rgb(115,115,115);"/>
        </g>
        <g transform="matrix(0.704115,0,0,1,734.426,-193.568)">
            <g transform="matrix(96,0,0,96,161.017,574.17)">
                <path d="M0.119,-0.184C0.117,-0.168 0.116,-0.154 0.116,-0.144C0.116,-0.115 0.126,-0.09 0.146,-0.07C0.167,-0.049 0.192,-0.039 0.221,-0.039C0.245,-0.039 0.267,-0.044 0.289,-0.053C0.31,-0.063 0.343,-0.084 0.385,-0.117L0.396,-0.103C0.318,-0.027 0.245,0.012 0.175,0.012C0.127,0.012 0.091,-0.003 0.067,-0.033C0.043,-0.063 0.031,-0.096 0.031,-0.132C0.031,-0.181 0.046,-0.23 0.076,-0.281C0.106,-0.332 0.144,-0.372 0.189,-0.4C0.234,-0.428 0.281,-0.442 0.329,-0.442C0.363,-0.442 0.389,-0.435 0.405,-0.421C0.422,-0.407 0.43,-0.39 0.43,-0.371C0.43,-0.344 0.419,-0.318 0.398,-0.293C0.37,-0.261 0.328,-0.235 0.273,-0.215C0.236,-0.202 0.185,-0.192 0.119,-0.184ZM0.123,-0.208C0.171,-0.214 0.21,-0.223 0.24,-0.236C0.28,-0.254 0.31,-0.276 0.33,-0.301C0.35,-0.325 0.36,-0.349 0.36,-0.372C0.36,-0.385 0.356,-0.396 0.347,-0.405C0.339,-0.413 0.326,-0.417 0.311,-0.417C0.277,-0.417 0.242,-0.4 0.205,-0.365C0.168,-0.329 0.14,-0.277 0.123,-0.208Z" style="fill:white;fill-rule:nonzero;"/>
            </g>
        </g>
        <g transform="matrix(0.704115,0,0,1,210.81,47.8933)">
            <circle cx="249.118" cy="312.061" r="72.732" style="fill:rgb(115,115,115);"/>
        </g>
        <g transform="matrix(0.24776,-0.609464,0.429133,0.351874,73.6323,483.942)">
            <path d="M500.908,495.346C489.178,503.565 478.521,513.624 471.345,526.105C464.215,513.624 453.696,503.565 441.966,495.346L446.98,488.047C454.601,493.353 461.317,499.931 467.404,507.061L467.404,388.732L475.332,388.732L475.332,506.923C481.266,499.762 488.12,493.353 495.741,488.047L500.908,495.346Z" style="fill:white;fill-rule:nonzero;"/>
        </g>
        <g transform="matrix(0.704115,0,0,1,260.896,-83.6925)">
            <g transform="matrix(96,0,0,96,161.017,574.17)">
                <path d="M0.363,-0.442L0.333,-0.292L0.315,-0.292C0.313,-0.336 0.304,-0.367 0.287,-0.387C0.27,-0.407 0.249,-0.417 0.224,-0.417C0.204,-0.417 0.188,-0.411 0.176,-0.4C0.164,-0.389 0.158,-0.376 0.158,-0.36C0.158,-0.35 0.161,-0.339 0.165,-0.33C0.17,-0.32 0.18,-0.306 0.196,-0.289C0.239,-0.242 0.266,-0.208 0.278,-0.184C0.291,-0.161 0.297,-0.139 0.297,-0.118C0.297,-0.084 0.283,-0.054 0.255,-0.028C0.226,-0.001 0.191,0.012 0.148,0.012C0.125,0.012 0.097,0.006 0.067,-0.005C0.056,-0.009 0.048,-0.011 0.042,-0.011C0.027,-0.011 0.016,-0.003 0.009,0.012L-0.009,0.012L0.021,-0.146L0.039,-0.146C0.041,-0.097 0.051,-0.062 0.069,-0.042C0.088,-0.021 0.113,-0.011 0.146,-0.011C0.17,-0.011 0.19,-0.018 0.204,-0.031C0.219,-0.045 0.226,-0.062 0.226,-0.083C0.226,-0.096 0.223,-0.108 0.218,-0.119C0.209,-0.138 0.19,-0.165 0.161,-0.2C0.132,-0.234 0.113,-0.26 0.105,-0.277C0.096,-0.295 0.092,-0.312 0.092,-0.329C0.092,-0.361 0.104,-0.387 0.127,-0.409C0.15,-0.431 0.179,-0.442 0.215,-0.442C0.226,-0.442 0.235,-0.441 0.244,-0.439C0.248,-0.438 0.259,-0.435 0.276,-0.428C0.292,-0.422 0.304,-0.419 0.309,-0.419C0.323,-0.419 0.335,-0.427 0.344,-0.442L0.363,-0.442Z" style="fill-rule:nonzero;"/>
            </g>
        </g>
    </g>
</svg>
