<?xml version="1.0" encoding="UTF-8" standalone="no"?>
<!-- Generator: Adobe Illustrator 16.0.0, SVG Export Plug-In . SVG Version: 6.00 Build 0)  -->

<svg
   xmlns:dc="http://purl.org/dc/elements/1.1/"
   xmlns:cc="http://creativecommons.org/ns#"
   xmlns:rdf="http://www.w3.org/1999/02/22-rdf-syntax-ns#"
   xmlns:svg="http://www.w3.org/2000/svg"
   xmlns="http://www.w3.org/2000/svg"
   xmlns:xlink="http://www.w3.org/1999/xlink"
   xmlns:sodipodi="http://sodipodi.sourceforge.net/DTD/sodipodi-0.dtd"
   xmlns:inkscape="http://www.inkscape.org/namespaces/inkscape"
   version="1.1"
   id="Layer_1"
   x="0px"
   y="0px"
   width="579.93903"
   height="447.1506"
   viewBox="0 0 579.93903 447.1506"
   enable-background="new 0 0 612 792"
   xml:space="preserve"
   inkscape:version="0.91 r13725"
   sodipodi:docname="tachyon.svg"><metadata
     id="metadata211"><rdf:RDF><cc:Work
         rdf:about=""><dc:format>image/svg+xml</dc:format><dc:type
           rdf:resource="http://purl.org/dc/dcmitype/StillImage" /><dc:title></dc:title></cc:Work></rdf:RDF></metadata><defs
     id="defs209" /><sodipodi:namedview
     pagecolor="#ffffff"
     bordercolor="#666666"
     borderopacity="1"
     objecttolerance="10"
     gridtolerance="10"
     guidetolerance="10"
     inkscape:pageopacity="0"
     inkscape:pageshadow="2"
     inkscape:window-width="1382"
     inkscape:window-height="843"
     id="namedview207"
     showgrid="false"
     fit-margin-top="0"
     fit-margin-left="0"
     fit-margin-right="0"
     fit-margin-bottom="0"
     inkscape:zoom="0.80934343"
     inkscape:cx="303.165"
     inkscape:cy="329.69325"
     inkscape:window-x="0"
     inkscape:window-y="0"
     inkscape:window-maximized="0"
     inkscape:current-layer="Layer_1" /><g
     id="g3"
     inkscape:export-xdpi="200"
     inkscape:export-ydpi="200"
     transform="translate(-2.835,-278.54263)"><path
       stroke-miterlimit="10"
       d="m 67.293,382.787 c -0.375,-33.706 1.125,-59.21 0.727,-80.287 m 0.001,108 c -0.409,-9.823 -0.404,-6.539 -0.5,-15.213"
       id="path5"
       inkscape:connector-curvature="0"
       style="fill:none;stroke:#000000;stroke-width:1.5;stroke-linecap:round;stroke-linejoin:round;stroke-miterlimit:10" /><path
       stroke-miterlimit="10"
       d="m 11.442,320.225 c 2.652,-2.74 2.74,-5.48 2.74,-5.48 0,0 -0.044,2.74 2.785,5.48 m -2.64,-2.885 c -0.289,9.519 0,15.289 0,18.173"
       id="path7"
       inkscape:connector-curvature="0"
       style="fill:none;stroke:#000000;stroke-width:1.5;stroke-linecap:round;stroke-linejoin:round;stroke-miterlimit:10" /><path
       d="m 7.237,344.157 c -0.084,0 -0.18,0 -0.288,-0.012 -0.108,-0.012 -0.204,-0.012 -0.288,-0.012 -0.096,0 -0.36,0.024 -0.803,0.084 l 0.108,3.466 0,0.252 0,0.3 c 0.012,0.864 -0.192,1.283 -0.624,1.283 -0.156,0 -0.288,-0.048 -0.408,-0.156 -0.12,-0.108 -0.18,-0.228 -0.18,-0.384 0,-0.144 0,-0.36 0.012,-0.66 0.012,-0.3 0.012,-0.516 0.012,-0.66 l -0.12,-3.418 c -0.288,-0.012 -0.719,-0.048 -1.307,-0.108 -0.348,-0.048 -0.516,-0.24 -0.516,-0.588 0,-0.168 0.048,-0.312 0.156,-0.432 0.108,-0.12 0.24,-0.18 0.408,-0.18 l 1.235,0.096 c 0,-0.204 -0.012,-0.468 -0.024,-0.804 -0.012,-0.335 -0.024,-0.575 -0.024,-0.719 0,-0.168 0.06,-0.3 0.18,-0.408 0.12,-0.108 0.252,-0.156 0.42,-0.156 0.36,0 0.563,0.288 0.624,0.864 0.012,0.144 0.012,0.312 0.012,0.516 l -0.012,0.336 0,0.36 c 0.492,-0.06 0.768,-0.096 0.84,-0.096 0.408,0 0.671,0.024 0.792,0.06 0.24,0.084 0.36,0.264 0.36,0.552 0,0.168 -0.048,0.312 -0.156,0.42 -0.108,0.108 -0.24,0.167 -0.408,0.167 l 0,0.037 z m 2.846,-2.423 c -0.192,0 -0.348,-0.06 -0.48,-0.192 -0.132,-0.132 -0.204,-0.288 -0.204,-0.479 0,-0.191 0.072,-0.348 0.204,-0.48 0.132,-0.132 0.288,-0.192 0.48,-0.192 0.192,0 0.348,0.06 0.479,0.192 0.132,0.132 0.204,0.288 0.204,0.48 0,0.192 -0.072,0.348 -0.204,0.479 -0.131,0.132 -0.287,0.192 -0.479,0.192 l 0,0 z m 0.264,4.749 c 0,0.24 0.012,0.588 0.024,1.056 0.012,0.468 0.024,0.815 0.024,1.055 0,0.168 -0.048,0.312 -0.156,0.42 -0.108,0.108 -0.24,0.156 -0.408,0.156 -0.168,0 -0.3,-0.048 -0.408,-0.156 -0.108,-0.108 -0.156,-0.252 -0.156,-0.42 0,-0.24 -0.012,-0.587 -0.024,-1.055 -0.012,-0.468 -0.024,-0.816 -0.024,-1.056 0,-0.372 0.024,-0.828 0.06,-1.379 0.036,-0.552 0.06,-1.008 0.06,-1.379 0,-0.18 0.048,-0.324 0.156,-0.432 0.108,-0.108 0.24,-0.156 0.408,-0.156 0.168,0 0.3,0.048 0.408,0.156 0.108,0.108 0.156,0.251 0.156,0.432 0,0.372 -0.024,0.828 -0.06,1.379 -0.036,0.552 -0.06,1.008 -0.06,1.379 l 0,0 z m 9.416,3.155 c -0.324,0 -0.503,-0.168 -0.563,-0.516 -0.072,-0.432 -0.144,-1.031 -0.216,-1.823 l -0.204,-1.811 c -0.036,-0.276 -0.096,-0.54 -0.192,-0.804 -0.132,-0.36 -0.276,-0.528 -0.432,-0.528 -0.144,0 -0.408,0.12 -0.804,0.372 -0.372,0.228 -0.611,0.408 -0.731,0.54 0,0.372 0.012,0.731 0.036,1.104 l 0.18,1.559 c 0.072,0.624 0.108,1.127 0.108,1.535 0,0.168 -0.048,0.312 -0.156,0.419 -0.108,0.107 -0.24,0.168 -0.408,0.168 -0.168,0 -0.3,-0.06 -0.408,-0.168 -0.108,-0.108 -0.156,-0.251 -0.156,-0.419 0,-0.48 -0.048,-1.164 -0.144,-2.099 -0.096,-0.936 -0.144,-1.619 -0.144,-2.099 0,-0.42 -0.06,-0.731 -0.18,-0.959 -0.276,0.12 -0.552,0.324 -0.839,0.612 l -0.696,0.768 c -0.06,0.096 -0.156,0.216 -0.288,0.372 0,0.24 -0.024,0.576 -0.072,1.031 -0.048,0.456 -0.072,0.792 -0.072,1.008 0,0.12 0.024,0.276 0.06,0.492 0.036,0.216 0.06,0.359 0.06,0.456 0,0.156 -0.06,0.288 -0.18,0.396 -0.12,0.108 -0.251,0.156 -0.408,0.156 -0.444,0 -0.66,-0.492 -0.66,-1.499 0,-0.24 0.024,-0.588 0.072,-1.056 0.048,-0.468 0.072,-0.815 0.072,-1.055 0,-0.204 -0.024,-0.504 -0.06,-0.924 -0.036,-0.419 -0.06,-0.731 -0.06,-0.947 0,-0.888 0.192,-1.319 0.588,-1.319 0.156,0 0.288,0.06 0.42,0.192 0.132,0.132 0.192,0.276 0.192,0.432 0,0.072 -0.012,0.18 -0.036,0.336 -0.024,0.156 -0.036,0.276 -0.036,0.36 l 0.012,0.611 c 0.204,-0.419 0.503,-0.792 0.899,-1.127 0.396,-0.336 0.731,-0.504 1.007,-0.504 0.624,0 1.043,0.3 1.271,0.912 0.216,-0.288 0.468,-0.504 0.768,-0.648 0.3,-0.144 0.636,-0.216 1.02,-0.216 0.66,0 1.103,0.348 1.343,1.056 0.048,0.144 0.132,0.684 0.252,1.643 0.108,0.671 0.251,1.775 0.419,3.358 0.012,0.156 -0.036,0.288 -0.156,0.396 -0.12,0.108 -0.264,0.156 -0.432,0.156 l -0.046,0.081 z"
       id="path9"
       inkscape:connector-curvature="0" /><path
       d="m 24.389,349.41 c -0.888,0 -1.595,-0.216 -2.147,-0.66 -0.6,-0.492 -0.899,-1.163 -0.899,-2.051 0,-1.02 0.24,-1.859 0.731,-2.555 0.54,-0.755 1.248,-1.127 2.147,-1.127 0.647,0 1.163,0.108 1.571,0.324 0.504,0.276 0.756,0.684 0.756,1.247 0,0.396 -0.216,0.744 -0.66,1.067 -0.192,0.144 -0.6,0.36 -1.235,0.66 l -2.243,1.056 c 0.216,0.324 0.479,0.563 0.803,0.731 0.324,0.168 0.696,0.252 1.127,0.252 0.276,0 0.588,-0.048 0.959,-0.156 0.468,-0.132 0.756,-0.3 0.888,-0.516 0.132,-0.216 0.276,-0.324 0.432,-0.324 0.132,0 0.252,0.048 0.36,0.156 0.108,0.108 0.156,0.228 0.156,0.359 0,0.432 -0.348,0.804 -1.055,1.116 -0.6,0.264 -1.175,0.396 -1.751,0.396 l 0.06,0.025 z m -0.217,-5.361 c -0.479,0 -0.875,0.18 -1.199,0.552 -0.324,0.372 -0.552,0.923 -0.708,1.667 l 1.799,-0.852 c 0.708,-0.348 1.2,-0.647 1.5,-0.899 -0.336,-0.312 -0.804,-0.468 -1.416,-0.468 l 0.024,0 z"
       id="path11"
       inkscape:connector-curvature="0" /><g
       id="g13"><defs
         id="defs15"><rect
           id="SVGID_1_"
           x="2.5"
           y="275"
           width="234.96001"
           height="189.36" /></defs><clipPath
         id="SVGID_2_"><use
           xlink:href="#SVGID_1_"
           overflow="visible"
           id="use19"
           style="overflow:visible"
           x="0"
           y="0"
           width="100%"
           height="100%" /></clipPath><path
         clip-path="url(#SVGID_2_)"
         stroke-miterlimit="10"
         d="m 25.296,426.315 c 2.74,2.651 4.26,2.665 4.26,2.665 0,0 -4.52,0.006 -7.26,2.835 m 4.664,-2.69 c -9.52,-0.289 -15.289,0 -18.173,0 m 5.062,-12.61 c 3.759,-0.644 7.203,-4.358 7.203,-4.358 0,0 -0.741,0.977 -0.078,4.858 m -1.34,-2.679 c -5.857,7.51 -9.034,12.334 -10.738,14.661"
         id="path21"
         inkscape:connector-curvature="0"
         style="fill:none;stroke:#000000;stroke-width:1.5;stroke-linecap:round;stroke-linejoin:round;stroke-miterlimit:10" /></g><path
       d="m 7.692,438.122 c -0.216,0 -0.36,-0.072 -0.444,-0.216 -0.06,-0.107 -0.108,-0.312 -0.156,-0.636 -0.3,0.072 -0.744,0.204 -1.355,0.408 -0.635,0.252 -0.947,0.552 -0.947,0.923 0.12,0.049 0.228,0.084 0.348,0.108 0.899,0.156 1.559,0.372 2.003,0.659 0.636,0.408 0.948,0.996 0.948,1.775 0,0.636 -0.276,1.104 -0.828,1.428 -0.456,0.264 -1.02,0.396 -1.727,0.396 -0.516,0 -0.996,-0.084 -1.463,-0.252 -0.611,-0.216 -0.912,-0.516 -0.912,-0.911 0,-0.156 0.06,-0.288 0.18,-0.408 0.12,-0.12 0.252,-0.18 0.408,-0.18 0.12,0 0.276,0.096 0.468,0.287 0.096,0.097 0.3,0.168 0.636,0.229 0.264,0.048 0.479,0.072 0.66,0.072 0.335,0 0.624,-0.036 0.875,-0.12 0.372,-0.12 0.552,-0.3 0.552,-0.552 0,-0.54 -0.36,-0.888 -1.104,-1.08 L 5.222,439.92 c -0.528,-0.119 -0.887,-0.252 -1.104,-0.407 -0.324,-0.216 -0.479,-0.54 -0.479,-0.983 0,-0.828 0.384,-1.403 1.163,-1.751 0.24,-0.108 0.612,-0.229 1.127,-0.372 0.516,-0.144 0.875,-0.264 1.104,-0.372 0.156,-0.071 0.324,-0.107 0.516,-0.107 0.168,0 0.3,0.048 0.408,0.155 0.108,0.108 0.156,0.252 0.156,0.432 0,0.12 0.024,0.288 0.072,0.504 0.048,0.216 0.072,0.384 0.072,0.504 0,0.18 -0.048,0.324 -0.156,0.432 -0.108,0.108 -0.24,0.156 -0.408,0.156 l 0,0.011 z m 4.381,4.714 c -0.396,0 -0.815,-0.061 -1.283,-0.181 l -0.012,2.795 c 0,0.168 -0.048,0.312 -0.156,0.42 -0.108,0.107 -0.24,0.155 -0.408,0.155 -0.168,0 -0.3,-0.048 -0.408,-0.155 -0.108,-0.108 -0.156,-0.252 -0.156,-0.42 l 0.012,-2.339 0,-2.339 C 9.65,439.909 9.626,439.141 9.578,438.433 l -0.084,-1.187 c 0,-0.276 0.048,-0.504 0.156,-0.696 0.12,-0.228 0.288,-0.336 0.516,-0.336 0.156,0 0.276,0.049 0.384,0.156 0.108,0.108 0.156,0.24 0.156,0.396 0,0.036 0,0.097 -0.012,0.192 -0.024,0.12 -0.036,0.228 -0.048,0.336 0.336,-0.229 0.66,-0.396 0.972,-0.516 0.312,-0.12 0.611,-0.181 0.899,-0.181 0.803,0 1.379,0.349 1.751,1.067 0.3,0.564 0.444,1.296 0.444,2.231 0,0.852 -0.228,1.535 -0.684,2.087 -0.48,0.588 -1.116,0.875 -1.919,0.875 l -0.036,-0.021 z m 0.444,-5.05 c -0.36,0 -0.684,0.084 -0.972,0.24 -0.204,0.12 -0.456,0.323 -0.779,0.624 0.048,0.887 0.072,1.799 0.072,2.782 0.432,0.168 0.852,0.252 1.283,0.252 0.492,0 0.864,-0.181 1.127,-0.552 0.228,-0.324 0.336,-0.731 0.336,-1.235 0,-0.72 -0.084,-1.247 -0.264,-1.607 -0.18,-0.359 -0.443,-0.527 -0.803,-0.527 l 0,0.023 z m 8.063,5.23 c -0.072,0 -0.204,-0.084 -0.396,-0.252 -0.18,-0.156 -0.312,-0.3 -0.396,-0.42 -0.372,0.204 -0.696,0.36 -0.984,0.468 -0.288,0.108 -0.527,0.156 -0.719,0.156 -0.924,0 -1.583,-0.252 -2.003,-0.768 -0.396,-0.492 -0.588,-1.224 -0.588,-2.231 0,-0.947 0.324,-1.738 0.983,-2.41 0.659,-0.672 1.427,-1.008 2.339,-1.008 0.348,0 0.72,0.084 1.139,0.264 0.54,0.217 0.804,0.48 0.804,0.792 0,0.108 -0.036,0.204 -0.12,0.288 -0.036,0.144 -0.06,0.384 -0.083,0.731 -0.024,0.348 -0.036,0.779 -0.036,1.319 0,0.491 0.036,0.863 0.108,1.151 0.036,0.168 0.156,0.504 0.36,1.02 0.024,0.071 0.072,0.168 0.132,0.3 l 0.036,0.096 c 0,0.156 -0.048,0.288 -0.156,0.396 -0.108,0.108 -0.228,0.156 -0.372,0.156 l -0.048,-0.048 z m -1.175,-4.018 c 0,-0.168 0.012,-0.348 0.036,-0.552 0.024,-0.204 0.06,-0.408 0.108,-0.636 -0.144,-0.072 -0.264,-0.12 -0.372,-0.156 -0.108,-0.036 -0.192,-0.048 -0.252,-0.048 -0.612,0 -1.127,0.24 -1.571,0.743 -0.443,0.504 -0.66,1.068 -0.66,1.716 0,0.648 0.108,1.115 0.336,1.438 0.228,0.324 0.564,0.48 1.02,0.48 0.372,0 0.684,-0.072 0.947,-0.204 0.144,-0.072 0.336,-0.216 0.588,-0.443 -0.12,-1.044 -0.18,-1.812 -0.18,-2.327 l 0,-0.011 z m 5.4,4.006 c -0.803,0 -1.463,-0.24 -2.003,-0.732 -0.563,-0.516 -0.839,-1.175 -0.839,-2.015 0,-0.804 0.264,-1.606 0.792,-2.458 0.588,-0.948 1.235,-1.403 1.979,-1.403 0.384,0 0.804,0.084 1.283,0.264 0.6,0.228 0.899,0.504 0.899,0.84 0,0.144 -0.048,0.275 -0.144,0.396 -0.096,0.12 -0.216,0.18 -0.36,0.18 -0.12,0 -0.216,-0.036 -0.3,-0.107 -0.084,-0.072 -0.168,-0.145 -0.252,-0.217 -0.228,-0.18 -0.6,-0.275 -1.127,-0.275 -0.396,0 -0.78,0.348 -1.175,1.067 -0.36,0.659 -0.54,1.211 -0.54,1.691 0,0.516 0.167,0.911 0.527,1.211 0.336,0.276 0.756,0.408 1.271,0.408 0.24,0 0.492,-0.061 0.755,-0.181 l 0.684,-0.359 c 0.12,-0.06 0.204,-0.096 0.252,-0.096 0.144,0 0.264,0.06 0.372,0.18 0.108,0.12 0.156,0.252 0.156,0.396 0,0.288 -0.3,0.563 -0.912,0.828 -0.527,0.239 -0.959,0.359 -1.307,0.359 l -0.011,0.023 z"
       id="path23"
       inkscape:connector-curvature="0" /><path
       d="m 31.042,442.896 c -0.887,0 -1.595,-0.216 -2.146,-0.659 -0.6,-0.492 -0.9,-1.164 -0.9,-2.051 0,-1.02 0.24,-1.859 0.732,-2.555 0.54,-0.756 1.247,-1.128 2.147,-1.128 0.647,0 1.163,0.108 1.571,0.324 0.504,0.275 0.756,0.684 0.756,1.247 0,0.396 -0.216,0.743 -0.66,1.067 -0.192,0.144 -0.6,0.36 -1.235,0.66 l -2.243,1.055 c 0.216,0.324 0.479,0.563 0.803,0.731 0.324,0.168 0.696,0.252 1.127,0.252 0.276,0 0.588,-0.048 0.959,-0.155 0.468,-0.132 0.756,-0.3 0.888,-0.516 0.132,-0.216 0.276,-0.324 0.432,-0.324 0.132,0 0.252,0.048 0.36,0.156 0.108,0.107 0.156,0.228 0.156,0.359 0,0.432 -0.348,0.804 -1.055,1.115 -0.6,0.264 -1.175,0.396 -1.751,0.396 l 0.059,0.026 z m -0.215,-5.362 c -0.479,0 -0.875,0.181 -1.199,0.552 -0.324,0.372 -0.552,0.924 -0.708,1.667 l 1.799,-0.852 c 0.708,-0.348 1.199,-0.647 1.499,-0.899 -0.335,-0.312 -0.803,-0.468 -1.415,-0.468 l 0.024,0 z"
       id="path25"
       inkscape:connector-curvature="0" /><path
       stroke-miterlimit="10"
       d="m 74.271,401.75 c 6,-0.092 3.821,-0.1 13.741,-0.131 m 33.162,0 c 27.618,0.089 51.287,-0.607 90.847,-0.119 -3.359,6.821 -6.666,12.739 -9,18 -61.713,0.656 -127.5,-0.04 -171.5,1 7.278,-8.523 12.847,-12.005 18.5,-18.5 6.86,-0.021 7.979,0.127 12.622,0.056"
       id="path27"
       inkscape:connector-curvature="0"
       style="fill:none;stroke:#000000;stroke-width:1.5;stroke-linecap:round;stroke-linejoin:round;stroke-miterlimit:10" /><g
       id="g29"><defs
         id="defs31"><rect
           id="SVGID_3_"
           x="2.5"
           y="275"
           width="234.96001"
           height="189.36" /></defs><clipPath
         id="SVGID_4_"><use
           xlink:href="#SVGID_3_"
           overflow="visible"
           id="use35"
           style="overflow:visible"
           x="0"
           y="0"
           width="100%"
           height="100%" /></clipPath><path
         clip-path="url(#SVGID_4_)"
         stroke-miterlimit="10"
         d="m 175.146,382.489 3.132,-2.331 4.392,1.854 3.131,-2.332 3.131,-2.331 4.393,1.854 3.131,-2.331 3.131,-2.331 4.392,1.854 3.132,-2.332 3.131,-2.331 4.392,1.854 3.131,-2.331 3.131,-2.331 4.393,1.854 3.131,-2.332 m -159.813,42.134 3.131,-2.332 4.392,1.854 3.131,-2.331 3.131,-2.331 4.392,1.854 3.131,-2.331 3.131,-2.331 4.392,1.853 3.131,-2.331 3.131,-2.331 4.392,1.854 3.131,-2.331 3.131,-2.331 4.392,1.853 3.131,-2.331 3.131,-2.331 4.393,1.854 3.131,-2.331 m -66.74,13.98 -2.638,-0.628 1.445,2.072 -8.165,0.377 7.286,2.072 -2.135,1.382 3.643,-0.125 2.512,2.638 1.445,-1.885 2.324,1.57 -0.879,-3.266 m 155.398,-47.152 6.531,3.517 -10.3,6.281 M 67.927,423.254 c -0.753,13.063 0.251,34.167 0.251,40.448 m 141.843,-86.415 c -3.359,6.822 -4.666,9.202 -7,14.463 -61.713,0.656 -127.5,-0.04 -171.5,1 7.278,-8.523 12.847,-12.005 18.5,-18.5 6.86,-0.021 7.979,0.127 12.622,0.056 m 9.628,-0.519 c 27.617,0.089 78.94,-0.737 118.5,-0.25"
         id="path37"
         inkscape:connector-curvature="0"
         style="fill:none;stroke:#000000;stroke-width:1.5;stroke-linecap:round;stroke-linejoin:round;stroke-miterlimit:10" /></g><path
       d="m 211.323,383.632 -0.084,2.915 c 0,0.312 -0.012,0.755 -0.048,1.354 -0.036,0.396 -0.229,0.588 -0.576,0.588 -0.384,0 -0.575,-0.191 -0.575,-0.588 0,-0.479 0.023,-1.175 0.071,-2.135 0.049,-0.959 0.072,-1.655 0.072,-2.135 0,-0.623 0.012,-1.319 0.036,-2.123 0.023,-0.803 0.036,-1.499 0.036,-2.122 0,-0.396 0.191,-0.588 0.575,-0.588 0.384,0 0.576,0.191 0.576,0.588 0,0.623 -0.013,1.319 -0.036,2.122 -0.024,0.804 -0.036,1.5 -0.036,2.123 l -0.011,0 z m 6.37,4.989 c -0.072,0 -0.204,-0.084 -0.396,-0.252 -0.181,-0.155 -0.312,-0.3 -0.396,-0.42 -0.371,0.204 -0.695,0.36 -0.983,0.468 -0.288,0.108 -0.527,0.156 -0.72,0.156 -0.923,0 -1.583,-0.252 -2.003,-0.768 -0.396,-0.491 -0.587,-1.224 -0.587,-2.23 0,-0.947 0.323,-1.739 0.983,-2.411 0.659,-0.672 1.427,-1.007 2.338,-1.007 0.349,0 0.72,0.084 1.14,0.264 0.54,0.216 0.804,0.479 0.804,0.791 0,0.108 -0.036,0.204 -0.12,0.288 -0.036,0.144 -0.06,0.384 -0.084,0.731 -0.023,0.348 -0.036,0.78 -0.036,1.319 0,0.492 0.036,0.863 0.108,1.151 0.036,0.168 0.156,0.504 0.359,1.02 0.024,0.072 0.072,0.168 0.132,0.3 l 0.036,0.096 c 0,0.156 -0.048,0.288 -0.155,0.396 -0.108,0.107 -0.229,0.155 -0.372,0.155 l -0.048,-0.047 z m -1.175,-4.017 c 0,-0.168 0.013,-0.348 0.036,-0.552 0.024,-0.204 0.06,-0.408 0.108,-0.636 -0.145,-0.072 -0.265,-0.12 -0.372,-0.156 -0.108,-0.035 -0.192,-0.048 -0.252,-0.048 -0.611,0 -1.127,0.24 -1.571,0.744 -0.443,0.504 -0.659,1.067 -0.659,1.715 0,0.648 0.107,1.115 0.336,1.439 0.228,0.323 0.563,0.479 1.019,0.479 0.372,0 0.684,-0.072 0.948,-0.204 0.144,-0.071 0.336,-0.216 0.587,-0.443 -0.119,-1.044 -0.18,-1.812 -0.18,-2.327 l 0,-0.011 z m 6.671,-1.356 c -0.084,0 -0.18,0 -0.288,-0.012 -0.107,-0.012 -0.204,-0.012 -0.288,-0.012 -0.096,0 -0.359,0.023 -0.803,0.084 l 0.107,3.466 0,0.252 0,0.3 c 0.012,0.863 -0.191,1.283 -0.623,1.283 -0.156,0 -0.288,-0.048 -0.408,-0.156 -0.12,-0.107 -0.18,-0.228 -0.18,-0.384 0,-0.144 0,-0.359 0.012,-0.659 0.012,-0.3 0.012,-0.516 0.012,-0.66 l -0.119,-3.418 c -0.288,-0.012 -0.72,-0.048 -1.308,-0.107 -0.348,-0.049 -0.516,-0.24 -0.516,-0.588 0,-0.168 0.048,-0.312 0.155,-0.432 0.108,-0.12 0.24,-0.18 0.408,-0.18 l 1.235,0.096 c 0,-0.204 -0.012,-0.468 -0.024,-0.804 -0.012,-0.336 -0.023,-0.576 -0.023,-0.72 0,-0.168 0.06,-0.3 0.18,-0.408 0.12,-0.107 0.252,-0.155 0.42,-0.155 0.359,0 0.563,0.288 0.624,0.863 0.012,0.144 0.012,0.312 0.012,0.516 l -0.012,0.336 0,0.359 c 0.491,-0.06 0.768,-0.096 0.839,-0.096 0.408,0 0.672,0.024 0.792,0.061 0.239,0.084 0.359,0.264 0.359,0.552 0,0.168 -0.048,0.312 -0.155,0.419 -0.108,0.108 -0.24,0.168 -0.408,0.168 l 0,0.036 z m 4.465,5.253 c -0.888,0 -1.596,-0.216 -2.147,-0.659 -0.6,-0.492 -0.899,-1.163 -0.899,-2.051 0,-1.02 0.24,-1.859 0.731,-2.555 0.54,-0.756 1.248,-1.128 2.147,-1.128 0.647,0 1.163,0.108 1.571,0.324 0.503,0.276 0.755,0.684 0.755,1.247 0,0.396 -0.216,0.744 -0.659,1.067 -0.192,0.145 -0.6,0.36 -1.235,0.66 l -2.243,1.056 c 0.216,0.323 0.48,0.563 0.804,0.731 0.324,0.168 0.695,0.252 1.128,0.252 0.275,0 0.587,-0.048 0.959,-0.156 0.468,-0.132 0.756,-0.3 0.888,-0.516 0.132,-0.216 0.275,-0.324 0.432,-0.324 0.132,0 0.252,0.048 0.359,0.156 0.108,0.107 0.156,0.228 0.156,0.359 0,0.433 -0.348,0.804 -1.056,1.116 -0.6,0.264 -1.175,0.396 -1.751,0.396 l 0.06,0.025 z m -0.216,-5.36 c -0.48,0 -0.876,0.18 -1.199,0.552 -0.324,0.371 -0.552,0.923 -0.708,1.667 l 1.799,-0.852 c 0.708,-0.348 1.199,-0.647 1.499,-0.899 -0.336,-0.312 -0.804,-0.468 -1.415,-0.468 l 0.024,0 z"
       id="path39"
       inkscape:connector-curvature="0" /><path
       d="m 236.051,383.908 c -0.023,0.491 -0.216,0.731 -0.588,0.731 -0.336,0 -0.503,-0.192 -0.503,-0.576 0,-0.071 0,-0.203 -0.013,-0.407 l -0.012,-0.492 c -0.624,0.072 -1.115,0.24 -1.487,0.516 -0.348,0.252 -0.636,0.624 -0.863,1.14 l 0.012,3.214 c 0,0.396 -0.191,0.588 -0.575,0.588 -0.348,0 -0.516,-0.191 -0.516,-0.588 l 0,-4.113 c 0,-0.132 0,-0.324 0.012,-0.588 0.012,-0.264 0.012,-0.456 0.012,-0.588 0,-0.396 0.168,-0.587 0.516,-0.587 0.384,0 0.576,0.323 0.576,0.971 0.755,-0.731 1.571,-1.091 2.494,-1.091 0.324,0 0.552,0.12 0.708,0.359 0.155,0.24 0.228,0.588 0.228,1.067 0,0.204 0,0.336 0,0.408 l 0,0.036 z"
       id="path41"
       inkscape:connector-curvature="0" /><path
       d="m 214.821,415.657 c -0.336,0 -0.527,-0.18 -0.575,-0.552 l -0.168,-1.283 c -0.061,-0.456 -0.084,-0.876 -0.084,-1.271 0,-0.107 0.012,-0.288 0.023,-0.552 0.011,-0.264 0.024,-0.443 0.024,-0.552 0,-0.852 -0.156,-1.271 -0.468,-1.271 -0.444,0 -0.852,0.252 -1.247,0.78 -0.36,0.479 -0.636,1.067 -0.84,1.799 -0.012,0.156 -0.024,0.348 -0.048,0.575 -0.024,0.192 -0.036,0.384 -0.036,0.564 0,0.119 0.012,0.287 0.036,0.527 0.023,0.24 0.036,0.408 0.036,0.527 0,0.181 -0.048,0.324 -0.156,0.433 -0.108,0.107 -0.24,0.155 -0.408,0.155 -0.168,0 -0.3,-0.048 -0.407,-0.155 -0.108,-0.108 -0.156,-0.252 -0.156,-0.433 0,-0.119 -0.012,-0.287 -0.036,-0.527 -0.023,-0.24 -0.036,-0.408 -0.036,-0.527 0,-0.408 0.024,-0.96 0.084,-1.68 0.061,-0.72 0.084,-1.271 0.084,-1.679 0,-0.12 -0.012,-0.3 -0.023,-0.552 -0.011,-0.252 -0.024,-0.432 -0.024,-0.552 0,-0.168 0.061,-0.3 0.168,-0.407 0.108,-0.108 0.24,-0.156 0.408,-0.156 0.359,0 0.552,0.252 0.588,0.768 l 0.012,0.684 c 0.659,-0.876 1.319,-1.308 2.015,-1.308 0.624,0 1.056,0.276 1.308,0.828 0.168,0.371 0.264,0.911 0.275,1.631 l 0,0.588 0,0.539 c 0,0.324 0.036,0.731 0.12,1.248 0.084,0.516 0.12,0.923 0.12,1.247 0,0.168 -0.061,0.3 -0.168,0.407 -0.108,0.108 -0.24,0.156 -0.408,0.156 l -0.013,0 z m 3.986,-0.072 c -0.66,0 -1.211,-0.239 -1.691,-0.731 -0.527,-0.539 -0.804,-1.247 -0.827,-2.158 -0.024,-0.888 0.191,-1.655 0.659,-2.327 0.552,-0.804 1.296,-1.199 2.279,-1.199 0.791,0 1.379,0.348 1.787,1.067 0.323,0.588 0.479,1.271 0.468,2.087 -0.013,0.875 -0.24,1.607 -0.684,2.23 -0.504,0.695 -1.151,1.044 -1.979,1.044 l -0.012,-0.013 z m 0.359,-5.217 c -0.575,0 -1.02,0.264 -1.343,0.815 -0.252,0.444 -0.372,0.936 -0.372,1.512 0,0.575 0.156,1.007 0.468,1.331 0.264,0.264 0.563,0.396 0.911,0.396 0.408,0 0.756,-0.144 1.056,-0.443 0.336,-0.336 0.504,-0.768 0.528,-1.332 0.06,-1.522 -0.336,-2.267 -1.212,-2.267 l -0.036,-0.012 z"
       id="path43"
       inkscape:connector-curvature="0" /><path
       d="m 229.931,409.996 c -0.312,1.283 -0.708,2.699 -1.199,4.318 -0.108,0.359 -0.288,0.719 -0.54,1.091 -0.132,0.204 -0.312,0.3 -0.552,0.3 -0.432,-0.012 -0.756,-0.527 -0.995,-1.583 -0.084,-0.336 -0.168,-0.779 -0.252,-1.367 l -0.192,-1.308 -0.479,1.115 -0.888,2.423 c -0.048,0.145 -0.12,0.252 -0.216,0.336 -0.12,0.228 -0.3,0.348 -0.563,0.36 -0.3,0.012 -0.588,-0.564 -0.863,-1.751 -0.145,-0.612 -0.288,-1.416 -0.432,-2.459 l -0.145,-0.876 c -0.048,-0.359 -0.072,-0.647 -0.072,-0.887 0,-0.168 0.061,-0.301 0.181,-0.408 0.119,-0.108 0.252,-0.156 0.42,-0.156 0.3,0 0.479,0.156 0.551,0.48 0.049,0.228 0.084,0.503 0.12,0.852 l 0.084,0.863 0.348,2.626 c 0.433,-1.211 0.876,-2.578 1.344,-4.161 0.132,-0.432 0.348,-0.647 0.672,-0.647 0.312,0 0.516,0.239 0.623,0.731 0.108,0.455 0.229,1.151 0.384,2.11 0.156,0.996 0.288,1.751 0.408,2.303 l 0.432,-1.595 0.756,-3.19 c 0.06,-0.24 0.228,-0.359 0.504,-0.359 0.167,0 0.312,0.06 0.432,0.168 0.119,0.107 0.18,0.239 0.18,0.396 0,0.023 -0.024,0.107 -0.061,0.264 l 0.01,0.011 z"
       id="path45"
       inkscape:connector-curvature="0" /><g
       id="g47"><path
         d="m 88.228,304.351 c -0.082,0 -0.168,-0.018 -0.26,-0.055 -0.565,-0.209 -1.312,-0.314 -2.242,-0.314 -0.301,0 -0.653,0.021 -1.056,0.065 -0.403,0.044 -0.855,0.11 -1.357,0.202 l -0.014,2.953 c 0.879,-0.232 1.541,-0.349 1.982,-0.349 0.702,0 1.429,0.041 2.181,0.123 0.428,0.045 0.643,0.278 0.643,0.697 0,0.205 -0.066,0.375 -0.198,0.509 -0.132,0.134 -0.296,0.202 -0.492,0.202 -0.237,0 -0.592,-0.021 -1.066,-0.062 -0.474,-0.041 -0.83,-0.062 -1.066,-0.062 -0.31,0 -0.98,0.132 -2.01,0.396 l -0.062,4.703 c 0,0.196 -0.064,0.361 -0.191,0.496 -0.127,0.135 -0.29,0.202 -0.485,0.202 -0.195,0 -0.359,-0.067 -0.489,-0.202 -0.13,-0.135 -0.195,-0.3 -0.195,-0.496 0,-0.898 0.017,-2.246 0.051,-4.043 0.034,-1.797 0.051,-3.146 0.051,-4.043 0,-0.201 -0.003,-0.502 -0.01,-0.906 -0.007,-0.404 -0.01,-0.705 -0.01,-0.906 0,-0.201 0.062,-0.369 0.188,-0.506 0.126,-0.137 0.288,-0.205 0.489,-0.205 0.15,0 0.285,0.041 0.403,0.123 0.565,-0.1 1.073,-0.174 1.524,-0.222 0.451,-0.048 0.848,-0.072 1.189,-0.072 0.524,0 1.124,0.075 1.798,0.226 0.916,0.209 1.374,0.483 1.374,0.82 0,0.182 -0.059,0.344 -0.178,0.485 -0.133,0.161 -0.297,0.241 -0.492,0.241 z"
         id="path49"
         inkscape:connector-curvature="0" /><path
         d="m 95.433,308.282 c -0.032,0.57 -0.26,0.854 -0.684,0.854 -0.392,0 -0.588,-0.226 -0.588,-0.677 0,-0.086 -0.007,-0.246 -0.021,-0.479 l -0.021,-0.574 c -0.72,0.086 -1.296,0.29 -1.729,0.608 -0.406,0.296 -0.743,0.743 -1.012,1.34 l 0.014,3.746 c 0,0.46 -0.226,0.69 -0.677,0.69 -0.401,0 -0.602,-0.23 -0.602,-0.69 l 0,-4.799 c 0,-0.15 0.006,-0.376 0.017,-0.677 0.011,-0.301 0.017,-0.526 0.017,-0.677 0,-0.46 0.201,-0.69 0.602,-0.69 0.447,0 0.672,0.378 0.677,1.135 0.875,-0.843 1.846,-1.265 2.912,-1.265 0.369,0 0.645,0.139 0.827,0.417 0.182,0.278 0.273,0.697 0.273,1.258 10e-4,0.238 -0.001,0.398 -0.005,0.48 z"
         id="path51"
         inkscape:connector-curvature="0" /><path
         d="m 102.18,313.785 c -0.086,0 -0.244,-0.1 -0.472,-0.301 -0.205,-0.187 -0.358,-0.353 -0.458,-0.499 -0.438,0.237 -0.823,0.416 -1.155,0.537 -0.332,0.121 -0.611,0.181 -0.834,0.181 -1.066,0 -1.843,-0.301 -2.331,-0.902 -0.46,-0.565 -0.69,-1.431 -0.69,-2.598 0,-1.103 0.379,-2.046 1.138,-2.83 0.759,-0.784 1.665,-1.176 2.717,-1.176 0.396,0 0.841,0.103 1.333,0.308 0.62,0.255 0.93,0.563 0.93,0.923 0,0.123 -0.045,0.232 -0.137,0.328 -0.045,0.173 -0.081,0.458 -0.106,0.854 -0.025,0.396 -0.04,0.905 -0.044,1.524 -0.004,0.565 0.034,1.012 0.116,1.34 0.045,0.201 0.189,0.602 0.431,1.203 0.032,0.082 0.084,0.203 0.157,0.362 l 0.041,0.116 c 0,0.182 -0.064,0.333 -0.191,0.451 -0.127,0.118 -0.277,0.179 -0.445,0.179 z m -1.422,-4.751 c 0,-0.196 0.013,-0.409 0.038,-0.639 0.025,-0.23 0.062,-0.475 0.113,-0.735 -0.168,-0.086 -0.313,-0.15 -0.434,-0.191 -0.121,-0.041 -0.218,-0.062 -0.291,-0.062 -0.707,0 -1.316,0.288 -1.829,0.865 -0.513,0.577 -0.769,1.241 -0.769,1.993 0,0.748 0.132,1.308 0.396,1.682 0.264,0.374 0.661,0.561 1.189,0.561 0.438,0 0.809,-0.08 1.114,-0.239 0.164,-0.086 0.394,-0.26 0.69,-0.52 -0.144,-1.209 -0.217,-2.114 -0.217,-2.715 z"
         id="path53"
         inkscape:connector-curvature="0" /><path
         d="m 112.687,313.901 c -0.374,0 -0.592,-0.198 -0.656,-0.595 -0.082,-0.501 -0.164,-1.208 -0.246,-2.119 l -0.232,-2.119 c -0.045,-0.314 -0.123,-0.622 -0.232,-0.923 -0.155,-0.41 -0.324,-0.615 -0.506,-0.615 -0.168,0 -0.483,0.144 -0.943,0.431 -0.438,0.264 -0.725,0.476 -0.861,0.636 -0.004,0.428 0.007,0.857 0.034,1.285 l 0.205,1.825 c 0.086,0.72 0.13,1.315 0.13,1.784 0,0.201 -0.062,0.366 -0.188,0.496 -0.126,0.13 -0.286,0.195 -0.482,0.195 -0.196,0 -0.356,-0.065 -0.482,-0.195 -0.126,-0.13 -0.188,-0.295 -0.188,-0.496 0,-0.551 -0.056,-1.366 -0.167,-2.444 -0.111,-1.078 -0.167,-1.893 -0.167,-2.444 0,-0.483 -0.068,-0.859 -0.205,-1.128 -0.319,0.146 -0.643,0.383 -0.971,0.711 l -0.807,0.902 c -0.073,0.109 -0.189,0.253 -0.349,0.431 0,0.273 -0.025,0.677 -0.075,1.21 -0.05,0.533 -0.075,0.927 -0.075,1.183 0,0.137 0.021,0.328 0.065,0.574 0.044,0.246 0.065,0.424 0.065,0.533 0,0.187 -0.069,0.344 -0.208,0.472 -0.139,0.128 -0.302,0.191 -0.489,0.191 -0.515,0 -0.772,-0.585 -0.772,-1.757 0,-0.273 0.025,-0.681 0.075,-1.224 0.05,-0.543 0.075,-0.95 0.075,-1.224 0,-0.242 -0.021,-0.604 -0.065,-1.087 -0.044,-0.483 -0.065,-0.848 -0.065,-1.094 0,-1.035 0.232,-1.552 0.697,-1.552 0.178,0 0.341,0.078 0.489,0.232 0.148,0.154 0.222,0.324 0.222,0.506 0,0.086 -0.011,0.221 -0.034,0.403 -0.023,0.182 -0.034,0.321 -0.034,0.417 l 0.014,0.718 c 0.237,-0.488 0.585,-0.929 1.046,-1.323 0.461,-0.394 0.852,-0.591 1.176,-0.591 0.715,0 1.208,0.355 1.477,1.066 0.25,-0.333 0.549,-0.582 0.896,-0.749 0.347,-0.167 0.743,-0.25 1.189,-0.25 0.761,0 1.281,0.41 1.559,1.23 0.055,0.164 0.148,0.804 0.28,1.921 0.127,0.784 0.292,2.089 0.492,3.917 0.014,0.182 -0.048,0.337 -0.185,0.465 -0.137,0.128 -0.307,0.195 -0.502,0.195 z"
         id="path55"
         inkscape:connector-curvature="0" /><path
         d="m 118.073,313.648 c -1.03,0 -1.864,-0.257 -2.502,-0.772 -0.697,-0.57 -1.046,-1.367 -1.046,-2.393 0,-1.185 0.287,-2.178 0.861,-2.98 0.625,-0.875 1.458,-1.312 2.502,-1.312 0.756,0 1.374,0.127 1.853,0.383 0.588,0.314 0.882,0.797 0.882,1.449 0,0.456 -0.258,0.871 -0.772,1.244 -0.228,0.164 -0.711,0.419 -1.449,0.766 l -2.611,1.237 c 0.255,0.378 0.573,0.663 0.954,0.854 0.381,0.191 0.824,0.287 1.33,0.287 0.314,0 0.684,-0.059 1.107,-0.178 0.538,-0.15 0.884,-0.348 1.039,-0.591 0.155,-0.243 0.321,-0.366 0.499,-0.366 0.16,0 0.302,0.061 0.427,0.181 0.126,0.121 0.188,0.261 0.188,0.42 0,0.506 -0.408,0.941 -1.224,1.306 -0.698,0.31 -1.377,0.465 -2.038,0.465 z m -0.184,-6.228 c -0.556,0 -1.019,0.215 -1.388,0.646 -0.369,0.431 -0.645,1.079 -0.827,1.945 l 2.099,-0.998 c 0.825,-0.401 1.413,-0.75 1.764,-1.046 -0.393,-0.364 -0.942,-0.547 -1.648,-0.547 z"
         id="path57"
         inkscape:connector-curvature="0" /><path
         d="m 126.7,311.631 c -0.005,-0.191 0.061,-0.348 0.195,-0.468 0.134,-0.121 0.299,-0.181 0.495,-0.181 0.224,0 0.419,0.127 0.588,0.383 0.232,0.346 0.439,0.581 0.622,0.704 0.388,0.255 0.95,0.383 1.688,0.383 0.706,0 1.362,-0.153 1.969,-0.458 0.774,-0.392 1.162,-0.937 1.162,-1.634 0,-0.574 -0.326,-1.028 -0.978,-1.36 -0.552,-0.287 -1.232,-0.442 -2.044,-0.465 -0.72,-0.027 -1.333,-0.185 -1.839,-0.472 -0.647,-0.369 -0.971,-0.898 -0.971,-1.586 0,-0.811 0.46,-1.552 1.381,-2.222 0.88,-0.633 1.789,-0.95 2.728,-0.95 0.442,0 0.941,0.075 1.497,0.226 0.738,0.196 1.107,0.447 1.107,0.752 0,0.401 -0.205,0.602 -0.615,0.602 -0.183,0 -0.501,-0.049 -0.957,-0.147 -0.456,-0.098 -0.809,-0.145 -1.06,-0.14 -0.711,0.009 -1.314,0.185 -1.812,0.526 -0.511,0.351 -0.766,0.777 -0.766,1.278 0,0.378 0.337,0.645 1.012,0.8 0.251,0.059 0.736,0.114 1.456,0.164 1.044,0.078 1.859,0.406 2.447,0.984 0.538,0.529 0.807,1.173 0.807,1.935 0,1.084 -0.501,1.951 -1.504,2.598 -0.87,0.561 -1.88,0.841 -3.028,0.841 -0.834,0 -1.598,-0.16 -2.29,-0.479 -0.845,-0.392 -1.276,-0.93 -1.29,-1.614 z"
         id="path59"
         inkscape:connector-curvature="0" /></g></g><g
     id="g61"
     inkscape:export-xdpi="200"
     inkscape:export-ydpi="200"
     transform="translate(-2.835,-278.54263)"><g
       id="g63"><defs
         id="defs65"><rect
           id="SVGID_5_"
           x="311.5"
           y="273"
           width="272.64001"
           height="192.48" /></defs><clipPath
         id="SVGID_6_"><use
           xlink:href="#SVGID_5_"
           overflow="visible"
           id="use69"
           style="overflow:visible"
           x="0"
           y="0"
           width="100%"
           height="100%" /></clipPath><path
         clip-path="url(#SVGID_6_)"
         stroke-miterlimit="10"
         d="M 397.684,411.659 C 409.711,358.801 424.98,304.574 431.297,279.303"
         id="path71"
         inkscape:connector-curvature="0"
         style="fill:none;stroke:#000000;stroke-width:1.5;stroke-linecap:round;stroke-linejoin:round;stroke-miterlimit:10" /></g><path
       stroke-miterlimit="10"
       d="m 347.017,300.695 c 2.652,-2.74 2.741,-5.48 2.741,-5.48 0,0 -0.045,2.74 2.784,5.48 m -2.641,-2.884 c -0.288,9.52 0,15.289 0,18.174"
       id="path73"
       inkscape:connector-curvature="0"
       style="fill:none;stroke:#000000;stroke-width:1.5;stroke-linecap:round;stroke-linejoin:round;stroke-miterlimit:10" /><path
       d="m 342.812,324.628 c -0.084,0 -0.181,0 -0.289,-0.013 -0.107,-0.012 -0.203,-0.012 -0.287,-0.012 -0.096,0 -0.359,0.024 -0.804,0.084 l 0.108,3.467 0,0.252 0,0.299 c 0.012,0.863 -0.192,1.283 -0.624,1.283 -0.155,0 -0.288,-0.047 -0.407,-0.155 -0.121,-0.108 -0.181,-0.228 -0.181,-0.384 0,-0.145 0,-0.359 0.013,-0.66 0.012,-0.299 0.012,-0.516 0.012,-0.659 l -0.12,-3.419 c -0.288,-0.012 -0.72,-0.047 -1.308,-0.107 -0.348,-0.048 -0.516,-0.24 -0.516,-0.588 0,-0.168 0.049,-0.312 0.156,-0.432 0.107,-0.119 0.24,-0.18 0.408,-0.18 l 1.234,0.096 c 0,-0.203 -0.012,-0.467 -0.023,-0.803 -0.011,-0.336 -0.024,-0.576 -0.024,-0.721 0,-0.168 0.06,-0.299 0.181,-0.407 0.119,-0.108 0.252,-0.155 0.42,-0.155 0.359,0 0.562,0.287 0.623,0.863 0.012,0.144 0.012,0.312 0.012,0.516 l -0.012,0.336 0,0.359 c 0.492,-0.061 0.768,-0.096 0.84,-0.096 0.407,0 0.672,0.023 0.791,0.06 0.24,0.084 0.359,0.265 0.359,0.552 0,0.168 -0.047,0.312 -0.155,0.42 -0.108,0.108 -0.239,0.168 -0.407,0.168 l 0,0.036 z m 2.845,-2.423 c -0.192,0 -0.348,-0.061 -0.479,-0.191 -0.132,-0.133 -0.204,-0.289 -0.204,-0.48 0,-0.191 0.072,-0.348 0.204,-0.479 0.132,-0.131 0.287,-0.192 0.479,-0.192 0.192,0 0.349,0.061 0.479,0.192 0.133,0.132 0.204,0.288 0.204,0.479 0,0.191 -0.071,0.348 -0.204,0.48 -0.13,0.131 -0.286,0.191 -0.479,0.191 l 0,0 z m 0.265,4.75 c 0,0.239 0.012,0.587 0.023,1.055 0.011,0.468 0.023,0.815 0.023,1.056 0,0.168 -0.047,0.312 -0.155,0.419 -0.108,0.108 -0.24,0.156 -0.408,0.156 -0.167,0 -0.3,-0.048 -0.407,-0.156 -0.108,-0.107 -0.156,-0.251 -0.156,-0.419 0,-0.24 -0.012,-0.588 -0.023,-1.056 -0.013,-0.468 -0.024,-0.815 -0.024,-1.055 0,-0.373 0.024,-0.828 0.06,-1.38 0.036,-0.552 0.061,-1.007 0.061,-1.38 0,-0.18 0.048,-0.323 0.156,-0.432 0.107,-0.107 0.239,-0.155 0.407,-0.155 0.168,0 0.3,0.048 0.407,0.155 0.108,0.108 0.156,0.252 0.156,0.432 0,0.373 -0.023,0.828 -0.061,1.38 -0.036,0.552 -0.059,1.007 -0.059,1.38 l 0,0 z m 9.416,3.154 c -0.324,0 -0.504,-0.168 -0.563,-0.517 -0.072,-0.432 -0.144,-1.031 -0.216,-1.823 l -0.204,-1.811 c -0.036,-0.275 -0.097,-0.539 -0.192,-0.804 -0.131,-0.36 -0.275,-0.527 -0.432,-0.527 -0.144,0 -0.408,0.12 -0.803,0.372 -0.373,0.228 -0.612,0.407 -0.732,0.539 0,0.372 0.012,0.732 0.036,1.104 l 0.181,1.559 c 0.071,0.624 0.107,1.128 0.107,1.535 0,0.168 -0.048,0.312 -0.156,0.42 -0.107,0.108 -0.24,0.168 -0.408,0.168 -0.168,0 -0.299,-0.06 -0.407,-0.168 -0.108,-0.107 -0.155,-0.252 -0.155,-0.42 0,-0.479 -0.049,-1.162 -0.145,-2.098 -0.096,-0.936 -0.145,-1.619 -0.145,-2.1 0,-0.42 -0.059,-0.731 -0.18,-0.959 -0.275,0.119 -0.551,0.323 -0.839,0.611 l -0.696,0.768 c -0.06,0.096 -0.155,0.216 -0.287,0.371 0,0.24 -0.024,0.576 -0.072,1.032 -0.048,0.456 -0.072,0.792 -0.072,1.007 0,0.121 0.024,0.276 0.061,0.492 0.035,0.216 0.06,0.359 0.06,0.455 0,0.156 -0.06,0.289 -0.18,0.396 -0.12,0.107 -0.252,0.156 -0.407,0.156 -0.444,0 -0.66,-0.492 -0.66,-1.5 0,-0.239 0.023,-0.588 0.072,-1.055 0.047,-0.468 0.072,-0.816 0.072,-1.056 0,-0.204 -0.025,-0.504 -0.061,-0.923 -0.036,-0.42 -0.061,-0.732 -0.061,-0.948 0,-0.888 0.192,-1.319 0.588,-1.319 0.156,0 0.288,0.061 0.42,0.191 0.132,0.133 0.191,0.276 0.191,0.433 0,0.071 -0.012,0.18 -0.035,0.335 -0.024,0.156 -0.036,0.276 -0.036,0.36 l 0.012,0.612 c 0.204,-0.42 0.504,-0.792 0.899,-1.128 0.396,-0.336 0.732,-0.504 1.008,-0.504 0.623,0 1.043,0.3 1.271,0.911 0.216,-0.287 0.467,-0.503 0.768,-0.646 0.3,-0.145 0.635,-0.217 1.02,-0.217 0.659,0 1.104,0.348 1.343,1.056 0.048,0.144 0.132,0.684 0.252,1.644 0.108,0.672 0.252,1.774 0.42,3.357 0.012,0.156 -0.036,0.288 -0.156,0.396 -0.12,0.107 -0.264,0.156 -0.432,0.156 l -0.049,0.087 z"
       id="path75"
       inkscape:connector-curvature="0" /><path
       d="m 359.963,329.881 c -0.888,0 -1.596,-0.216 -2.146,-0.66 -0.6,-0.491 -0.9,-1.163 -0.9,-2.051 0,-1.02 0.24,-1.858 0.732,-2.555 0.539,-0.755 1.247,-1.127 2.146,-1.127 0.648,0 1.164,0.107 1.571,0.324 0.504,0.275 0.755,0.684 0.755,1.247 0,0.396 -0.215,0.743 -0.659,1.067 -0.192,0.145 -0.6,0.359 -1.235,0.66 l -2.242,1.055 c 0.215,0.324 0.479,0.564 0.803,0.732 0.324,0.167 0.696,0.251 1.128,0.251 0.276,0 0.587,-0.048 0.96,-0.155 0.467,-0.133 0.755,-0.301 0.887,-0.516 0.133,-0.217 0.275,-0.324 0.432,-0.324 0.133,0 0.252,0.048 0.36,0.156 0.108,0.107 0.155,0.228 0.155,0.359 0,0.432 -0.348,0.804 -1.055,1.115 -0.6,0.264 -1.176,0.396 -1.752,0.396 l 0.06,0.026 z m -0.216,-5.361 c -0.479,0 -0.876,0.18 -1.199,0.552 -0.323,0.372 -0.552,0.924 -0.708,1.667 l 1.799,-0.852 c 0.708,-0.348 1.199,-0.647 1.5,-0.899 -0.336,-0.312 -0.804,-0.468 -1.416,-0.468 l 0.024,0 z"
       id="path77"
       inkscape:connector-curvature="0" /><g
       id="g79"><defs
         id="defs81"><rect
           id="SVGID_7_"
           x="311.5"
           y="273"
           width="272.64001"
           height="192.48" /></defs><clipPath
         id="SVGID_8_"><use
           xlink:href="#SVGID_7_"
           overflow="visible"
           id="use85"
           style="overflow:visible"
           x="0"
           y="0"
           width="100%"
           height="100%" /></clipPath><path
         clip-path="url(#SVGID_8_)"
         stroke-miterlimit="10"
         d="m 334.492,438.647 c 2.74,2.016 4.26,1.676 4.26,1.676 0,0 -4.52,1.056 -7.26,4.521 m 4.664,-3.774 c -9.52,1.923 -15.289,3.551 -18.174,4.221 m 4.436,-12.357 c 3.759,-0.644 7.203,-4.358 7.203,-4.358 0,0 -0.74,0.977 -0.078,4.858 m -1.34,-2.679 c -5.857,7.51 -9.033,12.334 -10.738,14.661"
         id="path87"
         inkscape:connector-curvature="0"
         style="fill:none;stroke:#000000;stroke-width:1.5;stroke-linecap:round;stroke-linejoin:round;stroke-miterlimit:10" /></g><path
       d="m 316.262,454.541 c -0.217,0 -0.36,-0.072 -0.444,-0.216 -0.06,-0.108 -0.108,-0.312 -0.155,-0.636 -0.301,0.072 -0.744,0.204 -1.355,0.408 -0.636,0.252 -0.947,0.552 -0.947,0.923 0.119,0.048 0.228,0.084 0.348,0.108 0.899,0.156 1.559,0.372 2.002,0.659 0.637,0.408 0.948,0.996 0.948,1.775 0,0.636 -0.276,1.104 -0.827,1.427 -0.456,0.265 -1.02,0.396 -1.728,0.396 -0.516,0 -0.995,-0.084 -1.464,-0.252 -0.611,-0.216 -0.91,-0.516 -0.91,-0.912 0,-0.155 0.06,-0.287 0.18,-0.407 0.119,-0.12 0.252,-0.18 0.407,-0.18 0.12,0 0.276,0.096 0.468,0.287 0.096,0.097 0.3,0.168 0.636,0.229 0.264,0.048 0.479,0.071 0.659,0.071 0.336,0 0.624,-0.035 0.876,-0.119 0.372,-0.12 0.552,-0.3 0.552,-0.552 0,-0.54 -0.359,-0.888 -1.104,-1.08 l -0.611,-0.132 c -0.527,-0.12 -0.888,-0.252 -1.104,-0.407 -0.324,-0.216 -0.48,-0.54 -0.48,-0.983 0,-0.828 0.385,-1.403 1.164,-1.751 0.24,-0.108 0.611,-0.229 1.127,-0.372 0.516,-0.145 0.876,-0.264 1.104,-0.372 0.156,-0.072 0.324,-0.107 0.516,-0.107 0.168,0 0.301,0.048 0.408,0.155 0.107,0.108 0.156,0.252 0.156,0.432 0,0.12 0.023,0.288 0.071,0.504 0.048,0.216 0.072,0.384 0.072,0.504 0,0.18 -0.048,0.324 -0.156,0.432 -0.108,0.108 -0.239,0.156 -0.407,0.156 l 0,0.012 z m 4.381,4.714 c -0.396,0 -0.816,-0.061 -1.283,-0.181 l -0.013,2.795 c 0,0.168 -0.048,0.312 -0.155,0.42 -0.108,0.107 -0.24,0.155 -0.408,0.155 -0.168,0 -0.3,-0.048 -0.408,-0.155 -0.107,-0.108 -0.155,-0.252 -0.155,-0.42 l 0.012,-2.339 0,-2.339 c -0.012,-0.863 -0.036,-1.631 -0.084,-2.339 l -0.084,-1.187 c 0,-0.276 0.048,-0.504 0.156,-0.696 0.12,-0.228 0.288,-0.336 0.516,-0.336 0.155,0 0.276,0.048 0.384,0.156 0.108,0.108 0.156,0.24 0.156,0.396 0,0.036 0,0.097 -0.013,0.192 -0.024,0.12 -0.036,0.228 -0.048,0.336 0.336,-0.229 0.66,-0.396 0.972,-0.516 0.312,-0.12 0.611,-0.181 0.899,-0.181 0.804,0 1.379,0.348 1.751,1.067 0.3,0.564 0.444,1.296 0.444,2.231 0,0.852 -0.229,1.535 -0.684,2.087 -0.48,0.587 -1.115,0.875 -1.92,0.875 l -0.035,-0.021 z m 0.443,-5.05 c -0.359,0 -0.684,0.084 -0.972,0.24 -0.204,0.12 -0.456,0.323 -0.779,0.623 0.048,0.888 0.071,1.8 0.071,2.783 0.433,0.168 0.852,0.252 1.283,0.252 0.492,0 0.864,-0.181 1.128,-0.552 0.228,-0.324 0.336,-0.731 0.336,-1.235 0,-0.72 -0.084,-1.248 -0.264,-1.607 -0.181,-0.359 -0.444,-0.527 -0.804,-0.527 l 0,0.023 z m 8.062,5.23 c -0.071,0 -0.203,-0.084 -0.396,-0.252 -0.18,-0.156 -0.312,-0.3 -0.396,-0.42 -0.372,0.204 -0.695,0.36 -0.983,0.468 -0.288,0.108 -0.528,0.156 -0.72,0.156 -0.924,0 -1.583,-0.252 -2.003,-0.768 -0.396,-0.492 -0.588,-1.224 -0.588,-2.231 0,-0.947 0.324,-1.738 0.983,-2.41 0.66,-0.672 1.428,-1.008 2.339,-1.008 0.349,0 0.72,0.084 1.14,0.264 0.539,0.216 0.803,0.48 0.803,0.792 0,0.107 -0.035,0.204 -0.119,0.288 -0.036,0.144 -0.061,0.384 -0.084,0.731 -0.023,0.347 -0.036,0.779 -0.036,1.319 0,0.491 0.036,0.863 0.108,1.151 0.035,0.168 0.155,0.504 0.359,1.02 0.023,0.071 0.072,0.168 0.132,0.3 l 0.036,0.096 c 0,0.156 -0.048,0.288 -0.156,0.396 -0.107,0.108 -0.228,0.156 -0.371,0.156 l -0.048,-0.048 z m -1.174,-4.018 c 0,-0.168 0.012,-0.349 0.036,-0.552 0.023,-0.204 0.06,-0.408 0.107,-0.636 -0.144,-0.072 -0.264,-0.12 -0.371,-0.156 -0.108,-0.036 -0.192,-0.048 -0.252,-0.048 -0.611,0 -1.128,0.24 -1.571,0.743 -0.444,0.504 -0.659,1.067 -0.659,1.716 0,0.647 0.107,1.115 0.335,1.438 0.228,0.324 0.563,0.48 1.02,0.48 0.372,0 0.684,-0.072 0.948,-0.204 0.143,-0.072 0.335,-0.216 0.587,-0.444 -0.12,-1.043 -0.18,-1.811 -0.18,-2.326 l 0,-0.011 z m 5.4,4.006 c -0.804,0 -1.464,-0.24 -2.003,-0.732 -0.564,-0.516 -0.84,-1.175 -0.84,-2.015 0,-0.804 0.264,-1.607 0.792,-2.459 0.587,-0.947 1.235,-1.402 1.979,-1.402 0.384,0 0.804,0.084 1.283,0.264 0.601,0.228 0.899,0.504 0.899,0.839 0,0.145 -0.048,0.276 -0.144,0.396 -0.097,0.12 -0.216,0.18 -0.36,0.18 -0.119,0 -0.215,-0.036 -0.299,-0.108 -0.084,-0.071 -0.168,-0.144 -0.252,-0.216 -0.229,-0.18 -0.6,-0.275 -1.128,-0.275 -0.396,0 -0.779,0.348 -1.175,1.067 -0.36,0.659 -0.54,1.211 -0.54,1.691 0,0.516 0.168,0.911 0.528,1.211 0.335,0.275 0.755,0.408 1.271,0.408 0.24,0 0.491,-0.061 0.756,-0.181 l 0.684,-0.359 c 0.12,-0.061 0.204,-0.096 0.252,-0.096 0.144,0 0.264,0.06 0.372,0.18 0.107,0.12 0.155,0.252 0.155,0.396 0,0.288 -0.3,0.563 -0.911,0.828 -0.527,0.239 -0.959,0.359 -1.308,0.359 l -0.011,0.024 z"
       id="path89"
       inkscape:connector-curvature="0" /><path
       d="m 339.611,459.314 c -0.887,0 -1.595,-0.216 -2.146,-0.659 -0.6,-0.492 -0.899,-1.164 -0.899,-2.052 0,-1.019 0.239,-1.858 0.731,-2.554 0.539,-0.756 1.248,-1.128 2.146,-1.128 0.648,0 1.164,0.108 1.571,0.324 0.504,0.275 0.756,0.684 0.756,1.247 0,0.396 -0.216,0.743 -0.659,1.067 -0.192,0.144 -0.6,0.359 -1.236,0.659 l -2.242,1.056 c 0.216,0.324 0.479,0.563 0.804,0.731 0.323,0.168 0.695,0.252 1.127,0.252 0.276,0 0.588,-0.048 0.96,-0.155 0.467,-0.133 0.756,-0.3 0.887,-0.516 0.133,-0.217 0.276,-0.324 0.432,-0.324 0.133,0 0.252,0.048 0.36,0.156 0.108,0.107 0.155,0.228 0.155,0.359 0,0.432 -0.348,0.804 -1.055,1.115 -0.6,0.264 -1.176,0.396 -1.751,0.396 l 0.059,0.026 z m -0.215,-5.361 c -0.479,0 -0.876,0.18 -1.199,0.552 -0.323,0.372 -0.552,0.924 -0.708,1.667 l 1.799,-0.852 c 0.709,-0.348 1.2,-0.647 1.5,-0.899 -0.336,-0.312 -0.804,-0.468 -1.416,-0.468 l 0.024,0 z"
       id="path91"
       inkscape:connector-curvature="0" /><path
       stroke-miterlimit="10"
       d="m 398.271,411.738 2.314,-2.116 3.541,2.077 2.315,-2.116 2.315,-2.116 3.541,2.077 2.314,-2.116 2.315,-2.117 3.541,2.077 2.315,-2.116 2.314,-2.116 3.541,2.077 2.315,-2.116 2.315,-2.116 3.541,2.077 2.314,-2.117 2.315,-2.116 3.541,2.077 2.315,-2.116 2.314,-2.116 3.541,2.077 2.315,-2.116 2.315,-2.116 3.541,2.077 2.314,-2.117 2.315,-2.116 3.541,2.077 2.315,-2.116 2.314,-2.116 3.541,2.077 2.315,-2.116 2.315,-2.116 3.541,2.076 2.315,-2.116 2.314,-2.116 3.541,2.077 2.315,-2.116 2.315,-2.116 3.541,2.077 2.314,-2.116 2.315,-2.117 3.541,2.077 2.315,-2.116 2.314,-2.116 3.541,2.077 2.315,-2.116 m -125.266,28.937 -2.638,-0.629 1.444,2.073 -8.366,2.332 7.487,0.117 -3.511,2.918 5.018,-1.662 2.203,1.662 1.754,-0.908 2.955,0.699 -1.51,-2.395 m 119.795,-37.129 6.532,3.517 -10.301,6.281 m -112.257,15.169 160.392,-40.451 -13.913,21.992 -211.396,52.513 25.582,-24.236 32.593,-8.062"
       id="path93"
       inkscape:connector-curvature="0"
       style="fill:none;stroke:#000000;stroke-width:1.5;stroke-linecap:round;stroke-linejoin:round;stroke-miterlimit:10" /><path
       d="m 567.613,377.604 c -0.336,0 -0.527,-0.18 -0.575,-0.552 l -0.168,-1.283 c -0.061,-0.455 -0.084,-0.875 -0.084,-1.271 0,-0.107 0.012,-0.287 0.023,-0.552 0.013,-0.264 0.024,-0.443 0.024,-0.551 0,-0.852 -0.156,-1.271 -0.468,-1.271 -0.443,0 -0.852,0.252 -1.247,0.779 -0.36,0.479 -0.636,1.067 -0.84,1.799 -0.012,0.156 -0.023,0.348 -0.048,0.576 -0.024,0.191 -0.036,0.384 -0.036,0.563 0,0.12 0.012,0.288 0.036,0.527 0.024,0.24 0.036,0.408 0.036,0.528 0,0.18 -0.048,0.323 -0.156,0.432 -0.107,0.107 -0.24,0.155 -0.407,0.155 -0.168,0 -0.3,-0.048 -0.408,-0.155 -0.108,-0.108 -0.156,-0.252 -0.156,-0.432 0,-0.12 -0.012,-0.288 -0.036,-0.528 -0.023,-0.239 -0.035,-0.407 -0.035,-0.527 0,-0.408 0.023,-0.96 0.084,-1.679 0.06,-0.72 0.084,-1.271 0.084,-1.68 0,-0.12 -0.013,-0.3 -0.024,-0.552 -0.011,-0.252 -0.024,-0.432 -0.024,-0.552 0,-0.168 0.061,-0.3 0.168,-0.407 0.108,-0.108 0.24,-0.156 0.408,-0.156 0.359,0 0.552,0.252 0.588,0.768 l 0.012,0.684 c 0.66,-0.875 1.319,-1.308 2.015,-1.308 0.624,0 1.056,0.276 1.308,0.828 0.168,0.372 0.264,0.911 0.275,1.631 l 0,0.588 0,0.54 c 0,0.323 0.036,0.731 0.12,1.247 0.084,0.516 0.12,0.923 0.12,1.247 0,0.168 -0.06,0.3 -0.168,0.408 -0.107,0.107 -0.24,0.155 -0.407,0.155 l -0.014,0 z m 3.986,-0.072 c -0.659,0 -1.211,-0.24 -1.691,-0.732 -0.527,-0.539 -0.803,-1.247 -0.827,-2.158 -0.024,-0.888 0.192,-1.655 0.66,-2.327 0.551,-0.804 1.295,-1.199 2.278,-1.199 0.792,0 1.379,0.348 1.787,1.067 0.323,0.588 0.479,1.271 0.468,2.087 -0.012,0.876 -0.24,1.607 -0.684,2.23 -0.504,0.696 -1.151,1.044 -1.979,1.044 l -0.012,-0.012 z m 0.36,-5.218 c -0.576,0 -1.02,0.264 -1.344,0.815 -0.252,0.444 -0.372,0.936 -0.372,1.512 0,0.575 0.156,1.007 0.468,1.331 0.264,0.264 0.564,0.396 0.912,0.396 0.407,0 0.755,-0.144 1.055,-0.443 0.336,-0.336 0.504,-0.768 0.528,-1.331 0.06,-1.523 -0.336,-2.268 -1.212,-2.268 l -0.035,-0.012 z"
       id="path95"
       inkscape:connector-curvature="0" /><path
       d="m 582.723,371.943 c -0.312,1.283 -0.708,2.698 -1.199,4.317 -0.108,0.359 -0.288,0.72 -0.54,1.091 -0.132,0.204 -0.312,0.3 -0.552,0.3 -0.432,-0.012 -0.756,-0.527 -0.995,-1.583 -0.084,-0.336 -0.168,-0.779 -0.252,-1.367 l -0.192,-1.307 -0.479,1.115 -0.888,2.422 c -0.048,0.145 -0.119,0.252 -0.216,0.336 -0.12,0.229 -0.3,0.349 -0.563,0.36 -0.3,0.012 -0.588,-0.563 -0.863,-1.751 -0.145,-0.612 -0.288,-1.415 -0.432,-2.459 l -0.145,-0.875 c -0.048,-0.36 -0.071,-0.648 -0.071,-0.888 0,-0.168 0.06,-0.3 0.18,-0.408 0.12,-0.107 0.252,-0.155 0.42,-0.155 0.3,0 0.479,0.155 0.552,0.479 0.048,0.228 0.084,0.504 0.119,0.852 l 0.084,0.863 0.349,2.627 c 0.432,-1.212 0.875,-2.579 1.343,-4.162 0.132,-0.432 0.348,-0.647 0.672,-0.647 0.312,0 0.516,0.239 0.623,0.731 0.108,0.456 0.229,1.151 0.384,2.11 0.156,0.996 0.288,1.752 0.408,2.303 l 0.432,-1.595 0.756,-3.19 c 0.06,-0.239 0.228,-0.359 0.504,-0.359 0.168,0 0.312,0.06 0.432,0.168 0.12,0.107 0.18,0.239 0.18,0.396 0,0.024 -0.024,0.108 -0.06,0.264 l 0.009,0.012 z"
       id="path97"
       inkscape:connector-curvature="0" /><g
       id="g99"><defs
         id="defs101"><rect
           id="SVGID_9_"
           x="311.5"
           y="273"
           width="272.64001"
           height="192.48" /></defs><clipPath
         id="SVGID_10_"><use
           xlink:href="#SVGID_9_"
           overflow="visible"
           id="use105"
           style="overflow:visible"
           x="0"
           y="0"
           width="100%"
           height="100%" /></clipPath><path
         clip-path="url(#SVGID_10_)"
         stroke-miterlimit="10"
         d="m 393.917,426.717 c -4.212,11.583 -6.845,29.483 -9.477,37.907"
         id="path107"
         inkscape:connector-curvature="0"
         style="fill:none;stroke:#000000;stroke-width:1.5;stroke-linecap:round;stroke-linejoin:round;stroke-miterlimit:10" /></g></g><g
     id="g109"
     inkscape:export-xdpi="200"
     inkscape:export-ydpi="200"
     transform="translate(-2.835,-278.54263)"><path
       d="m 444.728,283.351 c -0.082,0 -0.169,-0.018 -0.26,-0.055 -0.565,-0.209 -1.312,-0.314 -2.242,-0.314 -0.301,0 -0.653,0.021 -1.056,0.065 -0.404,0.043 -0.855,0.11 -1.357,0.202 l -0.014,2.953 c 0.879,-0.232 1.541,-0.349 1.982,-0.349 0.701,0 1.429,0.041 2.181,0.123 0.429,0.045 0.643,0.278 0.643,0.697 0,0.205 -0.065,0.375 -0.198,0.509 -0.133,0.134 -0.297,0.202 -0.492,0.202 -0.236,0 -0.592,-0.021 -1.066,-0.062 -0.474,-0.041 -0.83,-0.062 -1.066,-0.062 -0.311,0 -0.98,0.132 -2.01,0.396 l -0.062,4.703 c 0,0.196 -0.063,0.361 -0.191,0.496 -0.128,0.135 -0.29,0.202 -0.485,0.202 -0.195,0 -0.359,-0.067 -0.488,-0.202 -0.131,-0.134 -0.195,-0.3 -0.195,-0.496 0,-0.898 0.018,-2.246 0.051,-4.043 0.035,-1.798 0.052,-3.146 0.052,-4.043 0,-0.201 -0.003,-0.502 -0.011,-0.906 -0.006,-0.403 -0.01,-0.705 -0.01,-0.906 0,-0.201 0.062,-0.369 0.188,-0.506 0.126,-0.137 0.289,-0.205 0.489,-0.205 0.15,0 0.284,0.041 0.403,0.123 0.564,-0.1 1.073,-0.174 1.524,-0.222 0.451,-0.048 0.848,-0.072 1.189,-0.072 0.524,0 1.124,0.075 1.798,0.226 0.916,0.209 1.374,0.483 1.374,0.82 0,0.182 -0.06,0.344 -0.178,0.485 -0.133,0.161 -0.297,0.241 -0.493,0.241 z"
       id="path111"
       inkscape:connector-curvature="0" /><path
       d="m 451.933,287.282 c -0.032,0.57 -0.26,0.854 -0.684,0.854 -0.392,0 -0.588,-0.226 -0.588,-0.677 0,-0.086 -0.007,-0.246 -0.021,-0.479 l -0.021,-0.574 c -0.72,0.086 -1.296,0.29 -1.729,0.608 -0.406,0.296 -0.742,0.743 -1.012,1.34 l 0.014,3.746 c 0,0.46 -0.226,0.69 -0.677,0.69 -0.401,0 -0.602,-0.23 -0.602,-0.69 l 0,-4.799 c 0,-0.15 0.006,-0.376 0.017,-0.677 0.012,-0.301 0.018,-0.526 0.018,-0.677 0,-0.46 0.201,-0.69 0.602,-0.69 0.447,0 0.672,0.378 0.677,1.135 0.875,-0.843 1.846,-1.265 2.912,-1.265 0.369,0 0.646,0.139 0.827,0.417 0.181,0.278 0.273,0.697 0.273,1.258 0,0.238 -0.001,0.398 -0.006,0.48 z"
       id="path113"
       inkscape:connector-curvature="0" /><path
       d="m 458.68,292.785 c -0.086,0 -0.244,-0.1 -0.472,-0.301 -0.205,-0.187 -0.358,-0.353 -0.458,-0.499 -0.438,0.237 -0.822,0.416 -1.155,0.537 -0.333,0.121 -0.61,0.181 -0.834,0.181 -1.066,0 -1.843,-0.301 -2.331,-0.902 -0.461,-0.565 -0.69,-1.431 -0.69,-2.598 0,-1.103 0.38,-2.046 1.138,-2.83 0.76,-0.784 1.665,-1.176 2.718,-1.176 0.396,0 0.841,0.103 1.333,0.308 0.619,0.255 0.93,0.563 0.93,0.923 0,0.123 -0.045,0.232 -0.137,0.328 -0.045,0.173 -0.081,0.458 -0.105,0.854 -0.025,0.396 -0.041,0.905 -0.045,1.524 -0.004,0.565 0.034,1.012 0.116,1.34 0.046,0.201 0.188,0.602 0.431,1.203 0.031,0.082 0.084,0.203 0.157,0.362 l 0.041,0.116 c 0,0.182 -0.063,0.333 -0.191,0.451 -0.128,0.118 -0.278,0.179 -0.446,0.179 z m -1.422,-4.751 c 0,-0.196 0.013,-0.409 0.037,-0.639 0.025,-0.23 0.062,-0.475 0.113,-0.735 -0.168,-0.086 -0.313,-0.15 -0.434,-0.191 -0.121,-0.041 -0.219,-0.062 -0.291,-0.062 -0.707,0 -1.316,0.288 -1.828,0.865 -0.514,0.577 -0.77,1.241 -0.77,1.993 0,0.748 0.133,1.308 0.396,1.682 0.263,0.374 0.66,0.561 1.189,0.561 0.438,0 0.809,-0.08 1.114,-0.239 0.164,-0.086 0.394,-0.26 0.69,-0.52 -0.144,-1.209 -0.216,-2.114 -0.216,-2.715 z"
       id="path115"
       inkscape:connector-curvature="0" /><path
       d="m 469.187,292.901 c -0.374,0 -0.593,-0.198 -0.656,-0.595 -0.082,-0.501 -0.164,-1.208 -0.246,-2.119 l -0.232,-2.119 c -0.046,-0.314 -0.123,-0.622 -0.232,-0.923 -0.155,-0.41 -0.323,-0.615 -0.506,-0.615 -0.169,0 -0.483,0.144 -0.943,0.431 -0.438,0.264 -0.725,0.476 -0.861,0.636 -0.005,0.428 0.007,0.857 0.034,1.285 l 0.205,1.825 c 0.086,0.72 0.13,1.315 0.13,1.784 0,0.201 -0.062,0.366 -0.188,0.496 -0.125,0.13 -0.285,0.195 -0.481,0.195 -0.196,0 -0.356,-0.065 -0.481,-0.195 -0.126,-0.13 -0.188,-0.295 -0.188,-0.496 0,-0.551 -0.056,-1.366 -0.167,-2.444 -0.112,-1.078 -0.168,-1.893 -0.168,-2.444 0,-0.483 -0.068,-0.859 -0.205,-1.128 -0.318,0.146 -0.643,0.383 -0.971,0.711 l -0.807,0.902 c -0.072,0.109 -0.189,0.253 -0.349,0.431 0,0.273 -0.024,0.677 -0.075,1.21 -0.051,0.533 -0.075,0.927 -0.075,1.183 0,0.137 0.021,0.328 0.065,0.574 0.043,0.246 0.064,0.424 0.064,0.533 0,0.187 -0.069,0.344 -0.209,0.472 -0.139,0.127 -0.301,0.191 -0.488,0.191 -0.516,0 -0.772,-0.585 -0.772,-1.757 0,-0.273 0.024,-0.681 0.075,-1.224 0.051,-0.543 0.075,-0.95 0.075,-1.224 0,-0.242 -0.021,-0.604 -0.065,-1.087 -0.043,-0.483 -0.064,-0.848 -0.064,-1.094 0,-1.035 0.232,-1.552 0.697,-1.552 0.178,0 0.341,0.078 0.488,0.232 0.148,0.155 0.223,0.324 0.223,0.506 0,0.086 -0.012,0.221 -0.034,0.403 -0.022,0.182 -0.034,0.321 -0.034,0.417 l 0.014,0.718 c 0.236,-0.488 0.586,-0.929 1.046,-1.323 0.46,-0.394 0.853,-0.591 1.176,-0.591 0.716,0 1.208,0.355 1.477,1.066 0.251,-0.333 0.55,-0.582 0.896,-0.749 0.346,-0.167 0.742,-0.25 1.189,-0.25 0.762,0 1.281,0.41 1.559,1.23 0.055,0.164 0.148,0.804 0.28,1.921 0.128,0.784 0.292,2.089 0.492,3.917 0.014,0.182 -0.048,0.337 -0.185,0.465 -0.137,0.128 -0.307,0.195 -0.503,0.195 z"
       id="path117"
       inkscape:connector-curvature="0" /><path
       d="m 474.573,292.648 c -1.03,0 -1.864,-0.257 -2.502,-0.772 -0.697,-0.57 -1.046,-1.367 -1.046,-2.393 0,-1.185 0.287,-2.178 0.861,-2.98 0.625,-0.875 1.459,-1.312 2.502,-1.312 0.756,0 1.374,0.127 1.853,0.383 0.588,0.314 0.882,0.797 0.882,1.449 0,0.456 -0.258,0.871 -0.772,1.244 -0.228,0.164 -0.711,0.419 -1.449,0.766 l -2.611,1.237 c 0.255,0.378 0.573,0.663 0.954,0.854 0.38,0.191 0.823,0.287 1.329,0.287 0.314,0 0.684,-0.059 1.107,-0.178 0.538,-0.15 0.884,-0.348 1.039,-0.591 0.155,-0.243 0.321,-0.366 0.499,-0.366 0.16,0 0.302,0.061 0.427,0.181 0.126,0.121 0.188,0.261 0.188,0.42 0,0.506 -0.408,0.941 -1.224,1.306 -0.697,0.31 -1.376,0.465 -2.037,0.465 z m -0.184,-6.228 c -0.557,0 -1.019,0.215 -1.388,0.646 -0.369,0.431 -0.646,1.079 -0.827,1.945 l 2.099,-0.998 c 0.825,-0.401 1.413,-0.75 1.764,-1.046 -0.392,-0.364 -0.941,-0.547 -1.648,-0.547 z"
       id="path119"
       inkscape:connector-curvature="0" /><path
       d="m 483.2,290.631 c -0.005,-0.191 0.061,-0.348 0.195,-0.468 0.134,-0.121 0.299,-0.181 0.495,-0.181 0.224,0 0.419,0.127 0.588,0.383 0.232,0.346 0.439,0.581 0.622,0.704 0.388,0.255 0.95,0.383 1.688,0.383 0.706,0 1.362,-0.153 1.969,-0.458 0.774,-0.392 1.162,-0.937 1.162,-1.634 0,-0.574 -0.326,-1.028 -0.978,-1.36 -0.552,-0.287 -1.232,-0.442 -2.044,-0.465 -0.72,-0.027 -1.333,-0.185 -1.839,-0.472 -0.647,-0.369 -0.971,-0.898 -0.971,-1.586 0,-0.811 0.46,-1.552 1.381,-2.222 0.88,-0.633 1.789,-0.95 2.728,-0.95 0.442,0 0.941,0.075 1.497,0.226 0.738,0.196 1.107,0.447 1.107,0.752 0,0.401 -0.205,0.602 -0.615,0.602 -0.183,0 -0.501,-0.049 -0.957,-0.147 -0.456,-0.098 -0.809,-0.145 -1.06,-0.14 -0.711,0.009 -1.314,0.185 -1.812,0.526 -0.511,0.351 -0.766,0.777 -0.766,1.278 0,0.378 0.337,0.645 1.012,0.8 0.251,0.059 0.736,0.114 1.456,0.164 1.044,0.078 1.859,0.406 2.447,0.984 0.538,0.529 0.807,1.173 0.807,1.935 0,1.084 -0.501,1.951 -1.504,2.598 -0.87,0.561 -1.88,0.841 -3.028,0.841 -0.834,0 -1.598,-0.16 -2.29,-0.479 -0.845,-0.392 -1.276,-0.93 -1.29,-1.614 z"
       id="path121"
       inkscape:connector-curvature="0" /><path
       d="m 492.312,283.344 c 0,-0.168 0.06,-0.319 0.178,-0.451 0.118,-0.132 0.26,-0.198 0.424,-0.198 0.109,0 0.727,0.221 1.853,0.663 -0.036,-0.633 -0.055,-1.071 -0.055,-1.312 0,-0.178 0.059,-0.324 0.174,-0.438 0.117,-0.114 0.262,-0.171 0.435,-0.171 0.178,0 0.325,0.057 0.44,0.171 0.117,0.114 0.175,0.26 0.175,0.438 0,0.25 0.014,0.636 0.041,1.155 1.094,-0.164 1.764,-0.246 2.01,-0.246 0.169,0 0.309,0.061 0.421,0.181 0.111,0.121 0.167,0.268 0.167,0.441 0,0.319 -0.171,0.515 -0.513,0.588 -0.319,0.068 -0.882,0.15 -1.688,0.246 0.265,0.242 0.552,0.551 0.861,0.93 0.405,0.501 0.608,0.85 0.608,1.046 0,0.164 -0.063,0.307 -0.191,0.427 -0.128,0.12 -0.273,0.181 -0.438,0.181 -0.173,0 -0.33,-0.082 -0.472,-0.246 -0.278,-0.374 -0.731,-0.909 -1.36,-1.606 -0.938,1.062 -1.574,1.593 -1.907,1.593 -0.164,0 -0.309,-0.064 -0.435,-0.191 -0.125,-0.127 -0.188,-0.273 -0.188,-0.438 0,-0.155 0.073,-0.305 0.219,-0.451 0.292,-0.246 0.716,-0.64 1.271,-1.183 -0.374,-0.119 -0.921,-0.317 -1.641,-0.595 -0.259,-0.114 -0.389,-0.292 -0.389,-0.534 z"
       id="path123"
       inkscape:connector-curvature="0" /></g><g
     id="g125"
     inkscape:export-xdpi="200"
     inkscape:export-ydpi="200"
     transform="translate(-2.835,-278.54263)"><g
       id="g127"><path
         d="m 302.228,522.852 c -0.082,0 -0.168,-0.019 -0.26,-0.055 -0.565,-0.21 -1.312,-0.314 -2.242,-0.314 -0.301,0 -0.653,0.021 -1.056,0.064 -0.403,0.043 -0.855,0.11 -1.357,0.201 l -0.014,2.953 c 0.879,-0.232 1.541,-0.348 1.982,-0.348 0.702,0 1.429,0.041 2.181,0.123 0.428,0.045 0.643,0.277 0.643,0.697 0,0.205 -0.066,0.375 -0.198,0.509 -0.132,0.134 -0.296,0.202 -0.492,0.202 -0.237,0 -0.592,-0.021 -1.066,-0.062 -0.474,-0.041 -0.83,-0.061 -1.066,-0.061 -0.31,0 -0.98,0.132 -2.01,0.396 l -0.062,4.703 c 0,0.195 -0.064,0.361 -0.191,0.495 -0.127,0.134 -0.29,0.202 -0.485,0.202 -0.195,0 -0.359,-0.068 -0.489,-0.202 -0.13,-0.134 -0.195,-0.3 -0.195,-0.495 0,-0.898 0.017,-2.246 0.051,-4.044 0.034,-1.798 0.051,-3.146 0.051,-4.044 0,-0.2 -0.003,-0.502 -0.01,-0.905 -0.007,-0.403 -0.01,-0.705 -0.01,-0.905 0,-0.201 0.062,-0.369 0.188,-0.506 0.126,-0.137 0.288,-0.205 0.489,-0.205 0.15,0 0.285,0.041 0.403,0.123 0.565,-0.101 1.073,-0.175 1.524,-0.223 0.451,-0.048 0.848,-0.072 1.189,-0.072 0.524,0 1.124,0.076 1.798,0.227 0.916,0.209 1.374,0.482 1.374,0.82 0,0.182 -0.059,0.344 -0.178,0.484 -0.133,0.161 -0.297,0.242 -0.492,0.242 z"
         id="path129"
         inkscape:connector-curvature="0" /><path
         d="m 309.433,526.781 c -0.032,0.57 -0.26,0.855 -0.684,0.855 -0.392,0 -0.588,-0.227 -0.588,-0.678 0,-0.086 -0.007,-0.246 -0.021,-0.479 l -0.021,-0.574 c -0.72,0.087 -1.296,0.29 -1.729,0.609 -0.406,0.296 -0.743,0.742 -1.012,1.34 l 0.014,3.746 c 0,0.46 -0.226,0.689 -0.677,0.689 -0.401,0 -0.602,-0.229 -0.602,-0.689 l 0,-4.799 c 0,-0.15 0.006,-0.377 0.017,-0.678 0.011,-0.301 0.017,-0.525 0.017,-0.676 0,-0.461 0.201,-0.691 0.602,-0.691 0.447,0 0.672,0.379 0.677,1.135 0.875,-0.843 1.846,-1.264 2.912,-1.264 0.369,0 0.646,0.139 0.827,0.416 0.182,0.278 0.273,0.697 0.273,1.258 0.001,0.239 0,0.398 -0.005,0.48 z"
         id="path131"
         inkscape:connector-curvature="0" /><path
         d="m 316.18,532.285 c -0.086,0 -0.244,-0.101 -0.472,-0.301 -0.205,-0.188 -0.358,-0.354 -0.458,-0.5 -0.438,0.237 -0.822,0.416 -1.155,0.537 -0.333,0.121 -0.61,0.182 -0.834,0.182 -1.066,0 -1.843,-0.301 -2.331,-0.902 -0.461,-0.565 -0.69,-1.432 -0.69,-2.598 0,-1.104 0.38,-2.047 1.138,-2.83 0.76,-0.784 1.665,-1.176 2.718,-1.176 0.396,0 0.841,0.102 1.333,0.307 0.619,0.256 0.93,0.563 0.93,0.924 0,0.123 -0.045,0.232 -0.137,0.328 -0.045,0.173 -0.081,0.457 -0.105,0.854 -0.025,0.396 -0.041,0.905 -0.045,1.525 -0.004,0.564 0.034,1.012 0.116,1.34 0.046,0.2 0.188,0.602 0.431,1.203 0.031,0.082 0.084,0.202 0.157,0.361 l 0.041,0.117 c 0,0.182 -0.063,0.332 -0.191,0.451 -0.13,0.119 -0.278,0.178 -0.446,0.178 z m -1.422,-4.752 c 0,-0.195 0.013,-0.408 0.037,-0.639 0.025,-0.23 0.062,-0.475 0.113,-0.734 -0.168,-0.087 -0.313,-0.15 -0.434,-0.191 -0.121,-0.041 -0.219,-0.062 -0.291,-0.062 -0.707,0 -1.316,0.289 -1.828,0.865 -0.514,0.576 -0.77,1.24 -0.77,1.992 0,0.748 0.133,1.309 0.396,1.682 0.264,0.374 0.66,0.561 1.189,0.561 0.438,0 0.809,-0.079 1.114,-0.238 0.164,-0.087 0.394,-0.26 0.69,-0.52 -0.144,-1.209 -0.216,-2.114 -0.216,-2.716 z"
         id="path133"
         inkscape:connector-curvature="0" /><path
         d="m 326.687,532.4 c -0.374,0 -0.593,-0.197 -0.656,-0.594 -0.082,-0.502 -0.164,-1.208 -0.246,-2.119 l -0.232,-2.119 c -0.046,-0.314 -0.123,-0.623 -0.232,-0.924 -0.155,-0.41 -0.323,-0.615 -0.506,-0.615 -0.169,0 -0.483,0.145 -0.943,0.432 -0.438,0.264 -0.725,0.476 -0.861,0.635 -0.005,0.429 0.007,0.857 0.034,1.285 l 0.205,1.826 c 0.086,0.72 0.13,1.314 0.13,1.783 0,0.201 -0.062,0.366 -0.188,0.496 -0.125,0.13 -0.285,0.195 -0.481,0.195 -0.196,0 -0.356,-0.065 -0.481,-0.195 -0.126,-0.13 -0.188,-0.295 -0.188,-0.496 0,-0.551 -0.056,-1.365 -0.167,-2.443 -0.112,-1.078 -0.168,-1.893 -0.168,-2.443 0,-0.483 -0.068,-0.859 -0.205,-1.129 -0.318,0.146 -0.643,0.383 -0.971,0.711 l -0.807,0.902 c -0.072,0.109 -0.189,0.254 -0.349,0.432 0,0.273 -0.024,0.676 -0.075,1.209 -0.051,0.533 -0.075,0.928 -0.075,1.184 0,0.137 0.021,0.328 0.065,0.574 0.043,0.246 0.064,0.424 0.064,0.533 0,0.187 -0.069,0.344 -0.209,0.471 -0.139,0.128 -0.301,0.191 -0.488,0.191 -0.516,0 -0.772,-0.585 -0.772,-1.756 0,-0.273 0.024,-0.682 0.075,-1.225 0.051,-0.542 0.075,-0.949 0.075,-1.223 0,-0.242 -0.021,-0.604 -0.065,-1.088 -0.043,-0.482 -0.064,-0.848 -0.064,-1.094 0,-1.034 0.232,-1.551 0.697,-1.551 0.178,0 0.341,0.077 0.488,0.232 0.148,0.154 0.223,0.323 0.223,0.506 0,0.086 -0.012,0.221 -0.034,0.402 -0.022,0.183 -0.034,0.322 -0.034,0.418 l 0.014,0.717 c 0.236,-0.487 0.586,-0.928 1.046,-1.322 0.46,-0.394 0.853,-0.592 1.176,-0.592 0.716,0 1.208,0.355 1.477,1.066 0.251,-0.332 0.55,-0.582 0.896,-0.748 0.346,-0.166 0.742,-0.25 1.189,-0.25 0.762,0 1.281,0.41 1.559,1.23 0.055,0.164 0.148,0.805 0.28,1.922 0.128,0.783 0.292,2.089 0.492,3.916 0.014,0.183 -0.048,0.338 -0.185,0.465 -0.141,0.13 -0.307,0.193 -0.503,0.193 z"
         id="path135"
         inkscape:connector-curvature="0" /><path
         d="m 332.073,532.148 c -1.03,0 -1.864,-0.258 -2.502,-0.773 -0.697,-0.569 -1.046,-1.367 -1.046,-2.393 0,-1.185 0.287,-2.178 0.861,-2.98 0.625,-0.875 1.459,-1.312 2.502,-1.312 0.756,0 1.374,0.128 1.853,0.383 0.588,0.314 0.882,0.798 0.882,1.449 0,0.456 -0.258,0.871 -0.772,1.244 -0.228,0.164 -0.711,0.42 -1.449,0.766 l -2.611,1.238 c 0.255,0.378 0.573,0.662 0.954,0.854 0.38,0.191 0.823,0.287 1.329,0.287 0.314,0 0.684,-0.059 1.107,-0.178 0.538,-0.15 0.884,-0.348 1.039,-0.591 0.155,-0.243 0.321,-0.366 0.499,-0.366 0.16,0 0.302,0.061 0.427,0.182 0.126,0.121 0.188,0.261 0.188,0.42 0,0.506 -0.408,0.941 -1.224,1.307 -0.697,0.308 -1.376,0.463 -2.037,0.463 z m -0.184,-6.228 c -0.557,0 -1.019,0.216 -1.388,0.646 -0.369,0.43 -0.646,1.079 -0.827,1.945 l 2.099,-0.998 c 0.825,-0.401 1.413,-0.75 1.764,-1.047 -0.392,-0.363 -0.941,-0.546 -1.648,-0.546 z"
         id="path137"
         inkscape:connector-curvature="0" /><path
         d="m 340.7,530.131 c -0.005,-0.191 0.061,-0.348 0.195,-0.468 0.134,-0.12 0.299,-0.181 0.495,-0.181 0.224,0 0.419,0.127 0.588,0.383 0.232,0.346 0.439,0.58 0.622,0.703 0.388,0.256 0.95,0.383 1.688,0.383 0.706,0 1.362,-0.152 1.969,-0.457 0.774,-0.393 1.162,-0.938 1.162,-1.635 0,-0.574 -0.326,-1.027 -0.978,-1.359 -0.552,-0.287 -1.232,-0.442 -2.044,-0.465 -0.72,-0.027 -1.333,-0.186 -1.839,-0.473 -0.647,-0.369 -0.971,-0.897 -0.971,-1.586 0,-0.811 0.46,-1.551 1.381,-2.221 0.88,-0.634 1.789,-0.951 2.728,-0.951 0.442,0 0.941,0.076 1.497,0.227 0.738,0.195 1.107,0.446 1.107,0.752 0,0.4 -0.205,0.602 -0.615,0.602 -0.183,0 -0.501,-0.049 -0.957,-0.147 -0.456,-0.098 -0.809,-0.145 -1.06,-0.14 -0.711,0.009 -1.314,0.184 -1.812,0.525 -0.511,0.352 -0.766,0.777 -0.766,1.279 0,0.378 0.337,0.645 1.012,0.799 0.251,0.06 0.736,0.114 1.456,0.164 1.044,0.078 1.859,0.406 2.447,0.984 0.538,0.529 0.807,1.174 0.807,1.936 0,1.084 -0.501,1.95 -1.504,2.598 -0.87,0.561 -1.88,0.84 -3.028,0.84 -0.834,0 -1.598,-0.159 -2.29,-0.479 -0.845,-0.391 -1.276,-0.93 -1.29,-1.613 z"
         id="path139"
         inkscape:connector-curvature="0" /><path
         d="m 349.812,522.844 c 0,-0.168 0.06,-0.318 0.178,-0.451 0.118,-0.132 0.26,-0.197 0.424,-0.197 0.109,0 0.727,0.221 1.853,0.662 -0.036,-0.633 -0.055,-1.07 -0.055,-1.312 0,-0.178 0.059,-0.323 0.174,-0.438 0.117,-0.113 0.262,-0.17 0.435,-0.17 0.178,0 0.325,0.057 0.44,0.17 0.117,0.114 0.175,0.26 0.175,0.438 0,0.251 0.014,0.637 0.041,1.156 1.094,-0.164 1.764,-0.246 2.01,-0.246 0.169,0 0.309,0.061 0.421,0.181 0.111,0.12 0.167,0.268 0.167,0.44 0,0.319 -0.171,0.516 -0.513,0.588 -0.319,0.068 -0.882,0.15 -1.688,0.246 0.265,0.242 0.552,0.552 0.861,0.93 0.405,0.502 0.608,0.851 0.608,1.047 0,0.164 -0.063,0.307 -0.191,0.427 -0.128,0.12 -0.273,0.181 -0.438,0.181 -0.173,0 -0.33,-0.082 -0.472,-0.246 -0.278,-0.373 -0.731,-0.908 -1.36,-1.605 -0.938,1.062 -1.574,1.592 -1.907,1.592 -0.164,0 -0.309,-0.063 -0.435,-0.191 -0.125,-0.127 -0.188,-0.273 -0.188,-0.438 0,-0.154 0.073,-0.305 0.219,-0.451 0.292,-0.246 0.716,-0.64 1.271,-1.182 -0.374,-0.119 -0.921,-0.317 -1.641,-0.596 -0.259,-0.115 -0.389,-0.293 -0.389,-0.535 z"
         id="path141"
         inkscape:connector-curvature="0" /><path
         d="m 357.229,522.844 c 0,-0.168 0.06,-0.318 0.178,-0.451 0.118,-0.132 0.26,-0.197 0.424,-0.197 0.109,0 0.727,0.221 1.853,0.662 -0.036,-0.633 -0.055,-1.07 -0.055,-1.312 0,-0.178 0.059,-0.323 0.174,-0.438 0.117,-0.113 0.262,-0.17 0.435,-0.17 0.178,0 0.325,0.057 0.44,0.17 0.117,0.114 0.175,0.26 0.175,0.438 0,0.251 0.014,0.637 0.041,1.156 1.094,-0.164 1.764,-0.246 2.01,-0.246 0.169,0 0.309,0.061 0.421,0.181 0.111,0.12 0.167,0.268 0.167,0.44 0,0.319 -0.171,0.516 -0.513,0.588 -0.319,0.068 -0.882,0.15 -1.688,0.246 0.265,0.242 0.552,0.552 0.861,0.93 0.405,0.502 0.608,0.851 0.608,1.047 0,0.164 -0.063,0.307 -0.191,0.427 -0.128,0.12 -0.273,0.181 -0.438,0.181 -0.173,0 -0.33,-0.082 -0.472,-0.246 -0.278,-0.373 -0.731,-0.908 -1.36,-1.605 -0.938,1.062 -1.574,1.592 -1.907,1.592 -0.164,0 -0.309,-0.063 -0.435,-0.191 -0.125,-0.127 -0.188,-0.273 -0.188,-0.438 0,-0.154 0.073,-0.305 0.219,-0.451 0.292,-0.246 0.716,-0.64 1.271,-1.182 -0.374,-0.119 -0.921,-0.317 -1.641,-0.596 -0.259,-0.115 -0.389,-0.293 -0.389,-0.535 z"
         id="path143"
         inkscape:connector-curvature="0" /></g><path
       stroke-miterlimit="10"
       d="m 160.715,564.482 c 2.652,-2.74 2.74,-5.48 2.74,-5.48 0,0 -0.044,2.74 2.785,5.48 m -2.64,-2.883 c -0.289,9.519 0,15.288 0,18.173"
       id="path145"
       inkscape:connector-curvature="0"
       style="fill:none;stroke:#000000;stroke-width:1.5;stroke-linecap:round;stroke-linejoin:round;stroke-miterlimit:10" /><path
       d="m 156.51,588.415 c -0.084,0 -0.18,0 -0.288,-0.013 -0.108,-0.012 -0.204,-0.012 -0.288,-0.012 -0.096,0 -0.36,0.024 -0.803,0.084 l 0.108,3.467 0,0.252 0,0.299 c 0.012,0.864 -0.192,1.283 -0.624,1.283 -0.156,0 -0.288,-0.047 -0.408,-0.155 -0.12,-0.108 -0.18,-0.228 -0.18,-0.384 0,-0.145 0,-0.359 0.012,-0.66 0.012,-0.299 0.012,-0.516 0.012,-0.659 l -0.12,-3.418 c -0.288,-0.013 -0.719,-0.048 -1.307,-0.108 -0.348,-0.048 -0.516,-0.24 -0.516,-0.588 0,-0.168 0.048,-0.312 0.156,-0.432 0.108,-0.119 0.24,-0.18 0.408,-0.18 l 1.235,0.096 c 0,-0.203 -0.012,-0.467 -0.024,-0.803 -0.012,-0.336 -0.024,-0.576 -0.024,-0.72 0,-0.168 0.06,-0.3 0.18,-0.408 0.12,-0.108 0.252,-0.155 0.42,-0.155 0.36,0 0.564,0.287 0.624,0.863 0.012,0.144 0.012,0.312 0.012,0.516 l -0.012,0.336 0,0.359 c 0.492,-0.06 0.768,-0.096 0.84,-0.096 0.408,0 0.671,0.023 0.792,0.061 0.24,0.084 0.36,0.264 0.36,0.551 0,0.168 -0.048,0.312 -0.156,0.42 -0.108,0.107 -0.24,0.168 -0.408,0.168 l 0,0.036 z m 2.845,-2.423 c -0.192,0 -0.348,-0.061 -0.48,-0.191 -0.132,-0.133 -0.204,-0.288 -0.204,-0.48 0,-0.191 0.072,-0.348 0.204,-0.479 0.132,-0.132 0.288,-0.192 0.48,-0.192 0.192,0 0.348,0.061 0.479,0.192 0.132,0.132 0.204,0.288 0.204,0.479 0,0.192 -0.072,0.348 -0.204,0.48 -0.131,0.131 -0.287,0.191 -0.479,0.191 l 0,0 z m 0.264,4.75 c 0,0.239 0.012,0.587 0.024,1.055 0.012,0.468 0.024,0.816 0.024,1.056 0,0.168 -0.048,0.312 -0.156,0.42 -0.108,0.108 -0.24,0.155 -0.408,0.155 -0.168,0 -0.3,-0.047 -0.408,-0.155 -0.108,-0.108 -0.156,-0.252 -0.156,-0.42 0,-0.239 -0.012,-0.588 -0.024,-1.056 -0.012,-0.468 -0.024,-0.815 -0.024,-1.055 0,-0.372 0.024,-0.828 0.06,-1.38 0.036,-0.552 0.06,-1.007 0.06,-1.379 0,-0.181 0.048,-0.324 0.156,-0.433 0.108,-0.107 0.24,-0.155 0.408,-0.155 0.168,0 0.3,0.048 0.408,0.155 0.108,0.108 0.156,0.252 0.156,0.433 0,0.372 -0.024,0.827 -0.06,1.379 -0.036,0.552 -0.06,1.008 -0.06,1.38 l 0,0 z m 9.417,3.154 c -0.324,0 -0.504,-0.168 -0.564,-0.516 -0.072,-0.433 -0.144,-1.032 -0.216,-1.824 l -0.204,-1.811 c -0.036,-0.275 -0.096,-0.539 -0.192,-0.803 -0.132,-0.36 -0.275,-0.528 -0.432,-0.528 -0.144,0 -0.408,0.12 -0.804,0.372 -0.372,0.228 -0.611,0.407 -0.731,0.539 0,0.372 0.012,0.732 0.036,1.104 l 0.18,1.559 c 0.072,0.625 0.108,1.128 0.108,1.535 0,0.168 -0.048,0.312 -0.156,0.42 -0.108,0.108 -0.24,0.168 -0.408,0.168 -0.168,0 -0.3,-0.06 -0.408,-0.168 -0.108,-0.107 -0.156,-0.252 -0.156,-0.42 0,-0.479 -0.048,-1.162 -0.144,-2.098 -0.096,-0.936 -0.144,-1.619 -0.144,-2.1 0,-0.42 -0.06,-0.731 -0.18,-0.959 -0.276,0.119 -0.552,0.324 -0.84,0.611 l -0.695,0.768 c -0.06,0.096 -0.156,0.216 -0.288,0.372 0,0.239 -0.024,0.575 -0.072,1.031 -0.048,0.456 -0.072,0.792 -0.072,1.007 0,0.121 0.024,0.276 0.06,0.492 0.036,0.216 0.06,0.359 0.06,0.456 0,0.155 -0.06,0.288 -0.18,0.396 -0.12,0.107 -0.252,0.156 -0.408,0.156 -0.443,0 -0.66,-0.492 -0.66,-1.5 0,-0.239 0.024,-0.587 0.072,-1.055 0.048,-0.468 0.072,-0.815 0.072,-1.056 0,-0.204 -0.024,-0.503 -0.06,-0.923 -0.036,-0.42 -0.06,-0.732 -0.06,-0.947 0,-0.889 0.192,-1.32 0.587,-1.32 0.156,0 0.288,0.061 0.42,0.192 0.132,0.131 0.192,0.276 0.192,0.432 0,0.071 -0.012,0.18 -0.036,0.336 -0.024,0.155 -0.036,0.276 -0.036,0.36 l 0.012,0.611 c 0.204,-0.42 0.504,-0.792 0.899,-1.128 0.396,-0.335 0.731,-0.503 1.007,-0.503 0.624,0 1.043,0.299 1.271,0.911 0.216,-0.288 0.468,-0.504 0.768,-0.647 0.3,-0.145 0.636,-0.217 1.02,-0.217 0.66,0 1.104,0.348 1.343,1.056 0.048,0.144 0.132,0.685 0.252,1.644 0.108,0.672 0.252,1.775 0.419,3.357 0.012,0.156 -0.036,0.289 -0.156,0.396 -0.12,0.107 -0.264,0.156 -0.432,0.156 l -0.044,0.086 z"
       id="path147"
       inkscape:connector-curvature="0" /><path
       d="m 173.661,593.668 c -0.888,0 -1.595,-0.216 -2.147,-0.66 -0.6,-0.491 -0.899,-1.162 -0.899,-2.051 0,-1.02 0.24,-1.858 0.731,-2.555 0.54,-0.755 1.248,-1.127 2.147,-1.127 0.647,0 1.163,0.107 1.571,0.324 0.503,0.275 0.755,0.684 0.755,1.247 0,0.396 -0.216,0.743 -0.66,1.067 -0.192,0.145 -0.6,0.359 -1.235,0.66 l -2.243,1.055 c 0.216,0.324 0.479,0.564 0.804,0.732 0.324,0.168 0.695,0.252 1.127,0.252 0.275,0 0.587,-0.049 0.959,-0.156 0.468,-0.133 0.756,-0.301 0.888,-0.516 0.132,-0.217 0.276,-0.324 0.432,-0.324 0.132,0 0.252,0.048 0.36,0.156 0.108,0.107 0.156,0.228 0.156,0.359 0,0.432 -0.348,0.804 -1.056,1.115 -0.6,0.264 -1.175,0.396 -1.751,0.396 l 0.061,0.026 z m -0.216,-5.361 c -0.48,0 -0.875,0.18 -1.2,0.553 -0.324,0.371 -0.551,0.923 -0.708,1.666 l 1.799,-0.852 c 0.708,-0.348 1.199,-0.647 1.499,-0.898 -0.336,-0.312 -0.804,-0.469 -1.416,-0.469 l 0.026,0 z"
       id="path149"
       inkscape:connector-curvature="0" /><g
       id="g151"><defs
         id="defs153"><rect
           id="SVGID_11_"
           x="132"
           y="502.5"
           width="290.16"
           height="223.2" /></defs><clipPath
         id="SVGID_12_"><use
           xlink:href="#SVGID_11_"
           overflow="visible"
           id="use157"
           style="overflow:visible"
           x="0"
           y="0"
           width="100%"
           height="100%" /></clipPath><path
         clip-path="url(#SVGID_12_)"
         stroke-miterlimit="10"
         d="m 151.902,690.53 c 3.606,1.242 4.988,0.61 4.988,0.61 0,0 -4.091,1.919 -5.376,5.643 m 3.085,-4.412 c -8.746,3.77 -13.85,6.475 -16.463,7.696 m 4.782,-12.379 c 3.759,-0.645 7.203,-4.358 7.203,-4.358 0,0 -0.741,0.976 -0.078,4.858 m -1.339,-2.678 c -5.857,7.509 -9.034,12.334 -10.738,14.661"
         id="path159"
         inkscape:connector-curvature="0"
         style="fill:none;stroke:#000000;stroke-width:1.5;stroke-linecap:round;stroke-linejoin:round;stroke-miterlimit:10" /></g><path
       d="m 136.761,709.296 c -0.216,0 -0.36,-0.072 -0.444,-0.216 -0.06,-0.108 -0.108,-0.312 -0.156,-0.636 -0.3,0.071 -0.744,0.203 -1.355,0.407 -0.636,0.252 -0.948,0.552 -0.948,0.924 0.12,0.048 0.228,0.084 0.348,0.107 0.899,0.156 1.559,0.372 2.002,0.66 0.636,0.407 0.948,0.995 0.948,1.775 0,0.635 -0.276,1.103 -0.828,1.427 -0.456,0.264 -1.02,0.396 -1.727,0.396 -0.516,0 -0.996,-0.084 -1.463,-0.252 -0.611,-0.216 -0.911,-0.516 -0.911,-0.911 0,-0.156 0.06,-0.288 0.18,-0.408 0.12,-0.119 0.252,-0.18 0.408,-0.18 0.12,0 0.276,0.096 0.468,0.288 0.096,0.096 0.3,0.168 0.636,0.228 0.264,0.048 0.479,0.072 0.66,0.072 0.336,0 0.624,-0.036 0.875,-0.12 0.372,-0.12 0.552,-0.3 0.552,-0.552 0,-0.539 -0.36,-0.888 -1.104,-1.079 l -0.612,-0.132 c -0.527,-0.12 -0.887,-0.252 -1.103,-0.408 -0.324,-0.216 -0.48,-0.539 -0.48,-0.983 0,-0.827 0.384,-1.403 1.164,-1.751 0.24,-0.107 0.611,-0.228 1.127,-0.372 0.516,-0.144 0.875,-0.264 1.103,-0.371 0.156,-0.072 0.324,-0.108 0.516,-0.108 0.167,0 0.3,0.048 0.408,0.156 0.108,0.107 0.156,0.252 0.156,0.432 0,0.12 0.024,0.288 0.072,0.504 0.048,0.216 0.072,0.384 0.072,0.504 0,0.18 -0.048,0.323 -0.156,0.432 -0.108,0.107 -0.24,0.155 -0.408,0.155 l 0,0.012 z m 4.381,4.713 c -0.396,0 -0.815,-0.06 -1.283,-0.18 l -0.012,2.794 c 0,0.168 -0.048,0.312 -0.156,0.42 -0.108,0.108 -0.24,0.156 -0.408,0.156 -0.168,0 -0.3,-0.048 -0.408,-0.156 -0.108,-0.107 -0.156,-0.252 -0.156,-0.42 l 0.012,-2.338 0,-2.339 c -0.012,-0.863 -0.036,-1.631 -0.084,-2.339 l -0.084,-1.188 c 0,-0.275 0.048,-0.504 0.156,-0.695 0.12,-0.229 0.288,-0.336 0.516,-0.336 0.156,0 0.276,0.048 0.384,0.156 0.108,0.107 0.156,0.239 0.156,0.396 0,0.036 0,0.096 -0.012,0.191 -0.024,0.12 -0.036,0.229 -0.048,0.336 0.336,-0.228 0.66,-0.396 0.972,-0.516 0.312,-0.12 0.611,-0.18 0.899,-0.18 0.804,0 1.379,0.348 1.751,1.067 0.3,0.563 0.444,1.295 0.444,2.23 0,0.852 -0.228,1.535 -0.684,2.087 -0.48,0.588 -1.115,0.876 -1.919,0.876 l -0.036,-0.022 z m 0.444,-5.049 c -0.36,0 -0.684,0.084 -0.972,0.239 -0.204,0.12 -0.456,0.324 -0.779,0.624 0.048,0.888 0.072,1.799 0.072,2.782 0.432,0.168 0.852,0.252 1.283,0.252 0.492,0 0.864,-0.18 1.127,-0.552 0.228,-0.323 0.336,-0.731 0.336,-1.235 0,-0.72 -0.084,-1.247 -0.264,-1.606 -0.18,-0.36 -0.444,-0.528 -0.804,-0.528 l 0,0.024 z m 8.063,5.228 c -0.072,0 -0.204,-0.084 -0.396,-0.252 -0.18,-0.155 -0.312,-0.3 -0.396,-0.419 -0.372,0.203 -0.696,0.359 -0.983,0.468 -0.288,0.107 -0.528,0.155 -0.72,0.155 -0.923,0 -1.583,-0.252 -2.003,-0.768 -0.396,-0.491 -0.588,-1.223 -0.588,-2.23 0,-0.947 0.324,-1.739 0.984,-2.411 0.66,-0.671 1.427,-1.007 2.338,-1.007 0.348,0 0.72,0.084 1.14,0.264 0.54,0.216 0.803,0.479 0.803,0.792 0,0.107 -0.036,0.203 -0.12,0.287 -0.036,0.145 -0.06,0.384 -0.084,0.731 -0.024,0.349 -0.036,0.78 -0.036,1.319 0,0.492 0.036,0.864 0.108,1.151 0.036,0.168 0.156,0.504 0.36,1.02 0.024,0.072 0.072,0.168 0.132,0.3 l 0.036,0.097 c 0,0.155 -0.048,0.287 -0.156,0.396 -0.108,0.107 -0.228,0.155 -0.372,0.155 l -0.047,-0.048 z m -1.175,-4.017 c 0,-0.168 0.012,-0.348 0.036,-0.552 0.024,-0.204 0.06,-0.407 0.108,-0.636 -0.144,-0.071 -0.264,-0.12 -0.372,-0.155 -0.108,-0.036 -0.192,-0.048 -0.252,-0.048 -0.611,0 -1.127,0.239 -1.571,0.743 -0.444,0.504 -0.66,1.067 -0.66,1.715 0,0.648 0.108,1.115 0.335,1.439 0.228,0.324 0.564,0.479 1.02,0.479 0.372,0 0.684,-0.071 0.948,-0.204 0.144,-0.071 0.335,-0.216 0.587,-0.443 -0.12,-1.043 -0.18,-1.811 -0.18,-2.327 l 0,-0.011 z m 5.4,4.006 c -0.804,0 -1.463,-0.24 -2.003,-0.731 -0.564,-0.516 -0.84,-1.176 -0.84,-2.015 0,-0.804 0.264,-1.607 0.792,-2.459 0.587,-0.947 1.235,-1.403 1.979,-1.403 0.384,0 0.804,0.084 1.283,0.264 0.6,0.229 0.9,0.504 0.9,0.84 0,0.144 -0.048,0.275 -0.144,0.396 -0.096,0.12 -0.216,0.181 -0.36,0.181 -0.12,0 -0.216,-0.036 -0.3,-0.108 -0.084,-0.072 -0.168,-0.144 -0.252,-0.216 -0.228,-0.18 -0.6,-0.276 -1.127,-0.276 -0.396,0 -0.779,0.349 -1.175,1.067 -0.36,0.66 -0.54,1.212 -0.54,1.691 0,0.516 0.168,0.912 0.528,1.212 0.335,0.275 0.755,0.407 1.271,0.407 0.24,0 0.492,-0.06 0.756,-0.18 l 0.684,-0.36 c 0.12,-0.06 0.204,-0.096 0.252,-0.096 0.144,0 0.264,0.061 0.372,0.18 0.108,0.12 0.156,0.252 0.156,0.396 0,0.287 -0.3,0.563 -0.911,0.827 -0.528,0.24 -0.959,0.36 -1.308,0.36 l -0.013,0.023 z"
       id="path161"
       inkscape:connector-curvature="0" /><path
       d="m 160.112,714.069 c -0.888,0 -1.595,-0.216 -2.147,-0.66 -0.6,-0.491 -0.899,-1.163 -0.899,-2.051 0,-1.02 0.24,-1.859 0.731,-2.555 0.54,-0.756 1.248,-1.127 2.147,-1.127 0.647,0 1.163,0.107 1.571,0.323 0.504,0.276 0.756,0.684 0.756,1.248 0,0.396 -0.216,0.743 -0.66,1.067 -0.192,0.144 -0.6,0.359 -1.235,0.659 l -2.243,1.056 c 0.216,0.323 0.479,0.563 0.804,0.731 0.324,0.168 0.695,0.252 1.127,0.252 0.276,0 0.588,-0.048 0.959,-0.156 0.468,-0.132 0.756,-0.3 0.888,-0.516 0.132,-0.216 0.276,-0.324 0.432,-0.324 0.132,0 0.252,0.049 0.36,0.156 0.108,0.108 0.156,0.228 0.156,0.36 0,0.432 -0.348,0.803 -1.055,1.115 -0.6,0.264 -1.175,0.396 -1.751,0.396 l 0.059,0.026 z m -0.216,-5.361 c -0.479,0 -0.875,0.18 -1.199,0.552 -0.324,0.371 -0.552,0.923 -0.708,1.667 l 1.799,-0.852 c 0.708,-0.348 1.2,-0.647 1.5,-0.899 -0.336,-0.312 -0.804,-0.468 -1.416,-0.468 l 0.024,0 z"
       id="path163"
       inkscape:connector-curvature="0" /><path
       stroke-miterlimit="10"
       d="m 217.88,654.838 3.426,-2.409 4.7,1.772 m 145.483,-41.364 4.699,1.772 3.427,-2.409 3.427,-2.409 4.699,1.772 3.427,-2.409 m -130.504,35.91 3.426,-2.409 3.427,-2.408 4.699,1.771 3.427,-2.408 3.427,-2.409 4.699,1.772 3.427,-2.409 3.426,-2.409 4.7,1.772 3.427,-2.409 3.426,-2.408 4.7,1.771 3.426,-2.408 3.427,-2.409 4.699,1.772 3.427,-2.409 3.427,-2.408 4.699,1.771 3.427,-2.408 3.427,-2.409 2.762,0.826 m -124.532,29.168 -2.638,-0.628 1.444,2.072 -8.748,2.936 7.868,-0.485 -5.049,5.278 6.556,-4.022 2.513,2.638 1.444,-1.884 2.324,1.57 -0.879,-3.267 m 170.645,-50.058 6.532,3.518 -10.301,6.281 m -169.101,30.74 c -6.793,3.363 -14.269,7.396 -21.174,10.741 -9.083,10.204 -20.08,20.733 -27.937,29.968 44.359,-21.636 96.773,-49.013 195.555,-97.523 5.812,-9.051 8.151,-15.368 13.207,-22.35 -78.453,38.231 -111.528,55.128 -151.519,74.931 m -24.202,38.471 -1.867,0.941 c 0,0 -16.717,18.793 -27.937,29.969 50.802,-24.446 117.332,-59.121 195.556,-97.524 4.376,-8.676 9.904,-16.762 13.206,-22.349 -32.793,17.619 -48.578,23.067 -72.26,34.815 m -30.164,16.069 c -25.814,12.354 -54.149,26.68 -68.598,34.032"
       id="path165"
       inkscape:connector-curvature="0"
       style="fill:none;stroke:#000000;stroke-width:1.5;stroke-linecap:round;stroke-linejoin:round;stroke-miterlimit:10" /><path
       d="m 386.65,570.378 c -0.336,0 -0.527,-0.181 -0.576,-0.552 l -0.168,-1.283 c -0.06,-0.456 -0.083,-0.876 -0.083,-1.271 0,-0.107 0.012,-0.288 0.023,-0.552 0.011,-0.264 0.024,-0.444 0.024,-0.552 0,-0.852 -0.156,-1.271 -0.468,-1.271 -0.444,0 -0.852,0.252 -1.248,0.779 -0.359,0.48 -0.635,1.068 -0.839,1.8 -0.012,0.155 -0.024,0.348 -0.048,0.575 -0.024,0.192 -0.036,0.384 -0.036,0.564 0,0.119 0.012,0.287 0.036,0.527 0.023,0.24 0.036,0.408 0.036,0.527 0,0.18 -0.049,0.324 -0.156,0.432 -0.108,0.108 -0.24,0.156 -0.408,0.156 -0.168,0 -0.3,-0.048 -0.407,-0.156 -0.108,-0.107 -0.156,-0.252 -0.156,-0.432 0,-0.119 -0.012,-0.287 -0.036,-0.527 -0.023,-0.24 -0.036,-0.408 -0.036,-0.527 0,-0.408 0.024,-0.96 0.084,-1.68 0.061,-0.72 0.084,-1.271 0.084,-1.68 0,-0.119 -0.012,-0.299 -0.023,-0.551 -0.013,-0.252 -0.024,-0.432 -0.024,-0.552 0,-0.168 0.061,-0.3 0.168,-0.408 0.108,-0.107 0.24,-0.155 0.408,-0.155 0.359,0 0.552,0.252 0.587,0.768 l 0.013,0.684 c 0.659,-0.876 1.319,-1.308 2.015,-1.308 0.624,0 1.056,0.276 1.308,0.827 0.168,0.372 0.264,0.912 0.275,1.631 l 0,0.588 0,0.54 c 0,0.323 0.036,0.731 0.12,1.247 0.084,0.516 0.12,0.924 0.12,1.248 0,0.168 -0.061,0.299 -0.168,0.407 -0.108,0.108 -0.24,0.156 -0.408,0.156 l -0.013,0 z m 3.986,-0.072 c -0.66,0 -1.212,-0.239 -1.691,-0.731 -0.527,-0.539 -0.804,-1.248 -0.827,-2.158 -0.024,-0.889 0.191,-1.656 0.659,-2.327 0.552,-0.804 1.296,-1.2 2.279,-1.2 0.791,0 1.379,0.349 1.787,1.068 0.323,0.588 0.479,1.271 0.468,2.086 -0.013,0.876 -0.24,1.607 -0.684,2.231 -0.504,0.695 -1.152,1.044 -1.979,1.044 l -0.012,-0.013 z m 0.359,-5.217 c -0.575,0 -1.02,0.264 -1.343,0.815 -0.252,0.443 -0.372,0.936 -0.372,1.512 0,0.575 0.156,1.007 0.468,1.33 0.264,0.265 0.563,0.396 0.911,0.396 0.408,0 0.756,-0.145 1.056,-0.443 0.336,-0.336 0.504,-0.768 0.527,-1.332 0.061,-1.523 -0.335,-2.267 -1.211,-2.267 l -0.036,-0.011 z"
       id="path167"
       inkscape:connector-curvature="0" /><path
       d="m 401.76,564.717 c -0.312,1.283 -0.708,2.699 -1.2,4.318 -0.107,0.359 -0.287,0.719 -0.539,1.091 -0.132,0.204 -0.312,0.3 -0.552,0.3 -0.432,-0.012 -0.756,-0.527 -0.995,-1.583 -0.084,-0.336 -0.168,-0.78 -0.252,-1.367 l -0.192,-1.308 -0.479,1.115 -0.888,2.423 c -0.048,0.144 -0.12,0.252 -0.216,0.336 -0.12,0.228 -0.3,0.348 -0.563,0.36 -0.3,0.012 -0.588,-0.564 -0.863,-1.752 -0.145,-0.611 -0.288,-1.415 -0.433,-2.459 l -0.144,-0.875 c -0.048,-0.359 -0.072,-0.647 -0.072,-0.887 0,-0.168 0.061,-0.301 0.181,-0.408 0.119,-0.108 0.251,-0.156 0.419,-0.156 0.3,0 0.48,0.156 0.552,0.48 0.048,0.227 0.084,0.503 0.12,0.852 l 0.084,0.863 0.348,2.626 c 0.432,-1.211 0.876,-2.579 1.344,-4.161 0.132,-0.432 0.348,-0.648 0.672,-0.648 0.312,0 0.516,0.24 0.623,0.732 0.108,0.455 0.229,1.15 0.384,2.11 0.156,0.995 0.288,1.751 0.408,2.303 l 0.432,-1.595 0.756,-3.19 c 0.06,-0.24 0.228,-0.36 0.503,-0.36 0.168,0 0.312,0.061 0.432,0.168 0.12,0.108 0.181,0.24 0.181,0.396 0,0.023 -0.024,0.107 -0.061,0.264 l 0.01,0.012 z"
       id="path169"
       inkscape:connector-curvature="0" /><path
       d="m 387.211,594.492 c -0.888,0 -1.596,-0.216 -2.146,-0.66 -0.601,-0.491 -0.9,-1.162 -0.9,-2.051 0,-1.02 0.24,-1.858 0.732,-2.555 0.539,-0.755 1.247,-1.127 2.146,-1.127 0.647,0 1.163,0.107 1.571,0.324 0.504,0.275 0.755,0.684 0.755,1.247 0,0.396 -0.216,0.743 -0.659,1.067 -0.192,0.145 -0.6,0.359 -1.235,0.66 l -2.243,1.055 c 0.216,0.324 0.48,0.564 0.804,0.732 0.324,0.168 0.696,0.252 1.128,0.252 0.275,0 0.587,-0.049 0.959,-0.156 0.468,-0.133 0.756,-0.301 0.888,-0.516 0.132,-0.217 0.275,-0.324 0.432,-0.324 0.132,0 0.252,0.048 0.36,0.156 0.107,0.107 0.155,0.228 0.155,0.359 0,0.432 -0.348,0.804 -1.055,1.115 -0.601,0.264 -1.176,0.396 -1.752,0.396 l 0.06,0.026 z m -0.216,-5.361 c -0.479,0 -0.876,0.18 -1.199,0.553 -0.324,0.371 -0.552,0.923 -0.708,1.666 l 1.799,-0.852 c 0.708,-0.348 1.199,-0.647 1.499,-0.898 -0.335,-0.312 -0.803,-0.469 -1.415,-0.469 l 0.024,0 z m 8.627,5.481 c -0.072,0 -0.204,-0.084 -0.396,-0.252 -0.18,-0.155 -0.312,-0.3 -0.396,-0.42 -0.372,0.204 -0.695,0.36 -0.983,0.468 -0.288,0.108 -0.527,0.156 -0.72,0.156 -0.924,0 -1.583,-0.252 -2.003,-0.768 -0.396,-0.492 -0.588,-1.224 -0.588,-2.23 0,-0.948 0.324,-1.74 0.983,-2.411 0.66,-0.672 1.428,-1.007 2.339,-1.007 0.348,0 0.72,0.083 1.14,0.264 0.54,0.215 0.804,0.479 0.804,0.791 0,0.107 -0.036,0.204 -0.12,0.288 -0.036,0.144 -0.06,0.384 -0.084,0.731 -0.024,0.347 -0.036,0.779 -0.036,1.319 0,0.491 0.036,0.863 0.108,1.151 0.036,0.168 0.155,0.504 0.359,1.02 0.024,0.072 0.072,0.168 0.132,0.3 l 0.036,0.096 c 0,0.155 -0.048,0.288 -0.156,0.396 -0.107,0.108 -0.228,0.156 -0.371,0.156 l -0.048,-0.048 z m -1.176,-4.018 c 0,-0.168 0.012,-0.348 0.036,-0.551 0.023,-0.204 0.06,-0.408 0.107,-0.636 -0.144,-0.072 -0.264,-0.12 -0.371,-0.156 -0.108,-0.036 -0.192,-0.048 -0.252,-0.048 -0.612,0 -1.128,0.24 -1.571,0.744 -0.444,0.504 -0.66,1.066 -0.66,1.715 0,0.647 0.108,1.115 0.336,1.439 0.229,0.323 0.564,0.479 1.02,0.479 0.372,0 0.684,-0.071 0.947,-0.203 0.145,-0.072 0.336,-0.216 0.588,-0.443 -0.12,-1.044 -0.18,-1.812 -0.18,-2.327 l 0,-0.013 z m 7.308,-0.696 c -0.024,0.492 -0.216,0.732 -0.588,0.732 -0.336,0 -0.504,-0.192 -0.504,-0.576 0,-0.072 0,-0.204 -0.012,-0.408 l -0.012,-0.491 c -0.624,0.071 -1.116,0.239 -1.487,0.516 -0.349,0.252 -0.636,0.624 -0.864,1.14 l 0.013,3.214 c 0,0.396 -0.192,0.588 -0.576,0.588 -0.348,0 -0.516,-0.192 -0.516,-0.588 l 0,-4.114 c 0,-0.131 0,-0.323 0.012,-0.587 0.013,-0.265 0.013,-0.456 0.013,-0.588 0,-0.396 0.168,-0.587 0.516,-0.587 0.384,0 0.575,0.323 0.575,0.971 0.756,-0.731 1.571,-1.092 2.495,-1.092 0.323,0 0.552,0.121 0.707,0.36 0.156,0.239 0.229,0.587 0.229,1.067 0,0.203 0,0.336 0,0.408 l 0,0.035 z m 2.689,-0.275 -0.084,2.914 c 0,0.312 -0.012,0.756 -0.048,1.355 -0.036,0.396 -0.229,0.588 -0.576,0.588 -0.384,0 -0.575,-0.191 -0.575,-0.588 0,-0.479 0.023,-1.176 0.071,-2.135 0.049,-0.959 0.072,-1.655 0.072,-2.135 0,-0.624 0.012,-1.319 0.036,-2.123 0.024,-0.804 0.036,-1.499 0.036,-2.123 0,-0.396 0.191,-0.588 0.575,-0.588 0.384,0 0.576,0.192 0.576,0.588 0,0.624 -0.012,1.319 -0.036,2.123 -0.024,0.804 -0.036,1.499 -0.036,2.123 l -0.011,0 z m 2.916,-2.807 c -0.192,0 -0.348,-0.061 -0.479,-0.191 -0.132,-0.133 -0.204,-0.288 -0.204,-0.48 0,-0.191 0.072,-0.348 0.204,-0.479 0.132,-0.131 0.287,-0.192 0.479,-0.192 0.191,0 0.348,0.061 0.479,0.192 0.131,0.131 0.204,0.288 0.204,0.479 0,0.192 -0.072,0.348 -0.204,0.48 -0.131,0.131 -0.287,0.191 -0.479,0.191 l 0,0 z m 0.264,4.75 c 0,0.239 0.012,0.587 0.024,1.055 0.012,0.468 0.023,0.816 0.023,1.056 0,0.168 -0.048,0.312 -0.155,0.42 -0.108,0.108 -0.24,0.155 -0.408,0.155 -0.168,0 -0.3,-0.047 -0.408,-0.155 -0.107,-0.108 -0.155,-0.252 -0.155,-0.42 0,-0.239 -0.013,-0.588 -0.024,-1.056 -0.011,-0.468 -0.023,-0.815 -0.023,-1.055 0,-0.373 0.023,-0.828 0.06,-1.38 0.037,-0.552 0.06,-1.007 0.06,-1.379 0,-0.181 0.049,-0.324 0.156,-0.433 0.108,-0.107 0.24,-0.155 0.408,-0.155 0.168,0 0.3,0.048 0.407,0.155 0.108,0.108 0.156,0.252 0.156,0.433 0,0.372 -0.024,0.827 -0.061,1.379 -0.036,0.552 -0.06,1.007 -0.06,1.38 l 0,0 z m 4.715,2.926 c -0.887,0 -1.595,-0.216 -2.146,-0.66 -0.6,-0.491 -0.899,-1.162 -0.899,-2.051 0,-1.02 0.24,-1.858 0.731,-2.555 0.54,-0.755 1.247,-1.127 2.147,-1.127 0.647,0 1.163,0.107 1.57,0.324 0.504,0.275 0.756,0.684 0.756,1.247 0,0.396 -0.216,0.743 -0.659,1.067 -0.192,0.145 -0.6,0.359 -1.235,0.66 l -2.243,1.055 c 0.216,0.324 0.479,0.564 0.804,0.732 0.323,0.168 0.695,0.252 1.127,0.252 0.276,0 0.588,-0.049 0.96,-0.156 0.468,-0.133 0.756,-0.301 0.888,-0.516 0.132,-0.217 0.275,-0.324 0.432,-0.324 0.132,0 0.252,0.048 0.359,0.156 0.108,0.107 0.156,0.228 0.156,0.359 0,0.432 -0.348,0.804 -1.056,1.115 -0.6,0.264 -1.175,0.396 -1.751,0.396 l 0.059,0.026 z m -0.216,-5.361 c -0.479,0 -0.875,0.18 -1.199,0.553 -0.323,0.371 -0.552,0.923 -0.707,1.666 l 1.799,-0.852 c 0.707,-0.348 1.199,-0.647 1.499,-0.898 -0.336,-0.312 -0.804,-0.469 -1.415,-0.469 l 0.023,0 z m 8.615,0.767 c -0.024,0.492 -0.216,0.732 -0.588,0.732 -0.336,0 -0.504,-0.192 -0.504,-0.576 0,-0.072 0,-0.204 -0.012,-0.408 l -0.012,-0.491 c -0.624,0.071 -1.115,0.239 -1.487,0.516 -0.348,0.252 -0.636,0.624 -0.863,1.14 l 0.012,3.214 c 0,0.396 -0.192,0.588 -0.576,0.588 -0.348,0 -0.516,-0.192 -0.516,-0.588 l 0,-4.114 c 0,-0.131 0,-0.323 0.013,-0.587 0.012,-0.265 0.012,-0.456 0.012,-0.588 0,-0.396 0.168,-0.587 0.516,-0.587 0.384,0 0.575,0.323 0.575,0.971 0.756,-0.731 1.571,-1.092 2.495,-1.092 0.324,0 0.552,0.121 0.708,0.36 0.155,0.239 0.228,0.587 0.228,1.067 0,0.203 0,0.336 0,0.408 l 0,0.035 z"
       id="path171"
       inkscape:connector-curvature="0" /><g
       id="g173"><defs
         id="defs175"><rect
           id="SVGID_13_"
           x="132"
           y="502.5"
           width="290.16"
           height="223.2" /></defs><clipPath
         id="SVGID_14_"><use
           xlink:href="#SVGID_13_"
           overflow="visible"
           id="use179"
           style="overflow:visible"
           x="0"
           y="0"
           width="100%"
           height="100%" /></clipPath><path
         clip-path="url(#SVGID_14_)"
         stroke-miterlimit="10"
         d="m 217.813,653.901 c 15.245,-33.517 51.039,-95.948 67.61,-134.065 m -74.327,148.298 c -1.867,4.513 -10.737,19.296 -11.516,21.941 m -5.29,12.916 c -1.867,4.513 -10.737,19.297 -11.516,21.942"
         id="path181"
         inkscape:connector-curvature="0"
         style="fill:none;stroke:#000000;stroke-width:1.5;stroke-linecap:round;stroke-linejoin:round;stroke-miterlimit:10" /></g></g><g
     id="g183"
     inkscape:export-xdpi="200"
     inkscape:export-ydpi="200"
     transform="translate(-2.835,-278.54263)"><path
       d="m 56.045,416.705 c -0.419,0 -0.784,-0.538 -1.094,-1.613 -0.119,-0.41 -0.267,-1.128 -0.444,-2.153 -0.465,0.063 -1.073,0.178 -1.825,0.342 l -1.818,0.376 c -0.228,0.597 -0.618,1.47 -1.169,2.618 -0.146,0.255 -0.344,0.383 -0.595,0.383 -0.182,0 -0.345,-0.066 -0.489,-0.198 -0.144,-0.132 -0.215,-0.296 -0.215,-0.492 0,-0.219 0.344,-1.051 1.032,-2.495 -0.078,-0.118 -0.116,-0.255 -0.116,-0.41 0,-0.369 0.223,-0.606 0.67,-0.711 0.52,-0.976 1.176,-2.097 1.969,-3.363 1.08,-1.728 1.752,-2.591 2.017,-2.591 0.36,0 0.606,0.251 0.738,0.752 l 0.431,2.297 1.019,4.751 0.39,1.08 c 0.132,0.369 0.198,0.615 0.198,0.738 0,0.196 -0.071,0.36 -0.212,0.492 -0.141,0.132 -0.305,0.197 -0.487,0.197 z m -2.413,-7.813 -1.955,3.151 c 0.551,-0.142 1.388,-0.312 2.509,-0.513 l -0.554,-2.638 z"
       id="path185"
       inkscape:connector-curvature="0" /></g><g
     id="g187"
     inkscape:export-xdpi="200"
     inkscape:export-ydpi="200"
     transform="translate(-2.835,-278.54263)"><path
       d="m 382.045,420.205 c -0.42,0 -0.783,-0.538 -1.094,-1.613 -0.119,-0.41 -0.267,-1.128 -0.444,-2.153 -0.465,0.063 -1.073,0.178 -1.825,0.342 l -1.818,0.376 c -0.229,0.597 -0.617,1.47 -1.169,2.618 -0.146,0.255 -0.345,0.383 -0.595,0.383 -0.182,0 -0.346,-0.066 -0.488,-0.198 -0.145,-0.132 -0.216,-0.296 -0.216,-0.492 0,-0.219 0.345,-1.051 1.032,-2.495 -0.078,-0.118 -0.116,-0.255 -0.116,-0.41 0,-0.369 0.224,-0.606 0.67,-0.711 0.52,-0.976 1.176,-2.097 1.969,-3.363 1.08,-1.728 1.753,-2.591 2.017,-2.591 0.359,0 0.605,0.251 0.738,0.752 l 0.431,2.297 1.019,4.751 0.39,1.08 c 0.132,0.369 0.198,0.615 0.198,0.738 0,0.196 -0.07,0.36 -0.212,0.492 -0.142,0.132 -0.305,0.197 -0.487,0.197 z m -2.413,-7.813 -1.955,3.151 c 0.552,-0.142 1.388,-0.312 2.509,-0.513 l -0.554,-2.638 z"
       id="path189"
       inkscape:connector-curvature="0" /></g><g
     id="g191"
     inkscape:export-xdpi="200"
     inkscape:export-ydpi="200"
     transform="translate(-2.835,-278.54263)"><path
       d="m 203.045,668.205 c -0.419,0 -0.784,-0.538 -1.094,-1.613 -0.119,-0.41 -0.267,-1.128 -0.444,-2.153 -0.465,0.063 -1.073,0.178 -1.825,0.342 l -1.818,0.376 c -0.228,0.597 -0.618,1.47 -1.169,2.618 -0.146,0.255 -0.344,0.383 -0.595,0.383 -0.182,0 -0.345,-0.066 -0.489,-0.198 -0.144,-0.132 -0.215,-0.296 -0.215,-0.492 0,-0.219 0.344,-1.051 1.032,-2.495 -0.078,-0.118 -0.116,-0.255 -0.116,-0.41 0,-0.369 0.223,-0.606 0.67,-0.711 0.52,-0.976 1.176,-2.097 1.969,-3.363 1.08,-1.728 1.752,-2.591 2.017,-2.591 0.36,0 0.606,0.251 0.738,0.752 l 0.431,2.297 1.019,4.751 0.39,1.08 c 0.132,0.369 0.198,0.615 0.198,0.738 0,0.196 -0.071,0.36 -0.212,0.492 -0.141,0.132 -0.305,0.197 -0.487,0.197 z m -2.413,-7.813 -1.955,3.151 c 0.551,-0.142 1.388,-0.312 2.509,-0.513 l -0.554,-2.638 z"
       id="path193"
       inkscape:connector-curvature="0" /></g><g
     id="g195"
     inkscape:export-xdpi="200"
     inkscape:export-ydpi="200"
     transform="translate(-2.835,-278.54263)"><path
       d="m 242.557,369.727 c -1.025,0.401 -2.335,0.602 -3.931,0.602 -0.196,0 -0.382,-0.092 -0.557,-0.277 -0.175,-0.184 -0.263,-0.374 -0.263,-0.57 l 0,-1.989 c 0,-0.651 0.041,-1.581 0.123,-2.789 0.091,-1.304 0.141,-2.247 0.15,-2.83 -0.004,-0.419 0.021,-1.044 0.075,-1.873 0.032,-0.228 0.107,-0.378 0.226,-0.451 0.62,-0.191 1.324,-0.287 2.112,-0.287 0.802,0 1.572,0.273 2.311,0.82 0.852,0.629 1.278,1.406 1.278,2.331 0,1.171 -0.456,2.094 -1.367,2.769 0.684,0.292 1.195,0.615 1.535,0.971 0.34,0.356 0.509,0.743 0.509,1.162 0,0.552 -0.298,1.085 -0.896,1.6 -0.414,0.361 -0.85,0.633 -1.305,0.811 z m -1.299,-3.596 -0.725,-0.116 c -0.059,0 -0.149,0.003 -0.27,0.011 -0.121,0.006 -0.213,0.01 -0.277,0.01 -0.246,0 -0.508,-0.021 -0.786,-0.062 -0.027,0.574 -0.041,1.087 -0.041,1.538 l 0,1.415 c 1.194,-0.041 2.167,-0.21 2.919,-0.506 0.319,-0.123 0.625,-0.314 0.916,-0.574 0.278,-0.237 0.417,-0.415 0.417,-0.533 0,-0.214 -0.292,-0.456 -0.875,-0.725 -0.437,-0.205 -0.864,-0.358 -1.278,-0.458 z m -0.766,-5.476 c -0.497,0 -0.845,0.016 -1.046,0.048 l -0.014,1.196 -0.137,2.646 c 0.647,0.055 0.994,0.08 1.039,0.075 0.688,-0.055 1.251,-0.269 1.688,-0.643 0.469,-0.405 0.704,-0.928 0.704,-1.565 0,-0.433 -0.239,-0.834 -0.718,-1.203 -0.479,-0.369 -0.983,-0.554 -1.516,-0.554 z"
       id="path197"
       inkscape:connector-curvature="0" /></g><g
     id="g199"
     inkscape:export-xdpi="200"
     inkscape:export-ydpi="200"
     transform="translate(-2.835,-278.54263)"><path
       d="m 535.557,382.227 c -1.025,0.401 -2.336,0.602 -3.931,0.602 -0.196,0 -0.382,-0.092 -0.558,-0.277 -0.175,-0.184 -0.263,-0.374 -0.263,-0.57 l 0,-1.989 c 0,-0.651 0.041,-1.581 0.123,-2.789 0.091,-1.304 0.142,-2.247 0.15,-2.83 -0.005,-0.419 0.021,-1.044 0.075,-1.873 0.031,-0.228 0.107,-0.378 0.226,-0.451 0.62,-0.191 1.323,-0.287 2.112,-0.287 0.803,0 1.572,0.273 2.311,0.82 0.852,0.629 1.278,1.406 1.278,2.331 0,1.171 -0.456,2.094 -1.367,2.769 0.684,0.292 1.195,0.615 1.534,0.971 0.34,0.355 0.51,0.743 0.51,1.162 0,0.552 -0.299,1.085 -0.896,1.6 -0.414,0.361 -0.849,0.633 -1.304,0.811 z m -1.299,-3.596 -0.725,-0.116 c -0.059,0 -0.149,0.003 -0.27,0.011 -0.121,0.006 -0.213,0.01 -0.277,0.01 -0.246,0 -0.508,-0.021 -0.786,-0.062 -0.027,0.574 -0.041,1.087 -0.041,1.538 l 0,1.415 c 1.194,-0.041 2.167,-0.21 2.919,-0.506 0.318,-0.123 0.625,-0.314 0.916,-0.574 0.277,-0.237 0.417,-0.415 0.417,-0.533 0,-0.214 -0.292,-0.456 -0.875,-0.725 -0.437,-0.205 -0.864,-0.358 -1.278,-0.458 z m -0.766,-5.476 c -0.496,0 -0.846,0.016 -1.046,0.048 l -0.014,1.196 -0.137,2.646 c 0.647,0.055 0.993,0.08 1.039,0.075 0.688,-0.055 1.251,-0.269 1.688,-0.643 0.469,-0.405 0.704,-0.928 0.704,-1.565 0,-0.433 -0.239,-0.834 -0.718,-1.203 -0.479,-0.369 -0.983,-0.554 -1.516,-0.554 z"
       id="path201"
       inkscape:connector-curvature="0" /></g><g
     id="g203"
     inkscape:export-xdpi="200"
     inkscape:export-ydpi="200"
     transform="translate(-2.835,-278.54263)"><path
       d="m 406.057,612.227 c -1.025,0.401 -2.336,0.602 -3.931,0.602 -0.196,0 -0.382,-0.092 -0.558,-0.277 -0.175,-0.184 -0.263,-0.374 -0.263,-0.57 l 0,-1.989 c 0,-0.651 0.041,-1.581 0.123,-2.789 0.091,-1.304 0.142,-2.247 0.15,-2.83 -0.005,-0.419 0.021,-1.044 0.075,-1.873 0.031,-0.228 0.107,-0.378 0.226,-0.451 0.62,-0.191 1.323,-0.287 2.112,-0.287 0.803,0 1.572,0.273 2.311,0.82 0.852,0.629 1.278,1.406 1.278,2.331 0,1.171 -0.456,2.094 -1.367,2.769 0.684,0.292 1.195,0.615 1.534,0.971 0.34,0.355 0.51,0.743 0.51,1.162 0,0.552 -0.299,1.085 -0.896,1.6 -0.414,0.361 -0.849,0.633 -1.304,0.811 z m -1.299,-3.596 -0.725,-0.116 c -0.059,0 -0.149,0.003 -0.27,0.011 -0.121,0.006 -0.213,0.01 -0.277,0.01 -0.246,0 -0.508,-0.021 -0.786,-0.062 -0.027,0.574 -0.041,1.087 -0.041,1.538 l 0,1.415 c 1.194,-0.041 2.167,-0.21 2.919,-0.506 0.318,-0.123 0.625,-0.314 0.916,-0.574 0.277,-0.237 0.417,-0.415 0.417,-0.533 0,-0.214 -0.292,-0.456 -0.875,-0.725 -0.437,-0.205 -0.864,-0.358 -1.278,-0.458 z m -0.766,-5.476 c -0.496,0 -0.846,0.016 -1.046,0.048 l -0.014,1.196 -0.137,2.646 c 0.647,0.055 0.993,0.08 1.039,0.075 0.688,-0.055 1.251,-0.269 1.688,-0.643 0.469,-0.405 0.704,-0.928 0.704,-1.565 0,-0.433 -0.239,-0.834 -0.718,-1.203 -0.479,-0.369 -0.983,-0.554 -1.516,-0.554 z"
       id="path205"
       inkscape:connector-curvature="0" /></g></svg>